SplineFontDB: 3.0
FontName: OstrichSans-Medium
FullName: Ostrich Sans Medium
FamilyName: Ostrich Sans
Weight: Medium
Copyright: Copyright (c) 2011 by Tyler Finck. All rights reserved.
Version: 1.000
ItalicAngle: 0
UnderlinePosition: -102
UnderlineWidth: 102
Ascent: 1536
Descent: 512
sfntRevision: 0x00010000
woffMajor: 1
woffMinor: 0
LayerCount: 2
Layer: 0 1 "Back"  1
Layer: 1 1 "Fore"  0
XUID: [1021 379 974015115 1226531]
FSType: 0
OS2Version: 3
OS2_WeightWidthSlopeOnly: 0
OS2_UseTypoMetrics: 1
CreationTime: 1305835626
ModificationTime: 1394533324
PfmFamily: 17
TTFWeight: 500
TTFWidth: 5
LineGap: 0
VLineGap: 0
Panose: 2 0 5 8 0 0 0 2 0 4
OS2TypoAscent: 0
OS2TypoAOffset: 1
OS2TypoDescent: 0
OS2TypoDOffset: 1
OS2TypoLinegap: 0
OS2WinAscent: 0
OS2WinAOffset: 1
OS2WinDescent: 0
OS2WinDOffset: 1
HheadAscent: 151
HheadAOffset: 1
HheadDescent: -430
HheadDOffset: 1
OS2SubXSize: 1434
OS2SubYSize: 1331
OS2SubXOff: 0
OS2SubYOff: 287
OS2SupXSize: 1434
OS2SupYSize: 1331
OS2SupXOff: 0
OS2SupYOff: 977
OS2StrikeYSize: 102
OS2StrikeYPos: 512
OS2Vendor: 'pyrs'
OS2CodePages: 00000001.00000000
OS2UnicodeRanges: 00000001.00000000.00000000.00000000
DEI: 91125
TtTable: prep
PUSHW_1
 511
SCANCTRL
PUSHB_1
 1
SCANTYPE
SVTCA[y-axis]
MPPEM
PUSHB_1
 8
LT
IF
PUSHB_2
 1
 1
INSTCTRL
EIF
PUSHB_2
 70
 6
CALL
IF
POP
PUSHB_1
 16
EIF
MPPEM
PUSHB_1
 20
GT
IF
POP
PUSHB_1
 128
EIF
SCVTCI
PUSHB_1
 6
CALL
NOT
IF
SVTCA[y-axis]
PUSHB_1
 3
DUP
RCVT
PUSHB_1
 3
CALL
WCVTP
PUSHB_1
 4
DUP
RCVT
PUSHW_3
 3
 373
 2
CALL
PUSHB_1
 3
CALL
WCVTP
PUSHB_1
 5
DUP
RCVT
PUSHB_3
 4
 47
 2
CALL
PUSHB_1
 3
CALL
WCVTP
PUSHB_1
 6
DUP
RCVT
PUSHB_3
 5
 27
 2
CALL
PUSHB_1
 3
CALL
WCVTP
PUSHB_1
 7
DUP
RCVT
PUSHB_3
 6
 24
 2
CALL
PUSHB_1
 3
CALL
WCVTP
PUSHB_1
 8
DUP
RCVT
PUSHB_3
 7
 23
 2
CALL
PUSHB_1
 3
CALL
WCVTP
PUSHB_1
 9
DUP
RCVT
PUSHB_3
 8
 9
 2
CALL
PUSHB_1
 3
CALL
WCVTP
SVTCA[x-axis]
PUSHB_1
 10
DUP
RCVT
PUSHB_1
 3
CALL
WCVTP
PUSHB_1
 11
DUP
RCVT
PUSHW_3
 10
 32767
 2
CALL
PUSHB_2
 3
 70
SROUND
CALL
WCVTP
PUSHB_1
 12
DUP
RCVT

StartChar: exclam
Encoding: 33 33 4
Width: 190
GlyphClass: 2
Flags: W
LayerCount: 2
Fore
SplineSet
18 2 m 1,0,-1
 18 90 l 1,1,-1
 82 90 l 1,2,-1
 82 2 l 1,3,-1
 18 2 l 1,0,-1
18 203 m 1,4,-1
 18 1382 l 1,5,-1
 82 1382 l 1,6,-1
 82 203 l 1,7,-1
 18 203 l 1,4,-1
EndSplineSet
EndChar

StartChar: quotedbl
Encoding: 34 34 5
Width: 331
GlyphClass: 2
Flags: W
LayerCount: 2
Fore
SplineSet
20 1200 m 1,0,-1
 20 1380 l 1,1,-1
 84 1380 l 1,2,-1
 84 1200 l 1,3,-1
 20 1200 l 1,0,-1
141 1200 m 1,4,-1
 141 1380 l 1,5,-1
 207 1380 l 1,6,-1
 207 1200 l 1,7,-1
 141 1200 l 1,4,-1
EndSplineSet
EndChar

StartChar: numbersign
Encoding: 35 35 6
Width: 1110
GlyphClass: 2
Flags: W
LayerCount: 2
Fore
SplineSet
-41 463 m 1,0,-1
 -41 528 l 1,1,-1
 258 528 l 1,2,-1
 322 850 l 1,3,-1
 23 850 l 1,4,-1
 23 915 l 1,5,-1
 334 915 l 1,6,-1
 424 1380 l 1,7,-1
 492 1380 l 1,8,-1
 399 915 l 1,9,-1
 690 915 l 1,10,-1
 778 1380 l 1,11,-1
 844 1380 l 1,12,-1
 756 915 l 1,13,-1
 1001 915 l 1,14,-1
 1001 850 l 1,15,-1
 741 850 l 1,16,-1
 680 528 l 1,17,-1
 938 528 l 1,18,-1
 938 463 l 1,19,-1
 666 463 l 1,20,-1
 578 0 l 1,21,-1
 512 0 l 1,22,-1
 600 463 l 1,23,-1
 311 463 l 1,24,-1
 221 0 l 1,25,-1
 156 0 l 1,26,-1
 246 463 l 1,27,-1
 -41 463 l 1,0,-1
324 528 m 1,28,-1
 612 528 l 1,29,-1
 676 850 l 1,30,-1
 387 850 l 1,31,-1
 324 528 l 1,28,-1
EndSplineSet
EndChar

StartChar: dollar
Encoding: 36 36 7
Width: 655
GlyphClass: 2
Flags: W
LayerCount: 2
Fore
SplineSet
39 965 m 0,0,1
 39 1100 39 1100 100 1184 c 1,2,3
 157 1266 157 1266 262 1278 c 1,4,-1
 262 1380 l 1,5,-1
 326 1380 l 1,6,-1
 326 1278 l 1,7,8
 367 1274 367 1274 406.5 1258.5 c 128,-1,9
 446 1243 446 1243 478 1207 c 128,-1,10
 510 1171 510 1171 529.5 1112 c 128,-1,11
 549 1053 549 1053 549 965 c 2,12,-1
 549 932 l 1,13,-1
 485 932 l 1,14,-1
 485 965 l 2,15,16
 485 1039 485 1039 471 1086 c 128,-1,17
 457 1133 457 1133 434.5 1160.5 c 128,-1,18
 412 1188 412 1188 383 1199 c 128,-1,19
 354 1210 354 1210 326 1214 c 1,20,-1
 326 700 l 1,21,22
 330 698 330 698 333 697 c 128,-1,23
 336 696 336 696 340 694 c 0,24,25
 367 682 367 682 403.5 661.5 c 128,-1,26
 440 641 440 641 472 608 c 128,-1,27
 504 575 504 575 526.5 526 c 128,-1,28
 549 477 549 477 549 406 c 0,29,30
 549 340 549 340 533.5 285.5 c 128,-1,31
 518 231 518 231 487 190 c 0,32,33
 428 112 428 112 326 100 c 1,34,-1
 326 0 l 1,35,-1
 262 0 l 1,36,-1
 262 100 l 1,37,38
 221 104 221 104 181 120.5 c 128,-1,39
 141 137 141 137 109.5 172 c 128,-1,40
 78 207 78 207 58.5 265.5 c 128,-1,41
 39 324 39 324 39 414 c 2,42,-1
 39 446 l 1,43,-1
 102 446 l 1,44,-1
 102 414 l 2,45,46
 102 340 102 340 116.5 293 c 128,-1,47
 131 246 131 246 153.5 218 c 128,-1,48
 176 190 176 190 204.5 178 c 128,-1,49
 233 166 233 166 262 164 c 1,50,-1
 262 662 l 1,51,-1
 254 666 l 1,52,-1
 246 670 l 1,53,-1
 183 705 l 2,54,55
 147 725 147 725 115.5 759 c 128,-1,56
 84 793 84 793 61.5 843 c 128,-1,57
 39 893 39 893 39 965 c 0,0,1
102 965 m 0,58,59
 102 912 102 912 117.5 874 c 128,-1,60
 133 836 133 836 155.5 810 c 128,-1,61
 178 784 178 784 207 766 c 128,-1,62
 236 748 236 748 262 735 c 1,63,-1
 262 1212 l 1,64,65
 219 1206 219 1206 188.5 1182.5 c 128,-1,66
 158 1159 158 1159 138.5 1124.5 c 128,-1,67
 119 1090 119 1090 110.5 1049 c 128,-1,68
 102 1008 102 1008 102 965 c 0,58,59
326 166 m 1,69,70
 402 176 402 176 443.5 238.5 c 128,-1,71
 485 301 485 301 485 406 c 0,72,73
 485 459 485 459 470 495.5 c 128,-1,74
 455 532 455 532 431.5 558 c 128,-1,75
 408 584 408 584 379 600 c 128,-1,76
 350 616 350 616 326 629 c 1,77,-1
 326 166 l 1,69,70
EndSplineSet
EndChar

StartChar: percent
Encoding: 37 37 8
Width: 919
GlyphClass: 2
Flags: W
LayerCount: 2
Fore
SplineSet
0 922 m 2,0,-1
 0 1098 l 2,1,2
 0 1182 0 1182 47 1234 c 128,-1,3
 94 1286 94 1286 168 1286 c 128,-1,4
 242 1286 242 1286 289 1234 c 128,-1,5
 336 1182 336 1182 336 1098 c 2,6,-1
 336 922 l 2,7,8
 336 838 336 838 289 785.5 c 128,-1,9
 242 733 242 733 168 733 c 128,-1,10
 94 733 94 733 47 785.5 c 128,-1,11
 0 838 0 838 0 922 c 2,0,-1
63 922 m 2,12,13
 63 879 63 879 87 839 c 128,-1,14
 111 799 111 799 168 799 c 128,-1,15
 225 799 225 799 247.5 839 c 128,-1,16
 270 879 270 879 270 922 c 2,17,-1
 270 1098 l 2,18,19
 270 1141 270 1141 247.5 1181 c 128,-1,20
 225 1221 225 1221 168 1221 c 128,-1,21
 111 1221 111 1221 87 1181 c 128,-1,22
 63 1141 63 1141 63 1098 c 2,23,-1
 63 922 l 2,12,13
109 0 m 1,24,-1
 662 1380 l 1,25,-1
 731 1380 l 1,26,-1
 178 0 l 1,27,-1
 109 0 l 1,24,-1
502 281 m 2,28,-1
 502 457 l 2,29,30
 502 541 502 541 548 592 c 128,-1,31
 594 643 594 643 670 643 c 0,32,33
 744 643 744 643 790 592 c 128,-1,34
 836 541 836 541 836 457 c 2,35,-1
 836 281 l 2,36,37
 836 197 836 197 789.5 144.5 c 128,-1,38
 743 92 743 92 670 92 c 0,39,40
 594 92 594 92 548 144.5 c 128,-1,41
 502 197 502 197 502 281 c 2,28,-1
565 281 m 2,42,43
 565 238 565 238 587.5 197 c 128,-1,44
 610 156 610 156 670 156 c 0,45,46
 727 156 727 156 749.5 197 c 128,-1,47
 772 238 772 238 772 281 c 2,48,-1
 772 457 l 2,49,50
 772 477 772 477 767 498.5 c 128,-1,51
 762 520 762 520 749.5 538.5 c 128,-1,52
 737 557 737 557 717.5 568.5 c 128,-1,53
 698 580 698 580 669.5 580 c 128,-1,54
 641 580 641 580 620.5 568.5 c 128,-1,55
 600 557 600 557 587.5 538.5 c 128,-1,56
 575 520 575 520 570 498.5 c 128,-1,57
 565 477 565 477 565 457 c 2,58,-1
 565 281 l 2,42,43
EndSplineSet
EndChar

StartChar: ampersand
Encoding: 38 38 9
Width: 878
GlyphClass: 2
Flags: W
LayerCount: 2
Fore
SplineSet
0 340 m 0,0,1
 0 408 0 408 16.5 459 c 128,-1,2
 33 510 33 510 60.5 550 c 128,-1,3
 88 590 88 590 124 623 c 2,4,-1
 197 688 l 1,5,6
 213 704 213 704 231 720 c 2,7,-1
 268 752 l 1,8,9
 254 772 254 772 231.5 811 c 128,-1,10
 209 850 209 850 187.5 897 c 128,-1,11
 166 944 166 944 150.5 996.5 c 128,-1,12
 135 1049 135 1049 135 1100 c 0,13,14
 135 1170 135 1170 144.5 1218 c 128,-1,15
 154 1266 154 1266 170 1300 c 1,16,17
 213 1380 213 1380 309 1380 c 0,18,19
 413 1380 413 1380 455 1286 c 0,20,21
 473 1245 473 1245 478 1194 c 128,-1,22
 483 1143 483 1143 483 1100 c 0,23,24
 483 1026 483 1026 468 966.5 c 128,-1,25
 453 907 453 907 432.5 862 c 128,-1,26
 412 817 412 817 388.5 787.5 c 128,-1,27
 365 758 365 758 350 741 c 1,28,-1
 618 281 l 1,29,30
 647 359 647 359 653 441.5 c 128,-1,31
 659 524 659 524 659 590 c 2,32,-1
 659 610 l 1,33,-1
 725 610 l 1,34,-1
 725 590 l 2,35,36
 725 512 725 512 715 409.5 c 128,-1,37
 705 307 705 307 662 215 c 0,38,39
 662 213 662 213 660.5 213 c 128,-1,40
 659 213 659 213 659 211 c 1,41,-1
 782 0 l 1,42,-1
 709 0 l 1,43,-1
 623 147 l 1,44,45
 519 0 519 0 309 0 c 0,46,47
 166 0 166 0 82 100 c 1,48,49
 0 195 0 195 0 340 c 0,0,1
63 340 m 0,50,51
 63 289 63 289 77.5 238.5 c 128,-1,52
 92 188 92 188 123 149.5 c 128,-1,53
 154 111 154 111 200 87 c 128,-1,54
 246 63 246 63 309 63 c 0,55,56
 499 63 499 63 586 209 c 1,57,-1
 301 694 l 1,58,-1
 269 667 l 1,59,-1
 238 639 l 1,60,61
 201 608 201 608 169 578.5 c 128,-1,62
 137 549 137 549 113.5 515 c 128,-1,63
 90 481 90 481 76.5 439 c 128,-1,64
 63 397 63 397 63 340 c 0,50,51
201 1100 m 0,65,66
 201 1059 201 1059 213 1015 c 128,-1,67
 225 971 225 971 242.5 930 c 128,-1,68
 260 889 260 889 279.5 854 c 128,-1,69
 299 819 299 819 313 797 c 1,70,71
 323 807 323 807 333.5 821.5 c 128,-1,72
 344 836 344 836 354 852 c 0,73,74
 417 958 417 958 418 1100 c 0,75,76
 418 1168 418 1168 409.5 1209.5 c 128,-1,77
 401 1251 401 1251 388 1275.5 c 128,-1,78
 375 1300 375 1300 354.5 1308.5 c 128,-1,79
 334 1317 334 1317 309 1317 c 0,80,81
 286 1317 286 1317 267 1310 c 128,-1,82
 248 1303 248 1303 233.5 1280 c 128,-1,83
 219 1257 219 1257 210 1214.5 c 128,-1,84
 201 1172 201 1172 201 1100 c 0,65,66
EndSplineSet
EndChar

StartChar: quotesingle
Encoding: 39 39 10
Width: 165
GlyphClass: 2
Flags: W
LayerCount: 2
Fore
SplineSet
20 1200 m 1,0,-1
 20 1380 l 1,1,-1
 84 1380 l 1,2,-1
 84 1200 l 1,3,-1
 20 1200 l 1,0,-1
EndSplineSet
EndChar

StartChar: parenleft
Encoding: 40 40 11
Width: 339
GlyphClass: 2
Flags: W
LayerCount: 2
Fore
SplineSet
14 686 m 0,0,1
 14 895 14 895 44 1028 c 128,-1,2
 74 1161 74 1161 108.5 1238 c 128,-1,3
 143 1315 143 1315 174 1344.5 c 128,-1,4
 205 1374 205 1374 209 1376 c 1,5,-1
 246 1321 l 1,6,7
 234 1311 234 1311 219 1294 c 0,8,9
 207 1280 207 1280 192.5 1257.5 c 128,-1,10
 178 1235 178 1235 162 1200 c 0,11,12
 133 1134 133 1134 105.5 1011.5 c 128,-1,13
 78 889 78 889 78 686 c 0,14,15
 78 485 78 485 105.5 362.5 c 128,-1,16
 133 240 133 240 162 176 c 0,17,18
 178 141 178 141 191.5 119.5 c 128,-1,19
 205 98 205 98 217 84 c 1,20,21
 229 68 229 68 244 59 c 1,22,-1
 211 4 l 1,23,24
 207 8 207 8 175 37 c 128,-1,25
 143 66 143 66 109 141 c 1,26,27
 62 239 62 239 38 375.5 c 128,-1,28
 14 512 14 512 14 686 c 0,0,1
EndSplineSet
EndChar

StartChar: parenright
Encoding: 41 41 12
Width: 323
GlyphClass: 2
Flags: W
LayerCount: 2
Fore
SplineSet
27 1321 m 2,0,-1
 29 1321 l 1,1,-1
 61 1376 l 1,2,3
 65 1372 65 1372 97 1344.5 c 128,-1,4
 129 1317 129 1317 164 1239 c 1,5,6
 258 1044 258 1044 258 694 c 0,7,8
 258 485 258 485 228.5 352 c 128,-1,9
 199 219 199 219 163 142.5 c 128,-1,10
 127 66 127 66 95 36 c 128,-1,11
 63 6 63 6 61 4 c 1,12,-1
 27 59 l 1,13,14
 37 69 37 69 51 86 c 1,15,-1
 77 123 l 2,16,17
 92 146 92 146 109 180 c 1,18,19
 138 243 138 243 165.5 367.5 c 128,-1,20
 193 492 193 492 193 694 c 0,21,22
 193 794 193 794 185.5 875 c 128,-1,23
 178 956 178 956 166 1018.5 c 128,-1,24
 154 1081 154 1081 139.5 1127.5 c 128,-1,25
 125 1174 125 1174 111 1204 c 0,26,27
 80 1272 80 1272 54.5 1296.5 c 128,-1,28
 29 1321 29 1321 27 1321 c 2,0,-1
EndSplineSet
EndChar

StartChar: asterisk
Encoding: 42 42 13
Width: 604
GlyphClass: 2
Flags: W
LayerCount: 2
Fore
SplineSet
20 1174 m 1,0,-1
 43 1235 l 1,1,-1
 242 1161 l 1,2,-1
 242 1372 l 1,3,-1
 305 1372 l 1,4,-1
 305 1161 l 1,5,-1
 504 1235 l 1,6,-1
 526 1174 l 1,7,-1
 328 1100 l 1,8,-1
 477 932 l 1,9,-1
 428 889 l 1,10,-1
 272 1065 l 1,11,-1
 119 889 l 1,12,-1
 70 932 l 1,13,-1
 217 1100 l 1,14,-1
 20 1174 l 1,0,-1
EndSplineSet
EndChar

StartChar: plus
Encoding: 43 43 14
Width: 786
GlyphClass: 2
Flags: W
LayerCount: 2
Fore
SplineSet
25 651 m 1,0,-1
 25 717 l 1,1,-1
 324 717 l 1,2,-1
 324 1016 l 1,3,-1
 389 1016 l 1,4,-1
 389 717 l 1,5,-1
 688 717 l 1,6,-1
 688 651 l 1,7,-1
 389 651 l 1,8,-1
 389 352 l 1,9,-1
 324 352 l 1,10,-1
 324 651 l 1,11,-1
 25 651 l 1,0,-1
EndSplineSet
EndChar

StartChar: comma
Encoding: 44 44 15
Width: 174
GlyphClass: 2
Flags: W
LayerCount: 2
Fore
SplineSet
27 -82 m 1,0,-1
 27 88 l 1,1,-1
 90 88 l 1,2,-1
 90 -82 l 1,3,-1
 27 -82 l 1,0,-1
EndSplineSet
EndChar

StartChar: hyphen
Encoding: 45 45 16
Width: 612
GlyphClass: 2
Flags: W
LayerCount: 2
Fore
SplineSet
27 657 m 1,0,-1
 27 721 l 1,1,-1
 526 721 l 1,2,-1
 526 657 l 1,3,-1
 27 657 l 1,0,-1
EndSplineSet
EndChar

StartChar: period
Encoding: 46 46 17
Width: 165
GlyphClass: 2
Flags: W
LayerCount: 2
Fore
SplineSet
25 0 m 1,0,-1
 25 88 l 1,1,-1
 90 88 l 1,2,-1
 90 0 l 1,3,-1
 25 0 l 1,0,-1
EndSplineSet
EndChar

StartChar: slash
Encoding: 47 47 18
Width: 786
GlyphClass: 2
Flags: W
LayerCount: 2
Fore
SplineSet
43 0 m 1,0,-1
 596 1380 l 1,1,-1
 666 1380 l 1,2,-1
 113 0 l 1,3,-1
 43 0 l 1,0,-1
EndSplineSet
EndChar

StartChar: zero
Encoding: 48 48 19
Width: 655
GlyphClass: 2
Flags: W
LayerCount: 2
Fore
SplineSet
18 371 m 2,0,-1
 18 1012 l 2,1,2
 18 1188 18 1188 80 1280 c 1,3,4
 143 1380 143 1380 274 1380 c 0,5,6
 403 1380 403 1380 467 1280 c 1,7,8
 530 1184 530 1184 530 1012 c 2,9,-1
 530 371 l 2,10,11
 530 199 530 199 469 102 c 1,12,13
 401 0 401 0 274 0 c 0,14,15
 145 0 145 0 80 102 c 1,16,17
 18 195 18 195 18 371 c 2,0,-1
82 371 m 2,18,19
 82 64 82 64 274 63 c 0,20,21
 464 63 464 63 465 371 c 1,22,-1
 465 1012 l 2,23,24
 465 1317 465 1317 274 1317 c 0,25,26
 81 1317 81 1317 82 1012 c 1,27,-1
 82 371 l 2,18,19
EndSplineSet
EndChar

StartChar: one
Encoding: 49 49 20
Width: 397
GlyphClass: 2
Flags: W
LayerCount: 2
Fore
SplineSet
16 1108 m 1,0,-1
 225 1380 l 1,1,-1
 289 1380 l 1,2,-1
 289 0 l 1,3,-1
 223 0 l 1,4,-1
 223 1270 l 1,5,-1
 66 1067 l 1,6,-1
 16 1108 l 1,0,-1
EndSplineSet
EndChar

StartChar: two
Encoding: 50 50 21
Width: 655
GlyphClass: 2
Flags: W
LayerCount: 2
Fore
SplineSet
25 1010 m 1,0,-1
 25 1042 l 2,1,2
 25 1204 25 1204 88.5 1292 c 128,-1,3
 152 1380 152 1380 281 1380 c 0,4,5
 404 1380 404 1380 475 1282 c 1,6,7
 536 1192 536 1192 537 1051 c 1,8,9
 537 772 537 772 303 563 c 1,10,11
 194 467 194 467 144 348 c 128,-1,12
 94 229 94 229 90 63 c 1,13,-1
 281 63 l 1,14,-1
 504 63 l 1,15,-1
 537 63 l 1,16,-1
 537 0 l 1,17,-1
 504 0 l 1,18,-1
 281 0 l 1,19,-1
 25 0 l 1,20,-1
 25 33 l 2,21,22
 25 125 25 125 37 200.5 c 128,-1,23
 49 276 49 276 74 342 c 1,24,25
 127 492 127 492 260 612 c 1,26,27
 471 805 471 805 471 1051 c 0,28,29
 471 1174 471 1174 422 1245.5 c 128,-1,30
 373 1317 373 1317 281 1317 c 0,31,32
 185 1317 185 1317 139 1253 c 0,33,34
 90 1185 90 1185 90 1042 c 2,35,-1
 90 1010 l 1,36,-1
 25 1010 l 1,0,-1
EndSplineSet
EndChar

StartChar: three
Encoding: 51 51 22
Width: 620
GlyphClass: 2
Flags: W
LayerCount: 2
Fore
SplineSet
20 365 m 2,0,-1
 20 397 l 1,1,-1
 86 397 l 1,2,-1
 86 365 l 2,3,4
 86 207 86 207 137 135 c 1,5,6
 184 63 184 63 276 63 c 0,7,8
 364 63 364 63 416 143 c 1,9,10
 443 182 443 182 455 236.5 c 128,-1,11
 467 291 467 291 467 356 c 0,12,13
 467 448 467 448 438.5 503.5 c 128,-1,14
 410 559 410 559 379 588 c 0,15,16
 338 627 338 627 296 642 c 128,-1,17
 254 657 254 657 223 657 c 2,18,-1
 164 657 l 1,19,-1
 164 721 l 1,20,-1
 223 721 l 2,21,22
 260 721 260 721 303 739.5 c 128,-1,23
 346 758 346 758 382 794.5 c 128,-1,24
 418 831 418 831 442.5 887.5 c 128,-1,25
 467 944 467 944 467 1022 c 0,26,27
 467 1088 467 1088 454.5 1142 c 128,-1,28
 442 1196 442 1196 416 1237 c 0,29,30
 367 1317 367 1317 276 1317 c 0,31,32
 86 1317 86 1317 86 1014 c 2,33,-1
 86 981 l 1,34,-1
 20 981 l 1,35,-1
 20 1014 l 2,36,37
 20 1188 20 1188 82 1280 c 0,38,39
 150 1380 150 1380 276.5 1380 c 128,-1,40
 403 1380 403 1380 471 1270 c 1,41,42
 532 1178 532 1178 532 1022 c 0,43,44
 532 916 532 916 496.5 848 c 128,-1,45
 461 780 461 780 424 745 c 1,46,47
 387 708 387 708 346 688 c 1,48,49
 391 665 391 665 424 633 c 0,50,51
 461 598 461 598 496.5 531.5 c 128,-1,52
 532 465 532 465 532 356 c 0,53,54
 532 192 532 192 462.5 96 c 128,-1,55
 393 0 393 0 276 0 c 0,56,57
 149 0 149 0 82 98 c 1,58,59
 20 191 20 191 20 365 c 2,0,-1
EndSplineSet
EndChar

StartChar: four
Encoding: 52 52 23
Width: 663
GlyphClass: 2
Flags: W
LayerCount: 2
Fore
SplineSet
20 422 m 1,0,-1
 20 483 l 1,1,-1
 506 1380 l 1,2,-1
 567 1380 l 1,3,-1
 567 0 l 1,4,-1
 502 0 l 1,5,-1
 502 422 l 1,6,-1
 20 422 l 1,0,-1
96 485 m 1,7,-1
 502 485 l 1,8,-1
 502 1235 l 1,9,-1
 96 485 l 1,7,-1
EndSplineSet
EndChar

StartChar: five
Encoding: 53 53 24
Width: 634
GlyphClass: 2
Flags: W
LayerCount: 2
Fore
SplineSet
18 360 m 2,0,-1
 18 383 l 1,1,-1
 84 383 l 1,2,-1
 84 360 l 2,3,4
 84 204 84 204 135 133 c 1,5,6
 180 63 180 63 274 63 c 0,7,8
 364 63 364 63 414 147 c 1,9,10
 441 188 441 188 453 242.5 c 128,-1,11
 465 297 465 297 465 360 c 2,12,-1
 465 506 l 2,13,14
 465 658 465 658 416 729 c 0,15,16
 371 795 371 795 274 795 c 0,17,18
 184 795 184 795 135 717 c 0,19,20
 84 637 84 637 84 506 c 2,21,-1
 84 498 l 1,22,-1
 84 494 l 1,23,-1
 18 494 l 1,24,-1
 18 498 l 1,25,-1
 18 506 l 1,26,-1
 18 1380 l 1,27,-1
 84 1380 l 1,28,-1
 530 1380 l 1,29,-1
 530 1317 l 1,30,-1
 84 1317 l 1,31,-1
 84 756 l 1,32,33
 154 860 154 860 274 860 c 0,34,35
 399 860 399 860 469 766 c 1,36,37
 530 676 530 676 530 506 c 2,38,-1
 530 360 l 2,39,40
 530 288 530 288 514 224 c 128,-1,41
 498 160 498 160 469 113 c 0,42,43
 399 0 399 0 274 0 c 0,44,45
 147 0 147 0 82 96 c 0,46,47
 18 190 18 190 18 360 c 2,0,-1
EndSplineSet
EndChar

StartChar: six
Encoding: 54 54 25
Width: 638
GlyphClass: 2
Flags: W
LayerCount: 2
Fore
SplineSet
18 324 m 2,0,-1
 18 518 l 1,1,-1
 18 520 l 1,2,-1
 18 928 l 2,3,4
 18 1075 18 1075 45 1165 c 128,-1,5
 72 1255 72 1255 111 1302.5 c 128,-1,6
 150 1350 150 1350 195 1365 c 128,-1,7
 240 1380 240 1380 274 1380 c 0,8,9
 401 1380 401 1380 467 1290 c 1,10,11
 530 1208 530 1208 530 1065 c 2,12,-1
 530 1034 l 1,13,-1
 465 1034 l 1,14,-1
 465 1065 l 2,15,16
 465 1186 465 1186 416 1251.5 c 128,-1,17
 367 1317 367 1317 274 1317 c 0,18,19
 213 1317 213 1317 175 1277 c 128,-1,20
 137 1237 137 1237 116.5 1177.5 c 128,-1,21
 96 1118 96 1118 90 1050.5 c 128,-1,22
 84 983 84 983 84 928 c 2,23,-1
 84 774 l 1,24,25
 154 878 154 878 274 879 c 1,26,27
 405 879 405 879 469 784 c 0,28,29
 530 692 530 692 530 518 c 2,30,-1
 530 369 l 2,31,32
 530 295 530 295 514 229.5 c 128,-1,33
 498 164 498 164 469 115 c 0,34,35
 401 0 401 0 274 0 c 0,36,37
 153 0 153 0 85.5 85 c 128,-1,38
 18 170 18 170 18 324 c 2,0,-1
84 324 m 2,39,40
 84 287 84 287 90 242 c 128,-1,41
 96 197 96 197 116.5 157 c 128,-1,42
 137 117 137 117 175 90 c 128,-1,43
 213 63 213 63 274 63 c 0,44,45
 364 63 364 63 414 150 c 1,46,47
 441 191 441 191 453 247 c 128,-1,48
 465 303 465 303 465 369 c 2,49,-1
 465 518 l 2,50,51
 465 674 465 674 416 748 c 1,52,53
 369 816 369 816 274 815 c 0,54,55
 184 815 184 815 135 733 c 1,56,57
 84 653 84 653 84 520 c 2,58,-1
 84 324 l 2,39,40
EndSplineSet
EndChar

StartChar: seven
Encoding: 55 55 26
Width: 770
GlyphClass: 2
Flags: W
LayerCount: 2
Fore
SplineSet
12 1317 m 1,0,-1
 12 1380 l 1,1,-1
 694 1380 l 1,2,-1
 694 1319 l 1,3,-1
 143 0 l 1,4,-1
 74 0 l 1,5,-1
 625 1317 l 1,6,-1
 12 1317 l 1,0,-1
EndSplineSet
EndChar

StartChar: eight
Encoding: 56 56 27
Width: 679
GlyphClass: 2
Flags: W
LayerCount: 2
Fore
SplineSet
14 360.5 m 128,-1,1
 14 539 14 539 80 629 c 0,2,3
 110 670 110 670 150 690 c 1,4,5
 109 713 109 713 80 752 c 0,6,7
 14 842 14 842 14 1020 c 128,-1,8
 14 1198 14 1198 80 1288 c 0,9,10
 148 1380 148 1380 293 1380 c 0,11,12
 436 1380 436 1380 504 1288 c 1,13,14
 570 1202 570 1202 569.5 1020 c 128,-1,15
 569 838 569 838 504 752 c 0,16,17
 475 713 475 713 434 690 c 1,18,19
 475 670 475 670 504 629 c 1,20,21
 570 543 570 543 569.5 360.5 c 128,-1,22
 569 178 569 178 504 92 c 1,23,24
 436 0 436 0 293 0 c 0,25,26
 148 0 148 0 80 92 c 0,27,0
 14 182 14 182 14 360.5 c 128,-1,1
80 360.5 m 128,-1,29
 80 201 80 201 131 131 c 1,30,31
 182 63 182 63 292.5 63 c 128,-1,32
 403 63 403 63 453 131 c 0,33,34
 504 201 504 201 504 360.5 c 128,-1,35
 504 520 504 520 453 592 c 0,36,37
 404 660 404 660 293 659.5 c 128,-1,38
 182 659 182 659 131 592 c 1,39,28
 80 520 80 520 80 360.5 c 128,-1,29
80 1020 m 128,-1,41
 80 860 80 860 131 791 c 0,42,43
 182 723 182 723 292.5 723 c 128,-1,44
 403 723 403 723 453 791 c 0,45,46
 504 861 504 861 504 1020.5 c 128,-1,47
 504 1180 504 1180 453 1249 c 1,48,49
 404 1317 404 1317 293 1317 c 128,-1,50
 182 1317 182 1317 131 1249 c 0,51,40
 80 1180 80 1180 80 1020 c 128,-1,41
EndSplineSet
EndChar

StartChar: nine
Encoding: 57 57 28
Width: 630
GlyphClass: 2
Flags: W
LayerCount: 2
Fore
SplineSet
16 334 m 2,0,-1
 16 367 l 1,1,-1
 82 367 l 1,2,-1
 82 334 l 2,3,4
 82 201 82 201 131 131 c 1,5,6
 180 63 180 63 272 63 c 0,7,8
 331 63 331 63 368.5 99 c 128,-1,9
 406 135 406 135 427.5 191.5 c 128,-1,10
 449 248 449 248 456 316.5 c 128,-1,11
 463 385 463 385 463 451 c 2,12,-1
 463 606 l 1,13,14
 430 555 430 555 382 527.5 c 128,-1,15
 334 500 334 500 272 500 c 0,16,17
 145 500 145 500 80 596 c 1,18,19
 17 686 17 686 16 864 c 1,20,-1
 16 1016 l 2,21,22
 16 1182 16 1182 86 1281 c 128,-1,23
 156 1380 156 1380 272 1380 c 0,24,25
 399 1380 399 1380 465 1292 c 1,26,27
 528 1210 528 1210 528 1061 c 2,28,-1
 528 864 l 1,29,-1
 528 862 l 1,30,-1
 528 451 l 2,31,32
 528 240 528 240 469 125 c 1,33,34
 403 0 403 0 272 0 c 0,35,36
 145 0 145 0 80 94 c 1,37,38
 16 182 16 182 16 334 c 2,0,-1
82 864 m 2,39,40
 82 704 82 704 133 633 c 1,41,42
 178 565 178 565 272 565 c 0,43,44
 362 565 362 565 412 647 c 1,45,46
 437 686 437 686 450 741.5 c 128,-1,47
 463 797 463 797 463 862 c 2,48,-1
 463 1061 l 2,49,50
 463 1188 463 1188 414 1253 c 0,51,52
 367 1316 367 1316 272 1317 c 0,53,54
 184 1317 184 1317 133 1235 c 1,55,56
 82 1151 82 1151 82 1016 c 2,57,-1
 82 864 l 2,39,40
EndSplineSet
EndChar

StartChar: colon
Encoding: 58 58 29
Width: 231
GlyphClass: 2
Flags: W
LayerCount: 2
Fore
SplineSet
29 334 m 1,0,-1
 29 489 l 1,1,-1
 92 489 l 1,2,-1
 92 334 l 1,3,-1
 29 334 l 1,0,-1
29 897 m 1,4,-1
 29 1053 l 1,5,-1
 92 1053 l 1,6,-1
 92 897 l 1,7,-1
 29 897 l 1,4,-1
EndSplineSet
EndChar

StartChar: semicolon
Encoding: 59 59 30
Width: 198
GlyphClass: 2
Flags: W
LayerCount: 2
Fore
SplineSet
27 260 m 1,0,-1
 27 489 l 1,1,-1
 92 489 l 1,2,-1
 92 260 l 1,3,-1
 27 260 l 1,0,-1
27 897 m 1,4,-1
 27 1053 l 1,5,-1
 92 1053 l 1,6,-1
 92 897 l 1,7,-1
 27 897 l 1,4,-1
EndSplineSet
EndChar

StartChar: equal
Encoding: 61 61 32
Width: 638
GlyphClass: 2
Flags: W
LayerCount: 2
Fore
SplineSet
27 412 m 1,0,-1
 27 475 l 1,1,-1
 526 475 l 1,2,-1
 526 412 l 1,3,-1
 27 412 l 1,0,-1
27 842 m 1,4,-1
 27 905 l 1,5,-1
 526 905 l 1,6,-1
 526 842 l 1,7,-1
 27 842 l 1,4,-1
EndSplineSet
EndChar

StartChar: question
Encoding: 63 63 34
Width: 620
GlyphClass: 2
Flags: W
LayerCount: 2
Fore
SplineSet
29 997 m 1,0,-1
 29 1028 l 2,1,2
 29 1194 29 1194 92 1286 c 0,3,4
 158 1382 158 1382 285 1382 c 0,5,6
 406 1382 406 1382 479 1278 c 1,7,8
 510 1231 510 1231 525.5 1170.5 c 128,-1,9
 541 1110 541 1110 541 1038 c 0,10,11
 541 964 541 964 523.5 910 c 128,-1,12
 506 856 506 856 481.5 816 c 128,-1,13
 457 776 457 776 429 749.5 c 128,-1,14
 401 723 401 723 379 705 c 2,15,-1
 360 690 l 2,16,17
 352 684 352 684 348 678 c 0,18,19
 307 631 307 631 284 518 c 0,20,21
 262 414 262 414 262 269 c 0,22,23
 262 256 262 256 262 244 c 2,24,-1
 262 238 l 1,25,-1
 262 205 l 1,26,-1
 199 205 l 1,27,-1
 199 238 l 1,28,-1
 199 244 l 2,29,30
 199 305 199 305 202 374.5 c 128,-1,31
 205 444 205 444 216 508.5 c 128,-1,32
 227 573 227 573 247.5 629.5 c 128,-1,33
 268 686 268 686 301 721 c 1,34,35
 313 737 313 737 338 754 c 1,36,-1
 383 795 l 2,37,38
 408 818 408 818 428.5 851.5 c 128,-1,39
 449 885 449 885 462 930 c 128,-1,40
 475 975 475 975 475 1038 c 0,41,42
 475 1099 475 1099 463 1151.5 c 128,-1,43
 451 1204 451 1204 426 1241 c 0,44,45
 373 1319 373 1319 285 1319 c 0,46,47
 191 1319 191 1319 145 1249 c 1,48,49
 94 1179 94 1179 94 1028 c 2,50,-1
 94 997 l 1,51,-1
 29 997 l 1,0,-1
197 2 m 1,52,-1
 197 90 l 1,53,-1
 262 90 l 1,54,-1
 262 2 l 1,55,-1
 197 2 l 1,52,-1
EndSplineSet
EndChar

StartChar: at
Encoding: 64 64 35
Width: 1325
GlyphClass: 2
Flags: W
LayerCount: 2
Fore
SplineSet
25 727 m 1,0,1
 43 844 43 844 91 941 c 128,-1,2
 139 1038 139 1038 213 1116 c 1,3,4
 281 1186 281 1186 365 1231 c 128,-1,5
 449 1276 449 1276 545 1296 c 0,6,7
 613 1310 613 1310 678 1310 c 0,8,9
 700 1310 700 1310 722 1309 c 0,10,11
 809 1303 809 1303 886 1274 c 128,-1,12
 963 1245 963 1245 1026.5 1195 c 128,-1,13
 1090 1145 1090 1145 1135 1075 c 0,14,15
 1168 1024 1168 1024 1186 959.5 c 128,-1,16
 1204 895 1204 895 1209 826 c 0,17,18
 1211 800 1211 800 1211 773 c 0,19,20
 1211 731 1211 731 1206 688 c 0,21,22
 1198 618 1198 618 1174 557 c 1,23,24
 1151 502 1151 502 1105 458 c 128,-1,25
 1059 414 1059 414 1002.5 384 c 128,-1,26
 946 354 946 354 888 344 c 0,27,28
 861 339 861 339 837 339 c 0,29,30
 808 339 808 339 784 346 c 1,31,32
 741 356 741 356 720 389 c 0,33,34
 702 417 702 417 702 454 c 0,35,36
 702 461 702 461 702 469 c 1,37,38
 671 446 671 446 632.5 441 c 128,-1,39
 594 436 594 436 547 436 c 0,40,41
 434 436 434 436 385 494 c 1,42,43
 342 542 342 542 342 628 c 0,44,45
 342 656 342 656 346 688 c 0,46,47
 360 813 360 813 420 879 c 1,48,49
 486 949 486 949 598 948 c 0,50,51
 627 948 627 948 674 942 c 128,-1,52
 721 936 721 936 756 911 c 0,53,54
 768 903 768 903 772 897 c 1,55,-1
 776 913 l 1,56,-1
 780 944 l 1,57,-1
 844 934 l 1,58,-1
 840 901 l 1,59,-1
 835 872 l 1,60,-1
 822 801 l 1,61,-1
 806 706 l 2,62,63
 797 654 797 654 790 605 c 2,64,-1
 776 519 l 2,65,66
 770 481 770 481 768 465 c 0,67,68
 767 458 767 458 767 451 c 0,69,70
 767 418 767 418 803 408 c 0,71,72
 819 404 819 404 836 403 c 1,73,74
 869 403 869 403 910.5 415.5 c 128,-1,75
 952 428 952 428 992 451.5 c 128,-1,76
 1032 475 1032 475 1065 508 c 128,-1,77
 1098 541 1098 541 1114 582 c 0,78,79
 1134 635 1134 635 1143 696 c 0,80,81
 1148 734 1148 734 1148 772 c 0,82,83
 1148 796 1148 796 1146 820 c 0,84,85
 1141 882 1141 882 1124.5 939.5 c 128,-1,86
 1108 997 1108 997 1081 1040 c 0,87,88
 1042 1101 1042 1101 985 1145.5 c 128,-1,89
 928 1190 928 1190 860.5 1214.5 c 128,-1,90
 793 1239 793 1239 716 1244 c 0,91,92
 698 1245 698 1245 679 1245 c 0,93,94
 620 1245 620 1245 559 1233 c 1,95,96
 485 1217 485 1217 410.5 1180 c 128,-1,97
 336 1143 336 1143 270.5 1079.5 c 128,-1,98
 205 1016 205 1016 155.5 926 c 128,-1,99
 106 836 106 836 88 717 c 0,100,101
 78 656 78 656 78 598 c 0,102,103
 78 486 78 486 116 393 c 0,104,105
 172 252 172 252 309 168 c 0,106,107
 395 115 395 115 500 92 c 0,108,109
 582 74 582 74 666 74 c 0,110,111
 689 74 689 74 713 76 c 0,112,113
 822 82 822 82 925 114.5 c 128,-1,114
 1028 147 1028 147 1112 209 c 1,115,-1
 1137 227 l 1,116,-1
 1176 176 l 1,117,-1
 1149 156 l 1,118,119
 1061 93 1061 93 950.5 54.5 c 128,-1,120
 840 16 840 16 717 10 c 1,121,-1
 672 10 l 2,122,123
 561 10 561 10 459.5 35.5 c 128,-1,124
 358 61 358 61 274 113 c 0,125,126
 120 209 120 209 55 366 c 0,127,128
 12 468 12 468 13 591 c 0,129,130
 13 656 13 656 25 727 c 1,0,1
410 680 m 0,131,132
 407 652 407 652 406 629 c 1,133,134
 406 564 406 564 432 537 c 0,135,136
 465 502 465 502 547 502 c 0,137,138
 598 502 598 502 626.5 507 c 128,-1,139
 655 512 655 512 676 530 c 1,140,141
 699 553 699 553 715 604 c 128,-1,142
 731 655 731 655 748 743 c 0,143,144
 753 770 753 770 752 790 c 1,145,146
 752 812 752 812 746 824 c 0,147,148
 735 848 735 848 719 858 c 1,149,150
 703 870 703 870 671 876.5 c 128,-1,151
 639 883 639 883 598 883 c 0,152,153
 512 883 512 883 467 836 c 1,154,155
 444 809 444 809 430 771 c 128,-1,156
 416 733 416 733 410 680 c 0,131,132
EndSplineSet
EndChar

StartChar: A
Encoding: 65 65 36
Width: 802
GlyphClass: 2
Flags: W
LayerCount: 2
Fore
SplineSet
20 0 m 1,0,-1
 129 479 l 1,1,-1
 129 485 l 1,2,-1
 338 1380 l 1,3,-1
 389 1380 l 1,4,-1
 705 0 l 1,5,-1
 639 0 l 1,6,-1
 545 422 l 1,7,-1
 180 422 l 1,8,-1
 86 0 l 1,9,-1
 20 0 l 1,0,-1
197 485 m 1,10,-1
 530 485 l 1,11,-1
 362 1206 l 1,12,-1
 197 485 l 1,10,-1
EndSplineSet
EndChar

StartChar: B
Encoding: 66 66 37
Width: 688
GlyphClass: 2
Flags: W
LayerCount: 2
Fore
SplineSet
35 0 m 1,0,-1
 35 63 l 1,1,-1
 35 1380 l 1,2,-1
 262 1380 l 2,3,4
 420 1380 420 1380 496 1290 c 1,5,6
 568 1200 568 1200 567 1020 c 0,7,8
 567 842 567 842 496 752 c 0,9,10
 480 732 480 732 461 717 c 128,-1,11
 442 702 442 702 420 690 c 1,12,13
 463 670 463 670 496 631 c 1,14,15
 568 541 568 541 567.5 360.5 c 128,-1,16
 567 180 567 180 496 90 c 1,17,18
 420 0 420 0 262 0 c 2,19,-1
 100 0 l 1,20,-1
 35 0 l 1,0,-1
100 63 m 1,21,-1
 262 63 l 2,22,23
 391 63 391 63 446.5 132 c 128,-1,24
 502 201 502 201 502 360.5 c 128,-1,25
 502 520 502 520 444 590 c 1,26,27
 389 660 389 660 262 659 c 1,28,-1
 100 659 l 1,29,-1
 100 63 l 1,21,-1
100 723 m 1,30,-1
 262 723 l 2,31,32
 389 723 389 723 444 793 c 1,33,34
 501 863 501 863 502 1020 c 1,35,36
 502 1180 502 1180 446.5 1248.5 c 128,-1,37
 391 1317 391 1317 262 1317 c 2,38,-1
 100 1317 l 1,39,-1
 100 723 l 1,30,-1
EndSplineSet
EndChar

StartChar: C
Encoding: 67 67 38
Width: 704
GlyphClass: 2
Flags: W
LayerCount: 2
Fore
SplineSet
16 367 m 2,0,-1
 16 1016 l 2,1,2
 16 1129 16 1129 43 1200.5 c 128,-1,3
 70 1272 70 1272 113 1312 c 128,-1,4
 156 1352 156 1352 208 1366 c 128,-1,5
 260 1380 260 1380 311 1380 c 0,6,7
 360 1380 360 1380 412.5 1366 c 128,-1,8
 465 1352 465 1352 508 1312 c 128,-1,9
 551 1272 551 1272 577.5 1200 c 128,-1,10
 604 1128 604 1128 604 1016 c 2,11,-1
 604 983 l 1,12,-1
 539 983 l 1,13,-1
 539 1016 l 2,14,15
 539 1174 539 1174 481 1245 c 0,16,17
 422 1317 422 1317 311 1317 c 0,18,19
 198 1317 198 1317 139 1245 c 1,20,21
 82 1173 82 1173 82 1016 c 2,22,-1
 82 367 l 2,23,24
 82 209 82 209 141 135 c 1,25,26
 196 63 196 63 311 63 c 0,27,28
 422 63 422 63 481 135 c 1,29,30
 538 211 538 211 539 367 c 1,31,-1
 539 399 l 1,32,-1
 604 399 l 1,33,-1
 604 367 l 2,34,35
 604 252 604 252 577.5 181.5 c 128,-1,36
 551 111 551 111 508 70 c 128,-1,37
 465 29 465 29 412.5 14.5 c 128,-1,38
 360 0 360 0 311 0 c 0,39,40
 260 0 260 0 208 14.5 c 128,-1,41
 156 29 156 29 113 70 c 128,-1,42
 70 111 70 111 43 181.5 c 128,-1,43
 16 252 16 252 16 367 c 2,0,-1
EndSplineSet
EndChar

StartChar: D
Encoding: 68 68 39
Width: 712
GlyphClass: 2
Flags: W
LayerCount: 2
Fore
SplineSet
25 0 m 1,0,-1
 25 1380 l 1,1,-1
 260 1380 l 2,2,3
 424 1380 424 1380 504 1282 c 1,4,5
 580 1192 580 1192 580 1008 c 2,6,-1
 580 373 l 2,7,8
 580 189 580 189 504 98 c 1,9,10
 424 0 424 0 260 0 c 2,11,-1
 25 0 l 1,0,-1
88 63 m 1,12,-1
 260 63 l 2,13,14
 393 63 393 63 453.5 138 c 128,-1,15
 514 213 514 213 514 373 c 2,16,-1
 514 1008 l 2,17,18
 514 1168 514 1168 453.5 1242.5 c 128,-1,19
 393 1317 393 1317 260 1317 c 2,20,-1
 88 1317 l 1,21,-1
 88 63 l 1,12,-1
EndSplineSet
EndChar

StartChar: E
Encoding: 69 69 40
Width: 620
GlyphClass: 2
Flags: W
LayerCount: 2
Fore
SplineSet
20 0 m 1,0,-1
 20 1380 l 1,1,-1
 516 1380 l 1,2,-1
 516 1317 l 1,3,-1
 84 1317 l 1,4,-1
 84 723 l 1,5,-1
 516 723 l 1,6,-1
 516 659 l 1,7,-1
 84 659 l 1,8,-1
 84 63 l 1,9,-1
 516 63 l 1,10,-1
 516 0 l 1,11,-1
 20 0 l 1,0,-1
EndSplineSet
EndChar

StartChar: F
Encoding: 70 70 41
Width: 630
GlyphClass: 2
Flags: W
LayerCount: 2
Fore
SplineSet
14 0 m 1,0,-1
 14 1380 l 1,1,-1
 510 1380 l 1,2,-1
 510 1317 l 1,3,-1
 78 1317 l 1,4,-1
 78 723 l 1,5,-1
 510 723 l 1,6,-1
 510 659 l 1,7,-1
 78 659 l 1,8,-1
 78 0 l 1,9,-1
 14 0 l 1,0,-1
EndSplineSet
EndChar

StartChar: G
Encoding: 71 71 42
Width: 720
GlyphClass: 2
Flags: W
LayerCount: 2
Fore
SplineSet
20 365 m 2,0,-1
 20 1018 l 2,1,2
 20 1196 20 1196 92 1286 c 0,3,4
 168 1380 168 1380 315.5 1380 c 128,-1,5
 463 1380 463 1380 537 1286 c 1,6,7
 611 1196 611 1196 610 1018 c 1,8,-1
 610 985 l 1,9,-1
 545 985 l 1,10,-1
 545 1018 l 2,11,12
 545 1118 545 1118 522.5 1177.5 c 128,-1,13
 500 1237 500 1237 466 1267.5 c 128,-1,14
 432 1298 432 1298 392 1307.5 c 128,-1,15
 352 1317 352 1317 315.5 1317 c 128,-1,16
 279 1317 279 1317 238 1307.5 c 128,-1,17
 197 1298 197 1298 163 1267.5 c 128,-1,18
 129 1237 129 1237 106.5 1177.5 c 128,-1,19
 84 1118 84 1118 84 1018 c 2,20,-1
 84 365 l 2,21,22
 84 211 84 211 143 135 c 0,23,24
 198 63 198 63 315 63 c 0,25,26
 430 63 430 63 485 135 c 0,27,28
 544 211 544 211 545 365 c 1,29,-1
 545 545 l 1,30,-1
 246 545 l 1,31,-1
 246 610 l 1,32,-1
 610 610 l 1,33,-1
 610 365 l 2,34,35
 610 187 610 187 537 94 c 0,36,37
 463 0 463 0 315.5 0 c 128,-1,38
 168 0 168 0 92 94 c 1,39,40
 20 189 20 189 20 365 c 2,0,-1
EndSplineSet
EndChar

StartChar: H
Encoding: 72 72 43
Width: 704
GlyphClass: 2
Flags: W
LayerCount: 2
Fore
SplineSet
20 0 m 1,0,-1
 20 1380 l 1,1,-1
 86 1380 l 1,2,-1
 86 721 l 1,3,-1
 504 721 l 1,4,-1
 504 1380 l 1,5,-1
 569 1380 l 1,6,-1
 569 0 l 1,7,-1
 504 0 l 1,8,-1
 504 657 l 1,9,-1
 86 657 l 1,10,-1
 86 0 l 1,11,-1
 20 0 l 1,0,-1
EndSplineSet
EndChar

StartChar: I
Encoding: 73 73 44
Width: 223
GlyphClass: 2
Flags: W
LayerCount: 2
Fore
SplineSet
47 0 m 1,0,-1
 47 1380 l 1,1,-1
 111 1380 l 1,2,-1
 111 0 l 1,3,-1
 47 0 l 1,0,-1
EndSplineSet
EndChar

StartChar: J
Encoding: 74 74 45
Width: 663
GlyphClass: 2
Flags: W
LayerCount: 2
Fore
SplineSet
0 338 m 2,0,-1
 0 369 l 1,1,-1
 63 369 l 1,2,-1
 63 338 l 2,3,4
 63 246 63 246 83.5 191.5 c 128,-1,5
 104 137 104 137 135 108.5 c 128,-1,6
 166 80 166 80 203 71.5 c 128,-1,7
 240 63 240 63 274 63 c 0,8,9
 376 63 376 63 430 127 c 1,10,11
 483 197 483 197 483 338 c 2,12,-1
 483 1380 l 1,13,-1
 547 1380 l 1,14,-1
 547 338 l 2,15,16
 547 170 547 170 479 88 c 1,17,18
 411 0 411 0 274 0 c 128,-1,19
 137 0 137 0 68 88 c 1,20,21
 0 170 0 170 0 338 c 2,0,-1
EndSplineSet
EndChar

StartChar: K
Encoding: 75 75 46
Width: 737
GlyphClass: 2
Flags: W
LayerCount: 2
Fore
SplineSet
16 0 m 1,0,-1
 16 1380 l 1,1,-1
 82 1380 l 1,2,-1
 82 596 l 1,3,-1
 606 1380 l 1,4,-1
 684 1380 l 1,5,-1
 260 748 l 1,6,-1
 684 0 l 1,7,-1
 610 0 l 1,8,-1
 221 686 l 1,9,-1
 82 479 l 1,10,-1
 82 0 l 1,11,-1
 16 0 l 1,0,-1
EndSplineSet
EndChar

StartChar: L
Encoding: 76 76 47
Width: 604
GlyphClass: 2
Flags: W
LayerCount: 2
Fore
SplineSet
8 0 m 1,0,-1
 8 1380 l 1,1,-1
 74 1380 l 1,2,-1
 74 63 l 1,3,-1
 537 63 l 1,4,-1
 537 0 l 1,5,-1
 8 0 l 1,0,-1
EndSplineSet
EndChar

StartChar: M
Encoding: 77 77 48
Width: 968
GlyphClass: 2
Flags: W
LayerCount: 2
Fore
SplineSet
14 0 m 1,0,-1
 14 1380 l 1,1,-1
 70 1380 l 1,2,-1
 424 150 l 1,3,-1
 776 1380 l 1,4,-1
 834 1380 l 1,5,-1
 834 0 l 1,6,-1
 768 0 l 1,7,-1
 768 1118 l 1,8,-1
 449 0 l 1,9,-1
 399 0 l 1,10,-1
 78 1118 l 1,11,-1
 78 0 l 1,12,-1
 14 0 l 1,0,-1
EndSplineSet
EndChar

StartChar: N
Encoding: 78 78 49
Width: 737
GlyphClass: 2
Flags: W
LayerCount: 2
Fore
SplineSet
18 0 m 1,0,-1
 18 1380 l 1,1,-1
 74 1380 l 1,2,-1
 549 199 l 1,3,-1
 549 1380 l 1,4,-1
 614 1380 l 1,5,-1
 614 0 l 1,6,-1
 561 0 l 1,7,-1
 84 1182 l 1,8,-1
 84 0 l 1,9,-1
 18 0 l 1,0,-1
EndSplineSet
EndChar

StartChar: O
Encoding: 79 79 50
Width: 729
GlyphClass: 2
Flags: W
LayerCount: 2
Fore
SplineSet
20 367 m 2,0,-1
 20 1016 l 2,1,2
 20 1192 20 1192 92 1286 c 1,3,4
 168 1380 168 1380 313 1380 c 0,5,6
 460 1380 460 1380 535 1286 c 0,7,8
 609 1194 609 1194 608 1016 c 1,9,-1
 608 367 l 2,10,11
 608 252 608 252 581.5 181.5 c 128,-1,12
 555 111 555 111 512 70 c 128,-1,13
 469 29 469 29 417 14.5 c 128,-1,14
 365 0 365 0 313 0 c 0,15,16
 264 0 264 0 212 14.5 c 128,-1,17
 160 29 160 29 117 70 c 128,-1,18
 74 111 74 111 47 181.5 c 128,-1,19
 20 252 20 252 20 367 c 2,0,-1
84 367 m 2,20,21
 84 211 84 211 143 135 c 0,22,23
 198 63 198 63 313 63 c 0,24,25
 426 63 426 63 485 135 c 1,26,27
 542 207 542 207 543 367 c 1,28,-1
 543 1016 l 2,29,30
 543 1174 543 1174 485.5 1245.5 c 128,-1,31
 428 1317 428 1317 313 1317 c 0,32,33
 196 1317 196 1317 143 1245 c 1,34,35
 84 1169 84 1169 84 1016 c 2,36,-1
 84 367 l 2,20,21
EndSplineSet
EndChar

StartChar: P
Encoding: 80 80 51
Width: 696
GlyphClass: 2
Flags: W
LayerCount: 2
Fore
SplineSet
23 0 m 1,0,-1
 23 1380 l 1,1,-1
 270 1380 l 2,2,3
 436 1380 436 1380 514 1290 c 128,-1,4
 592 1200 592 1200 592 1020 c 128,-1,5
 592 840 592 840 514 749.5 c 128,-1,6
 436 659 436 659 270 659 c 2,7,-1
 86 659 l 1,8,-1
 86 0 l 1,9,-1
 23 0 l 1,0,-1
86 723 m 1,10,-1
 270 723 l 2,11,12
 405 723 405 723 467 793 c 1,13,14
 526 865 526 865 526 1020 c 0,15,16
 526 1180 526 1180 467 1248.5 c 128,-1,17
 408 1317 408 1317 270 1317 c 2,18,-1
 86 1317 l 1,19,-1
 86 723 l 1,10,-1
EndSplineSet
EndChar

StartChar: Q
Encoding: 81 81 52
Width: 712
GlyphClass: 2
Flags: W
LayerCount: 2
Fore
SplineSet
12 373 m 2,0,-1
 12 1022 l 2,1,2
 12 1198 12 1198 86 1288 c 1,3,4
 160 1380 160 1380 307 1380 c 0,5,6
 452 1380 452 1380 526 1288 c 1,7,8
 600 1198 600 1198 600 1022 c 2,9,-1
 600 373 l 2,10,11
 600 197 600 197 528 100 c 1,12,-1
 524 96 l 1,13,-1
 657 -63 l 1,14,-1
 573 -63 l 1,15,-1
 479 51 l 1,16,17
 409 0 409 0 307 0 c 0,18,19
 160 0 160 0 86 100 c 1,20,21
 12 195 12 195 12 373 c 2,0,-1
78 373 m 2,22,23
 78 217 78 217 137 139 c 1,24,25
 192 63 192 63 307 63 c 0,26,27
 385 63 385 63 438 100 c 1,28,-1
 346 213 l 1,29,-1
 428 213 l 1,30,-1
 483 147 l 1,31,32
 534 223 534 223 535 373 c 1,33,-1
 535 1022 l 2,34,35
 535 1178 535 1178 477 1249 c 0,36,37
 422 1317 422 1317 307.5 1317 c 128,-1,38
 193 1317 193 1317 137 1249 c 1,39,40
 78 1173 78 1173 78 1022 c 2,41,-1
 78 373 l 2,22,23
EndSplineSet
EndChar

StartChar: R
Encoding: 82 82 53
Width: 712
GlyphClass: 2
Flags: W
LayerCount: 2
Fore
SplineSet
23 2 m 1,0,-1
 23 1382 l 1,1,-1
 270 1382 l 2,2,3
 436 1382 436 1382 513 1293 c 128,-1,4
 590 1204 590 1204 590 1016 c 0,5,6
 590 832 590 832 514 741 c 0,7,8
 481 702 481 702 432 678 c 1,9,10
 471 660 471 660 502 629 c 0,11,12
 594 541 594 541 594 385 c 2,13,-1
 594 2 l 1,14,-1
 528 2 l 1,15,-1
 528 385 l 2,16,17
 528 510 528 510 460.5 578.5 c 128,-1,18
 393 647 393 647 270 647 c 2,19,-1
 240 647 l 1,20,-1
 86 647 l 1,21,-1
 86 2 l 1,22,-1
 23 2 l 1,0,-1
86 713 m 1,23,-1
 240 713 l 1,24,-1
 270 713 l 2,25,26
 407 713 407 713 465 782 c 0,27,28
 526 856 526 856 526 1016 c 0,29,30
 526 1178 526 1178 467 1247.5 c 128,-1,31
 408 1317 408 1317 270 1317 c 2,32,-1
 86 1317 l 1,33,-1
 86 713 l 1,23,-1
EndSplineSet
EndChar

StartChar: S
Encoding: 83 83 54
Width: 712
GlyphClass: 2
Flags: W
LayerCount: 2
Fore
SplineSet
20 1016 m 0,0,1
 20 1172 20 1172 92 1272 c 1,2,3
 174 1383 174 1383 315 1382 c 1,4,5
 460 1382 460 1382 539 1286 c 1,6,7
 613 1194 613 1194 612 1016 c 1,8,-1
 612 983 l 1,9,-1
 547 983 l 1,10,-1
 547 1016 l 2,11,12
 547 1172 547 1172 487 1247 c 0,13,14
 432 1317 432 1317 315 1317 c 0,15,16
 204 1317 204 1317 145 1233 c 1,17,18
 84 1149 84 1149 84 1016 c 0,19,20
 84 942 84 942 108.5 891 c 128,-1,21
 133 840 133 840 169 805 c 128,-1,22
 205 770 205 770 244 749.5 c 128,-1,23
 283 729 283 729 313 717 c 1,24,-1
 346 702 l 1,25,26
 373 692 373 692 418 670.5 c 128,-1,27
 463 649 463 649 506 609 c 128,-1,28
 549 569 549 569 580.5 507.5 c 128,-1,29
 612 446 612 446 612 356 c 0,30,31
 612 202 612 202 539 106 c 0,32,33
 459 2 459 2 315 2 c 0,34,35
 168 2 168 2 94 96 c 1,36,37
 20 184 20 184 20 367 c 2,38,-1
 20 397 l 1,39,-1
 84 397 l 1,40,-1
 84 367 l 2,41,42
 84 265 84 265 106.5 205 c 128,-1,43
 129 145 129 145 163 114.5 c 128,-1,44
 197 84 197 84 238 75 c 128,-1,45
 279 66 279 66 315 66 c 0,46,47
 426 66 426 66 486.5 142.5 c 128,-1,48
 547 219 547 219 547 356 c 0,49,50
 547 430 547 430 521.5 480 c 128,-1,51
 496 530 496 530 460 563 c 128,-1,52
 424 596 424 596 385 614.5 c 128,-1,53
 346 633 346 633 322 643 c 2,54,-1
 287 657 l 2,55,56
 256 669 256 669 211 693 c 128,-1,57
 166 717 166 717 124 759 c 128,-1,58
 82 801 82 801 51 863.5 c 128,-1,59
 20 926 20 926 20 1016 c 0,0,1
EndSplineSet
EndChar

StartChar: T
Encoding: 84 84 55
Width: 821
GlyphClass: 2
Flags: W
LayerCount: 2
Fore
SplineSet
10 1317 m 1,0,-1
 10 1382 l 1,1,-1
 735 1382 l 1,2,-1
 735 1317 l 1,3,-1
 403 1317 l 1,4,-1
 403 2 l 1,5,-1
 340 2 l 1,6,-1
 340 1317 l 1,7,-1
 10 1317 l 1,0,-1
EndSplineSet
EndChar

StartChar: U
Encoding: 85 85 56
Width: 712
GlyphClass: 2
Flags: W
LayerCount: 2
Fore
SplineSet
14 340 m 2,0,-1
 14 1382 l 1,1,-1
 78 1382 l 1,2,-1
 78 340 l 2,3,4
 78 248 78 248 98.5 193.5 c 128,-1,5
 119 139 119 139 149.5 110.5 c 128,-1,6
 180 82 180 82 217 74 c 128,-1,7
 254 66 254 66 289 66 c 0,8,9
 322 66 322 66 358.5 74 c 128,-1,10
 395 82 395 82 426 110.5 c 128,-1,11
 457 139 457 139 477.5 193.5 c 128,-1,12
 498 248 498 248 498 340 c 2,13,-1
 498 1382 l 1,14,-1
 561 1382 l 1,15,-1
 561 340 l 2,16,17
 561 236 561 236 535.5 169 c 128,-1,18
 510 102 510 102 471 65.5 c 128,-1,19
 432 29 432 29 383 15.5 c 128,-1,20
 334 2 334 2 289 2 c 0,21,22
 242 2 242 2 193.5 15.5 c 128,-1,23
 145 29 145 29 105.5 65.5 c 128,-1,24
 66 102 66 102 40 169 c 128,-1,25
 14 236 14 236 14 340 c 2,0,-1
EndSplineSet
EndChar

StartChar: V
Encoding: 86 86 57
Width: 821
GlyphClass: 2
Flags: W
LayerCount: 2
Fore
SplineSet
0 1382 m 1,0,-1
 66 1382 l 1,1,-1
 371 166 l 1,2,-1
 674 1382 l 1,3,-1
 741 1382 l 1,4,-1
 395 2 l 1,5,-1
 346 2 l 1,6,-1
 0 1382 l 1,0,-1
EndSplineSet
EndChar

StartChar: W
Encoding: 87 87 58
Width: 1333
GlyphClass: 2
Flags: W
LayerCount: 2
Fore
SplineSet
0 1380 m 1,0,-1
 66 1380 l 1,1,-1
 332 182 l 1,2,-1
 596 1380 l 1,3,-1
 647 1380 l 1,4,-1
 911 182 l 1,5,-1
 1171 1380 l 1,6,-1
 1239 1380 l 1,7,-1
 938 0 l 1,8,-1
 885 0 l 1,9,-1
 621 1198 l 1,10,-1
 356 0 l 1,11,-1
 305 0 l 1,12,-1
 0 1380 l 1,0,-1
EndSplineSet
EndChar

StartChar: X
Encoding: 88 88 59
Width: 802
GlyphClass: 2
Flags: W
LayerCount: 2
Fore
SplineSet
-8 0 m 1,0,-1
 319 690 l 1,1,-1
 -8 1380 l 1,2,-1
 63 1380 l 1,3,-1
 356 766 l 1,4,-1
 643 1380 l 1,5,-1
 715 1380 l 1,6,-1
 391 690 l 1,7,-1
 719 0 l 1,8,-1
 647 0 l 1,9,-1
 356 614 l 1,10,-1
 63 0 l 1,11,-1
 -8 0 l 1,0,-1
EndSplineSet
EndChar

StartChar: Y
Encoding: 89 89 60
Width: 854
GlyphClass: 2
Flags: W
LayerCount: 2
Fore
SplineSet
-20 1380 m 1,0,-1
 53 1380 l 1,1,-1
 395 758 l 1,2,-1
 737 1380 l 1,3,-1
 811 1380 l 1,4,-1
 428 682 l 1,5,-1
 428 0 l 1,6,-1
 365 0 l 1,7,-1
 365 682 l 1,8,-1
 -20 1380 l 1,0,-1
EndSplineSet
EndChar

StartChar: Z
Encoding: 90 90 61
Width: 837
GlyphClass: 2
Flags: W
LayerCount: 2
Fore
SplineSet
0 1317 m 1,0,-1
 0 1380 l 1,1,-1
 672 1380 l 1,2,-1
 672 1321 l 1,3,-1
 82 63 l 1,4,-1
 682 63 l 1,5,-1
 682 0 l 1,6,-1
 10 0 l 1,7,-1
 10 63 l 1,8,-1
 598 1317 l 1,9,-1
 0 1317 l 1,0,-1
EndSplineSet
EndChar

StartChar: backslash
Encoding: 92 92 63
Width: 778
GlyphClass: 2
Flags: W
LayerCount: 2
Fore
SplineSet
45 1380 m 1,0,-1
 115 1380 l 1,1,-1
 668 0 l 1,2,-1
 598 0 l 1,3,-1
 45 1380 l 1,0,-1
EndSplineSet
EndChar

StartChar: asciicircum
Encoding: 94 94 65
Width: 620
GlyphClass: 2
Flags: W
LayerCount: 2
Fore
SplineSet
270.125 1516.96 m 5,0,-1
 80.0273 1400.27 l 5,1,-1
 20.3809 1400.12 l 21,2,-1
 241.38 1534.82 l 5,3,-1
 300.389 1534.73 l 5,4,-1
 516.878 1400.12 l 13,5,-1
 457.231 1400.27 l 5,6,-1
 270.125 1516.96 l 5,0,-1
EndSplineSet
EndChar

StartChar: underscore
Encoding: 95 95 66
Width: 944
GlyphClass: 2
Flags: W
LayerCount: 2
Fore
SplineSet
41 0 m 1,0,-1
 868 0 l 1,1,-1
 868 -63 l 1,2,-1
 41 -63 l 1,3,-1
 41 0 l 1,0,-1
EndSplineSet
EndChar

StartChar: grave
Encoding: 96 96 67
Width: 620
GlyphClass: 2
Flags: W
LayerCount: 2
Fore
SplineSet
516.044 1400.12 m 9,0,-1
 416.633 1400.27 l 1,1,-1
 20.2148 1534.82 l 1,2,-1
 118.562 1534.73 l 1,3,-1
 516.044 1400.12 l 9,0,-1
EndSplineSet
EndChar

StartChar: a
Encoding: 97 97 68
Width: 802
GlyphClass: 2
Flags: W
LayerCount: 2
Fore
SplineSet
20 0 m 1,0,-1
 129 479 l 1,1,-1
 129 485 l 1,2,-1
 338 1380 l 1,3,-1
 389 1380 l 1,4,-1
 705 0 l 1,5,-1
 639 0 l 1,6,-1
 545 422 l 1,7,-1
 180 422 l 1,8,-1
 86 0 l 1,9,-1
 20 0 l 1,0,-1
197 485 m 1,10,-1
 530 485 l 1,11,-1
 362 1206 l 1,12,-1
 197 485 l 1,10,-1
EndSplineSet
EndChar

StartChar: b
Encoding: 98 98 69
Width: 688
GlyphClass: 2
Flags: W
LayerCount: 2
Fore
SplineSet
35 0 m 1,0,-1
 35 63 l 1,1,-1
 35 1380 l 1,2,-1
 262 1380 l 2,3,4
 420 1380 420 1380 496 1290 c 1,5,6
 568 1200 568 1200 567 1020 c 0,7,8
 567 842 567 842 496 752 c 0,9,10
 480 732 480 732 461 717 c 128,-1,11
 442 702 442 702 420 690 c 1,12,13
 463 670 463 670 496 631 c 1,14,15
 568 541 568 541 567.5 360.5 c 128,-1,16
 567 180 567 180 496 90 c 1,17,18
 420 0 420 0 262 0 c 2,19,-1
 100 0 l 1,20,-1
 35 0 l 1,0,-1
100 63 m 1,21,-1
 262 63 l 2,22,23
 391 63 391 63 446.5 132 c 128,-1,24
 502 201 502 201 502 360.5 c 128,-1,25
 502 520 502 520 444 590 c 1,26,27
 389 660 389 660 262 659 c 1,28,-1
 100 659 l 1,29,-1
 100 63 l 1,21,-1
100 723 m 1,30,-1
 262 723 l 2,31,32
 389 723 389 723 444 793 c 1,33,34
 501 863 501 863 502 1020 c 1,35,36
 502 1180 502 1180 446.5 1248.5 c 128,-1,37
 391 1317 391 1317 262 1317 c 2,38,-1
 100 1317 l 1,39,-1
 100 723 l 1,30,-1
EndSplineSet
EndChar

StartChar: c
Encoding: 99 99 70
Width: 704
GlyphClass: 2
Flags: W
LayerCount: 2
Fore
SplineSet
16 367 m 2,0,-1
 16 1016 l 2,1,2
 16 1129 16 1129 43 1200.5 c 128,-1,3
 70 1272 70 1272 113 1312 c 128,-1,4
 156 1352 156 1352 208 1366 c 128,-1,5
 260 1380 260 1380 311 1380 c 0,6,7
 360 1380 360 1380 412.5 1366 c 128,-1,8
 465 1352 465 1352 508 1312 c 128,-1,9
 551 1272 551 1272 577.5 1200 c 128,-1,10
 604 1128 604 1128 604 1016 c 2,11,-1
 604 983 l 1,12,-1
 539 983 l 1,13,-1
 539 1016 l 2,14,15
 539 1174 539 1174 481 1245 c 0,16,17
 422 1317 422 1317 311 1317 c 0,18,19
 198 1317 198 1317 139 1245 c 1,20,21
 82 1173 82 1173 82 1016 c 2,22,-1
 82 367 l 2,23,24
 82 209 82 209 141 135 c 1,25,26
 196 63 196 63 311 63 c 0,27,28
 422 63 422 63 481 135 c 1,29,30
 538 211 538 211 539 367 c 1,31,-1
 539 399 l 1,32,-1
 604 399 l 1,33,-1
 604 367 l 2,34,35
 604 252 604 252 577.5 181.5 c 128,-1,36
 551 111 551 111 508 70 c 128,-1,37
 465 29 465 29 412.5 14.5 c 128,-1,38
 360 0 360 0 311 0 c 0,39,40
 260 0 260 0 208 14.5 c 128,-1,41
 156 29 156 29 113 70 c 128,-1,42
 70 111 70 111 43 181.5 c 128,-1,43
 16 252 16 252 16 367 c 2,0,-1
EndSplineSet
EndChar

StartChar: d
Encoding: 100 100 71
Width: 712
GlyphClass: 2
Flags: W
LayerCount: 2
Fore
SplineSet
25 0 m 1,0,-1
 25 1380 l 1,1,-1
 260 1380 l 2,2,3
 424 1380 424 1380 504 1282 c 1,4,5
 580 1192 580 1192 580 1008 c 2,6,-1
 580 373 l 2,7,8
 580 189 580 189 504 98 c 1,9,10
 424 0 424 0 260 0 c 2,11,-1
 25 0 l 1,0,-1
88 63 m 1,12,-1
 260 63 l 2,13,14
 393 63 393 63 453.5 138 c 128,-1,15
 514 213 514 213 514 373 c 2,16,-1
 514 1008 l 2,17,18
 514 1168 514 1168 453.5 1242.5 c 128,-1,19
 393 1317 393 1317 260 1317 c 2,20,-1
 88 1317 l 1,21,-1
 88 63 l 1,12,-1
EndSplineSet
EndChar

StartChar: e
Encoding: 101 101 72
Width: 620
GlyphClass: 2
Flags: W
LayerCount: 2
Fore
SplineSet
20 0 m 1,0,-1
 20 1380 l 1,1,-1
 516 1380 l 1,2,-1
 516 1317 l 1,3,-1
 84 1317 l 1,4,-1
 84 723 l 1,5,-1
 516 723 l 1,6,-1
 516 659 l 1,7,-1
 84 659 l 1,8,-1
 84 63 l 1,9,-1
 516 63 l 1,10,-1
 516 0 l 1,11,-1
 20 0 l 1,0,-1
EndSplineSet
EndChar

StartChar: f
Encoding: 102 102 73
Width: 630
GlyphClass: 2
Flags: W
LayerCount: 2
Fore
SplineSet
14 0 m 1,0,-1
 14 1380 l 1,1,-1
 510 1380 l 1,2,-1
 510 1317 l 1,3,-1
 78 1317 l 1,4,-1
 78 723 l 1,5,-1
 510 723 l 1,6,-1
 510 659 l 1,7,-1
 78 659 l 1,8,-1
 78 0 l 1,9,-1
 14 0 l 1,0,-1
EndSplineSet
EndChar

StartChar: g
Encoding: 103 103 74
Width: 720
GlyphClass: 2
Flags: W
LayerCount: 2
Fore
SplineSet
20 365 m 2,0,-1
 20 1018 l 2,1,2
 20 1196 20 1196 92 1286 c 0,3,4
 168 1380 168 1380 315.5 1380 c 128,-1,5
 463 1380 463 1380 537 1286 c 1,6,7
 611 1196 611 1196 610 1018 c 1,8,-1
 610 985 l 1,9,-1
 545 985 l 1,10,-1
 545 1018 l 2,11,12
 545 1118 545 1118 522.5 1177.5 c 128,-1,13
 500 1237 500 1237 466 1267.5 c 128,-1,14
 432 1298 432 1298 392 1307.5 c 128,-1,15
 352 1317 352 1317 315.5 1317 c 128,-1,16
 279 1317 279 1317 238 1307.5 c 128,-1,17
 197 1298 197 1298 163 1267.5 c 128,-1,18
 129 1237 129 1237 106.5 1177.5 c 128,-1,19
 84 1118 84 1118 84 1018 c 2,20,-1
 84 365 l 2,21,22
 84 211 84 211 143 135 c 0,23,24
 198 63 198 63 315 63 c 0,25,26
 430 63 430 63 485 135 c 0,27,28
 544 211 544 211 545 365 c 1,29,-1
 545 545 l 1,30,-1
 246 545 l 1,31,-1
 246 610 l 1,32,-1
 610 610 l 1,33,-1
 610 365 l 2,34,35
 610 187 610 187 537 94 c 0,36,37
 463 0 463 0 315.5 0 c 128,-1,38
 168 0 168 0 92 94 c 1,39,40
 20 189 20 189 20 365 c 2,0,-1
EndSplineSet
EndChar

StartChar: h
Encoding: 104 104 75
Width: 704
GlyphClass: 2
Flags: W
LayerCount: 2
Fore
SplineSet
20 0 m 1,0,-1
 20 1380 l 1,1,-1
 86 1380 l 1,2,-1
 86 721 l 1,3,-1
 504 721 l 1,4,-1
 504 1380 l 1,5,-1
 569 1380 l 1,6,-1
 569 0 l 1,7,-1
 504 0 l 1,8,-1
 504 657 l 1,9,-1
 86 657 l 1,10,-1
 86 0 l 1,11,-1
 20 0 l 1,0,-1
EndSplineSet
EndChar

StartChar: i
Encoding: 105 105 76
Width: 223
GlyphClass: 2
Flags: W
LayerCount: 2
Fore
SplineSet
47 0 m 1,0,-1
 47 1380 l 1,1,-1
 111 1380 l 1,2,-1
 111 0 l 1,3,-1
 47 0 l 1,0,-1
EndSplineSet
EndChar

StartChar: j
Encoding: 106 106 77
Width: 663
GlyphClass: 2
Flags: W
LayerCount: 2
Fore
SplineSet
0 338 m 2,0,-1
 0 369 l 1,1,-1
 63 369 l 1,2,-1
 63 338 l 2,3,4
 63 246 63 246 83.5 191.5 c 128,-1,5
 104 137 104 137 135 108.5 c 128,-1,6
 166 80 166 80 203 71.5 c 128,-1,7
 240 63 240 63 274 63 c 0,8,9
 376 63 376 63 430 127 c 1,10,11
 483 197 483 197 483 338 c 2,12,-1
 483 1380 l 1,13,-1
 547 1380 l 1,14,-1
 547 338 l 2,15,16
 547 170 547 170 479 88 c 1,17,18
 411 0 411 0 274 0 c 128,-1,19
 137 0 137 0 68 88 c 1,20,21
 0 170 0 170 0 338 c 2,0,-1
EndSplineSet
EndChar

StartChar: k
Encoding: 107 107 78
Width: 737
GlyphClass: 2
Flags: W
LayerCount: 2
Fore
SplineSet
16 0 m 1,0,-1
 16 1380 l 1,1,-1
 82 1380 l 1,2,-1
 82 596 l 1,3,-1
 606 1380 l 1,4,-1
 684 1380 l 1,5,-1
 260 748 l 1,6,-1
 684 0 l 1,7,-1
 610 0 l 1,8,-1
 221 686 l 1,9,-1
 82 479 l 1,10,-1
 82 0 l 1,11,-1
 16 0 l 1,0,-1
EndSplineSet
EndChar

StartChar: l
Encoding: 108 108 79
Width: 604
GlyphClass: 2
Flags: W
LayerCount: 2
Fore
SplineSet
8 0 m 1,0,-1
 8 1380 l 1,1,-1
 74 1380 l 1,2,-1
 74 63 l 1,3,-1
 537 63 l 1,4,-1
 537 0 l 1,5,-1
 8 0 l 1,0,-1
EndSplineSet
EndChar

StartChar: m
Encoding: 109 109 80
Width: 968
GlyphClass: 2
Flags: W
LayerCount: 2
Fore
SplineSet
14 0 m 1,0,-1
 14 1380 l 1,1,-1
 70 1380 l 1,2,-1
 424 150 l 1,3,-1
 776 1380 l 1,4,-1
 834 1380 l 1,5,-1
 834 0 l 1,6,-1
 768 0 l 1,7,-1
 768 1118 l 1,8,-1
 449 0 l 1,9,-1
 399 0 l 1,10,-1
 78 1118 l 1,11,-1
 78 0 l 1,12,-1
 14 0 l 1,0,-1
EndSplineSet
EndChar

StartChar: n
Encoding: 110 110 81
Width: 737
GlyphClass: 2
Flags: W
LayerCount: 2
Fore
SplineSet
18 0 m 1,0,-1
 18 1380 l 1,1,-1
 74 1380 l 1,2,-1
 549 199 l 1,3,-1
 549 1380 l 1,4,-1
 614 1380 l 1,5,-1
 614 0 l 1,6,-1
 561 0 l 1,7,-1
 84 1182 l 1,8,-1
 84 0 l 1,9,-1
 18 0 l 1,0,-1
EndSplineSet
EndChar

StartChar: o
Encoding: 111 111 82
Width: 729
GlyphClass: 2
Flags: W
LayerCount: 2
Fore
SplineSet
20 367 m 6,0,-1
 20 1016 l 6,1,2
 20 1192 20 1192 92 1286 c 5,3,4
 168 1380 168 1380 313 1380 c 4,5,6
 460 1380 460 1380 535 1286 c 4,7,8
 609 1194 609 1194 608 1016 c 5,9,-1
 608 367 l 6,10,11
 608 252 608 252 581.5 181.5 c 132,-1,12
 555 111 555 111 512 70 c 132,-1,13
 469 29 469 29 417 14.5 c 132,-1,14
 365 0 365 0 313 0 c 4,15,16
 264 0 264 0 212 14.5 c 132,-1,17
 160 29 160 29 117 70 c 132,-1,18
 74 111 74 111 47 181.5 c 132,-1,19
 20 252 20 252 20 367 c 6,0,-1
84 367 m 6,20,21
 84 211 84 211 143 135 c 4,22,23
 198 63 198 63 313 63 c 4,24,25
 426 63 426 63 485 135 c 5,26,27
 542 207 542 207 543 367 c 5,28,-1
 543 1016 l 6,29,30
 543 1174 543 1174 485.5 1245.5 c 132,-1,31
 428 1317 428 1317 313 1317 c 4,32,33
 196 1317 196 1317 143 1245 c 5,34,35
 84 1169 84 1169 84 1016 c 6,36,-1
 84 367 l 6,20,21
EndSplineSet
EndChar

StartChar: p
Encoding: 112 112 83
Width: 696
GlyphClass: 2
Flags: W
LayerCount: 2
Fore
SplineSet
23 0 m 1,0,-1
 23 1380 l 1,1,-1
 270 1380 l 2,2,3
 436 1380 436 1380 514 1290 c 128,-1,4
 592 1200 592 1200 592 1020 c 128,-1,5
 592 840 592 840 514 749.5 c 128,-1,6
 436 659 436 659 270 659 c 2,7,-1
 86 659 l 1,8,-1
 86 0 l 1,9,-1
 23 0 l 1,0,-1
86 723 m 1,10,-1
 270 723 l 2,11,12
 405 723 405 723 467 793 c 1,13,14
 526 865 526 865 526 1020 c 0,15,16
 526 1180 526 1180 467 1248.5 c 128,-1,17
 408 1317 408 1317 270 1317 c 2,18,-1
 86 1317 l 1,19,-1
 86 723 l 1,10,-1
EndSplineSet
EndChar

StartChar: q
Encoding: 113 113 84
Width: 712
GlyphClass: 2
Flags: W
LayerCount: 2
Fore
SplineSet
12 373 m 2,0,-1
 12 1022 l 2,1,2
 12 1198 12 1198 86 1288 c 1,3,4
 160 1380 160 1380 307 1380 c 0,5,6
 452 1380 452 1380 526 1288 c 1,7,8
 600 1198 600 1198 600 1022 c 2,9,-1
 600 373 l 2,10,11
 600 197 600 197 528 100 c 1,12,-1
 524 96 l 1,13,-1
 657 -63 l 1,14,-1
 573 -63 l 1,15,-1
 479 51 l 1,16,17
 409 0 409 0 307 0 c 0,18,19
 160 0 160 0 86 100 c 1,20,21
 12 195 12 195 12 373 c 2,0,-1
78 373 m 2,22,23
 78 217 78 217 137 139 c 1,24,25
 192 63 192 63 307 63 c 0,26,27
 385 63 385 63 438 100 c 1,28,-1
 346 213 l 1,29,-1
 428 213 l 1,30,-1
 483 147 l 1,31,32
 534 223 534 223 535 373 c 1,33,-1
 535 1022 l 2,34,35
 535 1178 535 1178 477 1249 c 0,36,37
 422 1317 422 1317 307.5 1317 c 128,-1,38
 193 1317 193 1317 137 1249 c 1,39,40
 78 1173 78 1173 78 1022 c 2,41,-1
 78 373 l 2,22,23
EndSplineSet
EndChar

StartChar: r
Encoding: 114 114 85
Width: 712
GlyphClass: 2
Flags: W
LayerCount: 2
Fore
SplineSet
23 2 m 1,0,-1
 23 1382 l 1,1,-1
 270 1382 l 2,2,3
 436 1382 436 1382 513 1293 c 128,-1,4
 590 1204 590 1204 590 1016 c 0,5,6
 590 832 590 832 514 741 c 0,7,8
 481 702 481 702 432 678 c 1,9,10
 471 660 471 660 502 629 c 0,11,12
 594 541 594 541 594 385 c 2,13,-1
 594 2 l 1,14,-1
 528 2 l 1,15,-1
 528 385 l 2,16,17
 528 510 528 510 460.5 578.5 c 128,-1,18
 393 647 393 647 270 647 c 2,19,-1
 240 647 l 1,20,-1
 86 647 l 1,21,-1
 86 2 l 1,22,-1
 23 2 l 1,0,-1
86 713 m 1,23,-1
 240 713 l 1,24,-1
 270 713 l 2,25,26
 407 713 407 713 465 782 c 0,27,28
 526 856 526 856 526 1016 c 0,29,30
 526 1178 526 1178 467 1247.5 c 128,-1,31
 408 1317 408 1317 270 1317 c 2,32,-1
 86 1317 l 1,33,-1
 86 713 l 1,23,-1
EndSplineSet
EndChar

StartChar: s
Encoding: 115 115 86
Width: 712
GlyphClass: 2
Flags: W
LayerCount: 2
Fore
SplineSet
20 1016 m 4,0,1
 20 1172 20 1172 92 1272 c 5,2,3
 174 1383 174 1383 315 1382 c 5,4,5
 460 1382 460 1382 539 1286 c 5,6,7
 613 1194 613 1194 612 1016 c 5,8,-1
 612 983 l 5,9,-1
 547 983 l 5,10,-1
 547 1016 l 6,11,12
 547 1172 547 1172 487 1247 c 4,13,14
 432 1317 432 1317 315 1317 c 4,15,16
 204 1317 204 1317 145 1233 c 5,17,18
 84 1149 84 1149 84 1016 c 4,19,20
 84 942 84 942 108.5 891 c 132,-1,21
 133 840 133 840 169 805 c 132,-1,22
 205 770 205 770 244 749.5 c 132,-1,23
 283 729 283 729 313 717 c 5,24,-1
 346 702 l 5,25,26
 373 692 373 692 418 670.5 c 132,-1,27
 463 649 463 649 506 609 c 132,-1,28
 549 569 549 569 580.5 507.5 c 132,-1,29
 612 446 612 446 612 356 c 4,30,31
 612 202 612 202 539 106 c 4,32,33
 459 2 459 2 315 2 c 4,34,35
 168 2 168 2 94 96 c 5,36,37
 20 184 20 184 20 367 c 6,38,-1
 20 397 l 5,39,-1
 84 397 l 5,40,-1
 84 367 l 6,41,42
 84 265 84 265 106.5 205 c 132,-1,43
 129 145 129 145 163 114.5 c 132,-1,44
 197 84 197 84 238 75 c 132,-1,45
 279 66 279 66 315 66 c 4,46,47
 426 66 426 66 486.5 142.5 c 132,-1,48
 547 219 547 219 547 356 c 4,49,50
 547 430 547 430 521.5 480 c 132,-1,51
 496 530 496 530 460 563 c 132,-1,52
 424 596 424 596 385 614.5 c 132,-1,53
 346 633 346 633 322 643 c 6,54,-1
 287 657 l 6,55,56
 256 669 256 669 211 693 c 132,-1,57
 166 717 166 717 124 759 c 132,-1,58
 82 801 82 801 51 863.5 c 132,-1,59
 20 926 20 926 20 1016 c 4,0,1
EndSplineSet
EndChar

StartChar: t
Encoding: 116 116 87
Width: 821
GlyphClass: 2
Flags: W
LayerCount: 2
Fore
SplineSet
10 1317 m 1,0,-1
 10 1382 l 1,1,-1
 735 1382 l 1,2,-1
 735 1317 l 1,3,-1
 403 1317 l 1,4,-1
 403 2 l 1,5,-1
 340 2 l 1,6,-1
 340 1317 l 1,7,-1
 10 1317 l 1,0,-1
EndSplineSet
EndChar

StartChar: u
Encoding: 117 117 88
Width: 712
GlyphClass: 2
Flags: W
LayerCount: 2
Fore
SplineSet
14 1382 m 1,0,-1
 78 1382 l 1,1,-1
 14 1382 l 1,0,-1
14 340 m 2,2,-1
 14 1382 l 1,3,-1
 78 1382 l 1,4,-1
 78 340 l 2,5,6
 78 248 78 248 98.5 193.5 c 128,-1,7
 119 139 119 139 149.5 110.5 c 128,-1,8
 180 82 180 82 217 74 c 128,-1,9
 254 66 254 66 289 66 c 0,10,11
 322 66 322 66 358.5 74 c 128,-1,12
 395 82 395 82 426 110.5 c 128,-1,13
 457 139 457 139 477.5 193.5 c 128,-1,14
 498 248 498 248 498 340 c 2,15,-1
 498 1382 l 1,16,-1
 561 1382 l 1,17,-1
 561 340 l 2,18,19
 561 236 561 236 535.5 169 c 128,-1,20
 510 102 510 102 471 65.5 c 128,-1,21
 432 29 432 29 383 15.5 c 128,-1,22
 334 2 334 2 289 2 c 0,23,24
 242 2 242 2 193.5 15.5 c 128,-1,25
 145 29 145 29 105.5 65.5 c 128,-1,26
 66 102 66 102 40 169 c 128,-1,27
 14 236 14 236 14 340 c 2,2,-1
EndSplineSet
EndChar

StartChar: v
Encoding: 118 118 89
Width: 821
GlyphClass: 2
Flags: W
LayerCount: 2
Fore
SplineSet
0 1382 m 1,0,-1
 66 1382 l 1,1,-1
 371 166 l 1,2,-1
 674 1382 l 1,3,-1
 741 1382 l 1,4,-1
 395 2 l 1,5,-1
 346 2 l 1,6,-1
 0 1382 l 1,0,-1
EndSplineSet
EndChar

StartChar: w
Encoding: 119 119 90
Width: 1333
GlyphClass: 2
Flags: W
LayerCount: 2
Fore
SplineSet
0 1380 m 1,0,-1
 66 1380 l 1,1,-1
 332 182 l 1,2,-1
 596 1380 l 1,3,-1
 647 1380 l 1,4,-1
 911 182 l 1,5,-1
 1171 1380 l 1,6,-1
 1239 1380 l 1,7,-1
 938 0 l 1,8,-1
 885 0 l 1,9,-1
 621 1198 l 1,10,-1
 356 0 l 1,11,-1
 305 0 l 1,12,-1
 0 1380 l 1,0,-1
EndSplineSet
EndChar

StartChar: x
Encoding: 120 120 91
Width: 802
GlyphClass: 2
Flags: W
LayerCount: 2
Fore
SplineSet
-8 0 m 1,0,-1
 319 690 l 1,1,-1
 -8 1380 l 1,2,-1
 63 1380 l 1,3,-1
 356 766 l 1,4,-1
 643 1380 l 1,5,-1
 715 1380 l 1,6,-1
 391 690 l 1,7,-1
 719 0 l 1,8,-1
 647 0 l 1,9,-1
 356 614 l 1,10,-1
 63 0 l 1,11,-1
 -8 0 l 1,0,-1
EndSplineSet
EndChar

StartChar: y
Encoding: 121 121 92
Width: 854
GlyphClass: 2
Flags: W
LayerCount: 2
Fore
SplineSet
-20 1380 m 1,0,-1
 53 1380 l 1,1,-1
 395 758 l 1,2,-1
 737 1380 l 1,3,-1
 811 1380 l 1,4,-1
 428 682 l 1,5,-1
 428 0 l 1,6,-1
 365 0 l 1,7,-1
 365 682 l 1,8,-1
 -20 1380 l 1,0,-1
EndSplineSet
EndChar

StartChar: z
Encoding: 122 122 93
Width: 837
GlyphClass: 2
Flags: W
LayerCount: 2
Fore
SplineSet
0 1317 m 1,0,-1
 0 1380 l 1,1,-1
 672 1380 l 1,2,-1
 672 1321 l 1,3,-1
 82 63 l 1,4,-1
 682 63 l 1,5,-1
 682 0 l 1,6,-1
 10 0 l 1,7,-1
 10 63 l 1,8,-1
 598 1317 l 1,9,-1
 0 1317 l 1,0,-1
EndSplineSet
EndChar

StartChar: bar
Encoding: 124 124 95
Width: 182
GlyphClass: 2
Flags: W
LayerCount: 2
Fore
SplineSet
27 0 m 1,0,-1
 27 1380 l 1,1,-1
 90 1380 l 1,2,-1
 90 0 l 1,3,-1
 27 0 l 1,0,-1
EndSplineSet
EndChar

StartChar: uni00AD
Encoding: 173 173 99
Width: 612
GlyphClass: 2
Flags: W
LayerCount: 2
Fore
SplineSet
27 657 m 1,0,-1
 27 721 l 1,1,-1
 526 721 l 1,2,-1
 526 657 l 1,3,-1
 27 657 l 1,0,-1
EndSplineSet
EndChar

StartChar: Adieresis
Encoding: 196 196 101
Width: 802
GlyphClass: 2
Flags: W
LayerCount: 2
Fore
SplineSet
89 1431 m 1,0,-1
 89 1536 l 1,1,-1
 153 1536 l 1,2,-1
 153 1431 l 1,3,-1
 89 1431 l 1,0,-1
573 1431 m 1,4,-1
 573 1536 l 1,5,-1
 636 1536 l 1,6,-1
 636 1431 l 1,7,-1
 573 1431 l 1,4,-1
20 0 m 1,8,-1
 129 479 l 1,9,-1
 129 485 l 1,10,-1
 338 1380 l 1,11,-1
 389 1380 l 1,12,-1
 705 0 l 1,13,-1
 639 0 l 1,14,-1
 545 422 l 1,15,-1
 180 422 l 1,16,-1
 86 0 l 1,17,-1
 20 0 l 1,8,-1
197 485 m 1,18,-1
 530 485 l 1,19,-1
 362 1206 l 1,20,-1
 197 485 l 1,18,-1
EndSplineSet
EndChar

StartChar: Odieresis
Encoding: 214 214 102
Width: 729
GlyphClass: 2
Flags: W
LayerCount: 2
Fore
SplineSet
20 1431 m 1,0,-1
 20 1536 l 1,1,-1
 84 1536 l 1,2,-1
 84 1431 l 1,3,-1
 20 1431 l 1,0,-1
504 1431 m 1,4,-1
 504 1536 l 1,5,-1
 567 1536 l 1,6,-1
 567 1431 l 1,7,-1
 504 1431 l 1,4,-1
20 367 m 2,8,-1
 20 1016 l 2,9,10
 20 1192 20 1192 92 1286 c 1,11,12
 168 1380 168 1380 313 1380 c 0,13,14
 460 1380 460 1380 535 1286 c 0,15,16
 609 1194 609 1194 608 1016 c 1,17,-1
 608 367 l 2,18,19
 608 252 608 252 581.5 181.5 c 128,-1,20
 555 111 555 111 512 70 c 128,-1,21
 469 29 469 29 417 14.5 c 128,-1,22
 365 0 365 0 313 0 c 0,23,24
 264 0 264 0 212 14.5 c 128,-1,25
 160 29 160 29 117 70 c 128,-1,26
 74 111 74 111 47 181.5 c 128,-1,27
 20 252 20 252 20 367 c 2,8,-1
84 367 m 2,28,29
 84 211 84 211 143 135 c 0,30,31
 198 63 198 63 313 63 c 0,32,33
 426 63 426 63 485 135 c 1,34,35
 542 207 542 207 543 367 c 1,36,-1
 543 1016 l 2,37,38
 543 1174 543 1174 485.5 1245.5 c 128,-1,39
 428 1317 428 1317 313 1317 c 0,40,41
 196 1317 196 1317 143 1245 c 1,42,43
 84 1169 84 1169 84 1016 c 2,44,-1
 84 367 l 2,28,29
EndSplineSet
EndChar

StartChar: Udieresis
Encoding: 220 220 103
Width: 712
GlyphClass: 2
Flags: W
LayerCount: 2
Fore
SplineSet
14 1431 m 1,0,-1
 14 1536 l 1,1,-1
 78 1536 l 1,2,-1
 78 1431 l 1,3,-1
 14 1431 l 1,0,-1
498 1431 m 1,4,-1
 498 1536 l 1,5,-1
 561 1536 l 1,6,-1
 561 1431 l 1,7,-1
 498 1431 l 1,4,-1
14 340 m 2,8,-1
 14 1387 l 1,9,-1
 78 1387 l 1,10,-1
 78 340 l 2,11,12
 78 248 78 248 98.5 193.5 c 128,-1,13
 119 139 119 139 149.5 110.5 c 128,-1,14
 180 82 180 82 217 74 c 128,-1,15
 254 66 254 66 289 66 c 0,16,17
 322 66 322 66 358.5 74 c 128,-1,18
 395 82 395 82 426 110.5 c 128,-1,19
 457 139 457 139 477.5 193.5 c 128,-1,20
 498 248 498 248 498 340 c 2,21,-1
 498 1382 l 1,22,-1
 561 1382 l 1,23,-1
 561 340 l 2,24,25
 561 236 561 236 535.5 169 c 128,-1,26
 510 102 510 102 471 65.5 c 128,-1,27
 432 29 432 29 383 15.5 c 128,-1,28
 334 2 334 2 289 2 c 0,29,30
 242 2 242 2 193.5 15.5 c 128,-1,31
 145 29 145 29 105.5 65.5 c 128,-1,32
 66 102 66 102 40 169 c 128,-1,33
 14 236 14 236 14 340 c 2,8,-1
EndSplineSet
EndChar

StartChar: germandbls
Encoding: 223 223 104
Width: 688
GlyphClass: 2
Flags: W
LayerCount: 2
Fore
SplineSet
155 57 m 1,0,-1
 155 33 l 1,1,-1
 155 0 l 1,2,3
 434 22 434 22 479 84 c 1,4,5
 585 158 585 158 576.5 349.5 c 128,-1,6
 568 541 568 541 496 631 c 1,7,8
 446 684 446 684 420 709 c 1,9,10
 442 721 442 721 461 736 c 128,-1,11
 480 751 480 751 496 771 c 0,12,13
 567 861 567 861 567 1039 c 0,14,15
 568 1219 568 1219 496 1309 c 1,16,17
 436 1380 436 1380 262 1380 c 2,18,-1
 35 1380 l 1,19,-1
 35 0 l 1,20,-1
 100 0 l 1,21,-1
 100 0 l 1,22,-1
 100 1317 l 1,23,-1
 262 1317 l 2,24,25
 406 1317 406 1317 446 1268 c 0,26,27
 502 1199 502 1199 502 1039 c 1,28,29
 501 882 501 882 444 812 c 1,30,31
 389 742 389 742 231 742 c 1,32,-1
 231 678 l 1,33,34
 374 679 374 679 444 590 c 1,35,36
 501 521 501 521 513 359 c 0,37,38
 526 186 526 186 437 124 c 0,39,40
 335 52 335 52 155 57 c 1,41,-1
 155 57 l 1,0,-1
EndSplineSet
EndChar

StartChar: adieresis
Encoding: 228 228 105
Width: 802
GlyphClass: 2
Flags: W
LayerCount: 2
Fore
SplineSet
89 1431 m 1,0,-1
 89 1536 l 1,1,-1
 153 1536 l 1,2,-1
 153 1431 l 1,3,-1
 89 1431 l 1,0,-1
573 1431 m 1,4,-1
 573 1536 l 1,5,-1
 636 1536 l 1,6,-1
 636 1431 l 1,7,-1
 573 1431 l 1,4,-1
20 0 m 1,8,-1
 129 479 l 1,9,-1
 129 485 l 1,10,-1
 338 1380 l 1,11,-1
 389 1380 l 1,12,-1
 705 0 l 1,13,-1
 639 0 l 1,14,-1
 545 422 l 1,15,-1
 180 422 l 1,16,-1
 86 0 l 1,17,-1
 20 0 l 1,8,-1
197 485 m 1,18,-1
 530 485 l 1,19,-1
 362 1206 l 1,20,-1
 197 485 l 1,18,-1
EndSplineSet
EndChar

StartChar: odieresis
Encoding: 246 246 106
Width: 729
GlyphClass: 2
Flags: W
LayerCount: 2
Fore
SplineSet
20 1431 m 1,0,-1
 20 1536 l 1,1,-1
 84 1536 l 1,2,-1
 84 1431 l 1,3,-1
 20 1431 l 1,0,-1
504 1431 m 1,4,-1
 504 1536 l 1,5,-1
 567 1536 l 1,6,-1
 567 1431 l 1,7,-1
 504 1431 l 1,4,-1
20 367 m 2,8,-1
 20 1016 l 2,9,10
 20 1192 20 1192 92 1286 c 1,11,12
 168 1380 168 1380 313 1380 c 0,13,14
 460 1380 460 1380 535 1286 c 0,15,16
 609 1194 609 1194 608 1016 c 1,17,-1
 608 367 l 2,18,19
 608 252 608 252 581.5 181.5 c 128,-1,20
 555 111 555 111 512 70 c 128,-1,21
 469 29 469 29 417 14.5 c 128,-1,22
 365 0 365 0 313 0 c 0,23,24
 264 0 264 0 212 14.5 c 128,-1,25
 160 29 160 29 117 70 c 128,-1,26
 74 111 74 111 47 181.5 c 128,-1,27
 20 252 20 252 20 367 c 2,8,-1
84 367 m 2,28,29
 84 211 84 211 143 135 c 0,30,31
 198 63 198 63 313 63 c 0,32,33
 426 63 426 63 485 135 c 1,34,35
 542 207 542 207 543 367 c 1,36,-1
 543 1016 l 2,37,38
 543 1174 543 1174 485.5 1245.5 c 128,-1,39
 428 1317 428 1317 313 1317 c 0,40,41
 196 1317 196 1317 143 1245 c 1,42,43
 84 1169 84 1169 84 1016 c 2,44,-1
 84 367 l 2,28,29
EndSplineSet
EndChar

StartChar: udieresis
Encoding: 252 252 107
Width: 712
GlyphClass: 2
Flags: W
LayerCount: 2
Fore
SplineSet
14 1431 m 1,0,-1
 14 1536 l 1,1,-1
 78 1536 l 1,2,-1
 78 1431 l 1,3,-1
 14 1431 l 1,0,-1
498 1431 m 1,4,-1
 498 1536 l 1,5,-1
 561 1536 l 1,6,-1
 561 1431 l 1,7,-1
 498 1431 l 1,4,-1
14 340 m 2,8,-1
 14 1387 l 1,9,-1
 78 1387 l 1,10,-1
 78 340 l 2,11,12
 78 248 78 248 98.5 193.5 c 128,-1,13
 119 139 119 139 149.5 110.5 c 128,-1,14
 180 82 180 82 217 74 c 128,-1,15
 254 66 254 66 289 66 c 0,16,17
 322 66 322 66 358.5 74 c 128,-1,18
 395 82 395 82 426 110.5 c 128,-1,19
 457 139 457 139 477.5 193.5 c 128,-1,20
 498 248 498 248 498 340 c 2,21,-1
 498 1382 l 1,22,-1
 561 1382 l 1,23,-1
 561 340 l 2,24,25
 561 236 561 236 535.5 169 c 128,-1,26
 510 102 510 102 471 65.5 c 128,-1,27
 432 29 432 29 383 15.5 c 128,-1,28
 334 2 334 2 289 2 c 0,29,30
 242 2 242 2 193.5 15.5 c 128,-1,31
 145 29 145 29 105.5 65.5 c 128,-1,32
 66 102 66 102 40 169 c 128,-1,33
 14 236 14 236 14 340 c 2,8,-1
EndSplineSet
EndChar

StartChar: uni2010
Encoding: 8208 8208 119
Width: 612
GlyphClass: 2
Flags: W
LayerCount: 2
Fore
SplineSet
27 657 m 1,0,-1
 27 721 l 1,1,-1
 526 721 l 1,2,-1
 526 657 l 1,3,-1
 27 657 l 1,0,-1
EndSplineSet
EndChar

StartChar: uni2011
Encoding: 8209 8209 120
Width: 612
GlyphClass: 2
Flags: W
LayerCount: 2
Fore
SplineSet
27 657 m 1,0,-1
 27 721 l 1,1,-1
 526 721 l 1,2,-1
 526 657 l 1,3,-1
 27 657 l 1,0,-1
EndSplineSet
EndChar

StartChar: figuredash
Encoding: 8210 8210 121
Width: 612
GlyphClass: 2
Flags: W
LayerCount: 2
Fore
SplineSet
27 657 m 1,0,-1
 27 721 l 1,1,-1
 526 721 l 1,2,-1
 526 657 l 1,3,-1
 27 657 l 1,0,-1
EndSplineSet
EndChar

StartChar: endash
Encoding: 8211 8211 122
Width: 612
GlyphClass: 2
Flags: W
LayerCount: 2
Fore
SplineSet
27 657 m 1,0,-1
 27 721 l 1,1,-1
 526 721 l 1,2,-1
 526 657 l 1,3,-1
 27 657 l 1,0,-1
EndSplineSet
EndChar

StartChar: emdash
Encoding: 8212 8212 123
Width: 612
GlyphClass: 2
Flags: W
LayerCount: 2
Fore
SplineSet
27 657 m 1,0,-1
 27 721 l 1,1,-1
 526 721 l 1,2,-1
 526 657 l 1,3,-1
 27 657 l 1,0,-1
EndSplineSet
EndChar

StartChar: quoteleft
Encoding: 8216 8216 124
Width: 165
GlyphClass: 2
Flags: W
LayerCount: 2
Fore
SplineSet
20 1200 m 1,0,-1
 20 1380 l 1,1,-1
 84 1380 l 1,2,-1
 84 1200 l 1,3,-1
 20 1200 l 1,0,-1
EndSplineSet
EndChar

StartChar: quoteright
Encoding: 8217 8217 125
Width: 165
GlyphClass: 2
Flags: W
LayerCount: 2
Fore
SplineSet
20 1200 m 1,0,-1
 20 1380 l 1,1,-1
 84 1380 l 1,2,-1
 84 1200 l 1,3,-1
 20 1200 l 1,0,-1
EndSplineSet
EndChar

StartChar: quotedblleft
Encoding: 8220 8220 126
Width: 307
GlyphClass: 2
Flags: W
LayerCount: 2
Fore
SplineSet
20 1200 m 1,0,-1
 20 1380 l 1,1,-1
 84 1380 l 1,2,-1
 84 1200 l 1,3,-1
 20 1200 l 1,0,-1
141 1200 m 1,4,-1
 141 1380 l 1,5,-1
 207 1380 l 1,6,-1
 207 1200 l 1,7,-1
 141 1200 l 1,4,-1
EndSplineSet
EndChar

StartChar: quotedblright
Encoding: 8221 8221 127
Width: 307
GlyphClass: 2
Flags: W
LayerCount: 2
Fore
SplineSet
20 1200 m 1,0,-1
 20 1380 l 1,1,-1
 84 1380 l 1,2,-1
 84 1200 l 1,3,-1
 20 1200 l 1,0,-1
141 1200 m 1,4,-1
 141 1380 l 1,5,-1
 207 1380 l 1,6,-1
 207 1200 l 1,7,-1
 141 1200 l 1,4,-1
EndSplineSet
EndChar

StartChar: ellipsis
Encoding: 8230 8230 129
Width: 497
GlyphClass: 2
Flags: W
LayerCount: 2
Fore
SplineSet
25 0 m 1,0,-1
 25 88 l 1,1,-1
 90 88 l 1,2,-1
 90 0 l 1,3,-1
 25 0 l 1,0,-1
190 0 m 1,4,-1
 190 88 l 1,5,-1
 256 88 l 1,6,-1
 256 0 l 1,7,-1
 190 0 l 1,4,-1
356 0 m 1,8,-1
 356 88 l 1,9,-1
 422 88 l 1,10,-1
 422 0 l 1,11,-1
 356 0 l 1,8,-1
EndSplineSet
EndChar

StartChar: uniE000
Encoding: 57344 57344 132
Width: 1380
GlyphClass: 2
Flags: W
LayerCount: 2
Fore
SplineSet
0 1380 m 1,0,-1
 1380 1380 l 1,1,-1
 1380 0 l 1,2,-1
 0 0 l 1,3,-1
 0 1380 l 1,0,-1
EndSplineSet
EndChar

StartChar: degree
Encoding: 176 176 133
Width: 190
Flags: W
LayerCount: 2
Fore
SplineSet
18 2 m 1,0,-1
 18 722 l 1,1,-1
 82 722 l 1,2,-1
 82 2 l 1,3,-1
 18 2 l 1,0,-1
18 835 m 1,4,-1
 18 1038 l 1,5,-1
 82 1038 l 1,6,-1
 82 835 l 1,7,-1
 18 835 l 1,4,-1
EndSplineSet
EndChar

StartChar: logicalnot
Encoding: 172 172 134
Width: 837
Flags: W
LayerCount: 2
Fore
SplineSet
10 1 m 1,0,-1
 10 0 l 1,1,-1
 10 0 l 1,2,-1
 10 1 l 1,3,-1
 10 1 l 1,0,-1
EndSplineSet
EndChar

StartChar: aring
Encoding: 229 229 135
Width: 802
InSpiro: 1
Flags: W
LayerCount: 2
Fore
SplineSet
364.809 1399.59 m 2,0,-1
 362.498 1399.59 l 2,1,2
 321.843 1399.59 321.843 1399.59 300.13 1416.22 c 1,3,4
 278.414 1433.77 278.414 1433.77 278.414 1467.27 c 0,5,6
 278.414 1501.23 278.414 1501.23 300.13 1518.55 c 0,7,8
 321.381 1535.64 321.381 1535.64 362.498 1535.41 c 1,9,-1
 364.809 1535.41 l 2,10,11
 391.373 1535.41 391.373 1535.41 407.658 1529.29 c 128,-1,12
 423.944 1523.17 423.944 1523.17 433.414 1513.24 c 128,-1,13
 442.887 1503.3 442.887 1503.3 446.236 1491.29 c 128,-1,14
 449.586 1479.28 449.586 1479.28 449.586 1467.27 c 0,15,16
 449.586 1455.95 449.586 1455.95 446.236 1443.94 c 128,-1,17
 442.887 1431.93 442.887 1431.93 433.414 1421.99 c 128,-1,18
 423.944 1412.06 423.944 1412.06 407.658 1405.82 c 128,-1,19
 391.373 1399.59 391.373 1399.59 364.809 1399.59 c 2,0,-1
  Spiro
    364.809 1399.59 [
    362.499 1399.59 ]
    326.578 1403.74 o
    300.129 1416.22 v
    283.843 1437.76 o
    278.415 1467.27 o
    283.843 1497.07 o
    300.129 1518.55 o
    326.347 1531.31 o
    362.499 1535.41 v
    364.809 1535.41 ]
    388.804 1533.88 o
    407.659 1529.29 o
    422.241 1522.21 o
    433.416 1513.24 o
    441.356 1502.79 o
    446.236 1491.29 o
    448.747 1479.28 o
    449.586 1467.27 o
    448.747 1455.77 o
    446.236 1443.94 o
    441.356 1432.44 o
    433.416 1421.99 o
    422.241 1412.98 o
    407.659 1405.82 o
    388.804 1401.15 o
    0 0 z
  EndSpiro
364.735 1419.2 m 2,20,21
 397.495 1419.2 397.495 1419.2 413.455 1431.59 c 0,22,23
 428.575 1443.14 428.575 1443.14 428.575 1467.29 c 0,24,25
 428.575 1491.02 428.575 1491.02 413.455 1503.41 c 1,26,27
 398.335 1515.38 398.335 1515.38 364.735 1515.59 c 1,28,-1
 362.635 1515.59 l 2,29,30
 329.455 1515.59 329.455 1515.59 314.439 1503.51 c 128,-1,31
 299.425 1491.44 299.425 1491.44 299.425 1467.29 c 0,32,33
 299.425 1442.72 299.425 1442.72 314.545 1431.59 c 1,34,35
 330.505 1419.2 330.505 1419.2 362.635 1419.2 c 2,36,-1
 364.735 1419.2 l 2,20,21
  Spiro
    364.735 1419.2 ]
    393.295 1422.3 o
    413.455 1431.59 o
    424.795 1446.29 o
    428.575 1467.29 o
    424.795 1488.19 o
    413.455 1503.41 v
    393.715 1512.44 o
    364.735 1515.59 v
    362.635 1515.59 ]
    333.996 1512.57 o
    314.44 1503.51 o
    303.179 1488.42 o
    299.425 1467.29 o
    303.205 1446.08 o
    314.545 1431.59 v
    334.547 1422.3 o
    362.635 1419.2 [
    0 0 z
  EndSpiro
20 0 m 1,37,-1
 129 479 l 1,38,-1
 129 485 l 1,39,-1
 338 1380 l 1,40,-1
 389 1380 l 1,41,-1
 705 0 l 1,42,-1
 639 0 l 1,43,-1
 545 422 l 1,44,-1
 180 422 l 1,45,-1
 86 0 l 1,46,-1
 20 0 l 1,37,-1
  Spiro
    20 0 v
    129 479 v
    129 485 v
    338 1380 v
    389 1380 v
    705 0 v
    639 0 v
    545 422 v
    180 422 v
    86 0 v
    0 0 z
  EndSpiro
197 485 m 1,47,-1
 530 485 l 1,48,-1
 362 1206 l 1,49,-1
 197 485 l 1,47,-1
  Spiro
    197 485 v
    530 485 v
    362 1206 v
    0 0 z
  EndSpiro
EndSplineSet
EndChar

StartChar: Aring
Encoding: 197 197 136
Width: 802
Flags: W
LayerCount: 2
Fore
SplineSet
364.809 1399.59 m 2,0,-1
 362.498 1399.59 l 2,1,2
 321.843 1399.59 321.843 1399.59 300.13 1416.22 c 1,3,4
 278.414 1433.77 278.414 1433.77 278.414 1467.27 c 0,5,6
 278.414 1501.23 278.414 1501.23 300.13 1518.55 c 0,7,8
 321.381 1535.64 321.381 1535.64 362.498 1535.41 c 1,9,-1
 364.809 1535.41 l 2,10,11
 391.373 1535.41 391.373 1535.41 407.658 1529.29 c 128,-1,12
 423.944 1523.17 423.944 1523.17 433.414 1513.24 c 128,-1,13
 442.887 1503.3 442.887 1503.3 446.236 1491.29 c 128,-1,14
 449.586 1479.28 449.586 1479.28 449.586 1467.27 c 0,15,16
 449.586 1455.95 449.586 1455.95 446.236 1443.94 c 128,-1,17
 442.887 1431.93 442.887 1431.93 433.414 1421.99 c 128,-1,18
 423.944 1412.06 423.944 1412.06 407.658 1405.82 c 128,-1,19
 391.373 1399.59 391.373 1399.59 364.809 1399.59 c 2,0,-1
  Spiro
    364.809 1399.59 [
    362.499 1399.59 ]
    326.578 1403.74 o
    300.129 1416.22 v
    283.843 1437.76 o
    278.415 1467.27 o
    283.843 1497.07 o
    300.129 1518.55 o
    326.347 1531.31 o
    362.499 1535.41 v
    364.809 1535.41 ]
    388.804 1533.88 o
    407.659 1529.29 o
    422.241 1522.21 o
    433.416 1513.24 o
    441.356 1502.79 o
    446.236 1491.29 o
    448.747 1479.28 o
    449.586 1467.27 o
    448.747 1455.77 o
    446.236 1443.94 o
    441.356 1432.44 o
    433.416 1421.99 o
    422.241 1412.98 o
    407.659 1405.82 o
    388.804 1401.15 o
    0 0 z
  EndSpiro
364.735 1419.2 m 2,20,21
 397.495 1419.2 397.495 1419.2 413.455 1431.59 c 0,22,23
 428.575 1443.14 428.575 1443.14 428.575 1467.29 c 0,24,25
 428.575 1491.02 428.575 1491.02 413.455 1503.41 c 1,26,27
 398.335 1515.38 398.335 1515.38 364.735 1515.59 c 1,28,-1
 362.635 1515.59 l 2,29,30
 329.455 1515.59 329.455 1515.59 314.439 1503.51 c 128,-1,31
 299.425 1491.44 299.425 1491.44 299.425 1467.29 c 0,32,33
 299.425 1442.72 299.425 1442.72 314.545 1431.59 c 1,34,35
 330.505 1419.2 330.505 1419.2 362.635 1419.2 c 2,36,-1
 364.735 1419.2 l 2,20,21
  Spiro
    364.735 1419.2 ]
    393.295 1422.3 o
    413.455 1431.59 o
    424.795 1446.29 o
    428.575 1467.29 o
    424.795 1488.19 o
    413.455 1503.41 v
    393.715 1512.44 o
    364.735 1515.59 v
    362.635 1515.59 ]
    333.996 1512.57 o
    314.44 1503.51 o
    303.179 1488.42 o
    299.425 1467.29 o
    303.205 1446.08 o
    314.545 1431.59 v
    334.547 1422.3 o
    362.635 1419.2 [
    0 0 z
  EndSpiro
20 0 m 1,37,-1
 129 479 l 1,38,-1
 129 485 l 1,39,-1
 338 1380 l 1,40,-1
 389 1380 l 1,41,-1
 705 0 l 1,42,-1
 639 0 l 1,43,-1
 545 422 l 1,44,-1
 180 422 l 1,45,-1
 86 0 l 1,46,-1
 20 0 l 1,37,-1
  Spiro
    20 0 v
    129 479 v
    129 485 v
    338 1380 v
    389 1380 v
    705 0 v
    639 0 v
    545 422 v
    180 422 v
    86 0 v
    0 0 z
  EndSpiro
197 485 m 1,47,-1
 530 485 l 1,48,-1
 362 1206 l 1,49,-1
 197 485 l 1,47,-1
  Spiro
    197 485 v
    530 485 v
    362 1206 v
    0 0 z
  EndSpiro
EndSplineSet
EndChar

StartChar: Egrave
Encoding: 200 200 137
Width: 620
Flags: W
LayerCount: 2
Fore
SplineSet
516.044 1400.12 m 13,0,-1
 416.633 1400.27 l 5,1,-1
 20.2148 1534.82 l 5,2,-1
 118.562 1534.73 l 5,3,-1
 516.044 1400.12 l 13,0,-1
20 0 m 1,4,-1
 20 1380 l 1,5,-1
 516 1380 l 1,6,-1
 516 1317 l 1,7,-1
 84 1317 l 1,8,-1
 84 723 l 1,9,-1
 516 723 l 1,10,-1
 516 659 l 1,11,-1
 84 659 l 1,12,-1
 84 63 l 1,13,-1
 516 63 l 1,14,-1
 516 0 l 1,15,-1
 20 0 l 1,4,-1
EndSplineSet
EndChar

StartChar: Eacute
Encoding: 201 201 138
Width: 620
Flags: W
LayerCount: 2
Fore
SplineSet
20.2148 1400.12 m 9,0,-1
 119.626 1400.27 l 1,1,-1
 516.044 1534.82 l 1,2,-1
 417.697 1534.73 l 1,3,-1
 20.2148 1400.12 l 9,0,-1
20 0 m 1,4,-1
 20 1380 l 1,5,-1
 516 1380 l 1,6,-1
 516 1317 l 1,7,-1
 84 1317 l 1,8,-1
 84 723 l 1,9,-1
 516 723 l 1,10,-1
 516 659 l 1,11,-1
 84 659 l 1,12,-1
 84 63 l 1,13,-1
 516 63 l 1,14,-1
 516 0 l 1,15,-1
 20 0 l 1,4,-1
EndSplineSet
EndChar

StartChar: Ecircumflex
Encoding: 202 202 139
Width: 620
Flags: W
LayerCount: 2
Fore
SplineSet
270.125 1516.96 m 1,0,-1
 80.0273 1400.27 l 1,1,-1
 20.3809 1400.12 l 17,2,-1
 241.38 1534.82 l 1,3,-1
 300.389 1534.73 l 1,4,-1
 516.878 1400.12 l 9,5,-1
 457.231 1400.27 l 1,6,-1
 270.125 1516.96 l 1,0,-1
20 0 m 1,7,-1
 20 1380 l 1,8,-1
 516 1380 l 1,9,-1
 516 1317 l 1,10,-1
 84 1317 l 1,11,-1
 84 723 l 1,12,-1
 516 723 l 1,13,-1
 516 659 l 1,14,-1
 84 659 l 1,15,-1
 84 63 l 1,16,-1
 516 63 l 1,17,-1
 516 0 l 1,18,-1
 20 0 l 1,7,-1
EndSplineSet
EndChar

StartChar: egrave
Encoding: 232 232 140
Width: 620
Flags: W
LayerCount: 2
Fore
SplineSet
516.044 1400.12 m 13,0,-1
 416.633 1400.27 l 5,1,-1
 20.2148 1534.82 l 5,2,-1
 118.562 1534.73 l 5,3,-1
 516.044 1400.12 l 13,0,-1
20 0 m 1,4,-1
 20 1380 l 1,5,-1
 516 1380 l 1,6,-1
 516 1317 l 1,7,-1
 84 1317 l 1,8,-1
 84 723 l 1,9,-1
 516 723 l 1,10,-1
 516 659 l 1,11,-1
 84 659 l 1,12,-1
 84 63 l 1,13,-1
 516 63 l 1,14,-1
 516 0 l 1,15,-1
 20 0 l 1,4,-1
EndSplineSet
EndChar

StartChar: eacute
Encoding: 233 233 141
Width: 620
Flags: W
LayerCount: 2
Fore
SplineSet
20.2148 1400.12 m 9,0,-1
 119.626 1400.27 l 1,1,-1
 516.044 1534.82 l 1,2,-1
 417.697 1534.73 l 1,3,-1
 20.2148 1400.12 l 9,0,-1
20 0 m 1,4,-1
 20 1380 l 1,5,-1
 516 1380 l 1,6,-1
 516 1317 l 1,7,-1
 84 1317 l 1,8,-1
 84 723 l 1,9,-1
 516 723 l 1,10,-1
 516 659 l 1,11,-1
 84 659 l 1,12,-1
 84 63 l 1,13,-1
 516 63 l 1,14,-1
 516 0 l 1,15,-1
 20 0 l 1,4,-1
EndSplineSet
EndChar

StartChar: ecircumflex
Encoding: 234 234 142
Width: 620
Flags: W
LayerCount: 2
Fore
SplineSet
270.125 1516.96 m 1,0,-1
 80.0273 1400.27 l 1,1,-1
 20.3809 1400.12 l 17,2,-1
 241.38 1534.82 l 1,3,-1
 300.389 1534.73 l 1,4,-1
 516.878 1400.12 l 9,5,-1
 457.231 1400.27 l 1,6,-1
 270.125 1516.96 l 1,0,-1
20 0 m 1,7,-1
 20 1380 l 1,8,-1
 516 1380 l 1,9,-1
 516 1317 l 1,10,-1
 84 1317 l 1,11,-1
 84 723 l 1,12,-1
 516 723 l 1,13,-1
 516 659 l 1,14,-1
 84 659 l 1,15,-1
 84 63 l 1,16,-1
 516 63 l 1,17,-1
 516 0 l 1,18,-1
 20 0 l 1,7,-1
EndSplineSet
EndChar

StartChar: Ccedilla
Encoding: 199 199 143
Width: 704
Flags: W
LayerCount: 2
Fore
SplineSet
253 5 m 1,0,1
 285.833 0 285.833 0 311 0 c 0,2,3
 360 0 360 0 412.5 14.5 c 128,-1,4
 465 29 465 29 508 70 c 128,-1,5
 551 111 551 111 577.5 181.5 c 128,-1,6
 604 252 604 252 604 367 c 2,7,-1
 604 399 l 1,8,-1
 539 399 l 1,9,-1
 539 367 l 1,10,11
 538 211 538 211 481 135 c 1,12,13
 422 63 422 63 311 63 c 0,14,15
 196 63 196 63 141 135 c 1,16,17
 82 209 82 209 82 367 c 2,18,-1
 82 1016 l 2,19,20
 82 1173 82 1173 139 1245 c 1,21,22
 198 1317 198 1317 311 1317 c 0,23,24
 422 1317 422 1317 481 1245 c 0,25,26
 539 1174 539 1174 539 1016 c 2,27,-1
 539 983 l 1,28,-1
 604 983 l 1,29,-1
 604 1016 l 2,30,31
 604 1128 604 1128 577.5 1200 c 128,-1,32
 551 1272 551 1272 508 1312 c 128,-1,33
 465 1352 465 1352 412.5 1366 c 128,-1,34
 360 1380 360 1380 311 1380 c 0,35,36
 260 1380 260 1380 208 1366 c 128,-1,37
 156 1352 156 1352 113 1312 c 128,-1,38
 70 1272 70 1272 43 1200.5 c 128,-1,39
 16 1129 16 1129 16 1016 c 2,40,-1
 16 367 l 2,41,42
 16 252 16 252 43 181.5 c 0,43,44
 71.1521 107.992 71.1521 107.992 113 70 c 0,45,46
 151.564 34.9893 151.564 34.9893 187.5 20.5 c 1,47,-1
 187.5 -329.1 l 1,48,-1
 187 -218.8 l 1,49,-1
 187 -220.4 l 1,50,-1
 253 -220.4 l 1,51,-1
 253 -218.8 l 1,52,-1
 253 -215.6 l 2,53,54
 253 -163.2 253 -163.2 304 -131.2 c 0,55,56
 353 -100 353 -100 443 -100 c 0,57,58
 540 -100 540 -100 585 -126.4 c 0,59,60
 634 -154.8 634 -154.8 634 -215.6 c 2,61,-1
 634 -336 l 2,62,63
 634 -361.2 634 -361.2 622 -383 c 128,-1,64
 610 -404.8 610 -404.8 583 -421.2 c 1,65,66
 533 -454.8 533 -454.8 443 -454.8 c 0,67,68
 349 -454.8 349 -454.8 304 -426.8 c 1,69,70
 253 -398.4 253 -398.4 253 -336 c 2,71,-1
 253 -326.8 l 1,72,-1
 187 -326.8 l 1,73,-1
 187 -336 l 2,74,75
 187 -404 187 -404 251 -441.6 c 0,76,77
 316 -480 316 -480 443 -480 c 0,78,79
 568 -480 568 -480 638 -434.8 c 0,80,81
 667 -416 667 -416 683 -390.4 c 128,-1,82
 699 -364.8 699 -364.8 699 -336 c 2,83,-1
 699 -215.6 l 2,84,85
 699 -147.6 699 -147.6 638 -111.6 c 1,86,87
 568 -74 568 -74 443 -74 c 0,88,89
 323 -74 323 -74 253 -115.6 c 1,90,-1
 253 5 l 1,0,1
EndSplineSet
EndChar

StartChar: ccedilla
Encoding: 231 231 144
Width: 704
Flags: W
LayerCount: 2
Fore
SplineSet
253 5 m 5,0,1
 285.833 0 285.833 0 311 0 c 4,2,3
 360 0 360 0 412.5 14.5 c 132,-1,4
 465 29 465 29 508 70 c 132,-1,5
 551 111 551 111 577.5 181.5 c 132,-1,6
 604 252 604 252 604 367 c 6,7,-1
 604 399 l 5,8,-1
 539 399 l 5,9,-1
 539 367 l 5,10,11
 538 211 538 211 481 135 c 5,12,13
 422 63 422 63 311 63 c 4,14,15
 196 63 196 63 141 135 c 5,16,17
 82 209 82 209 82 367 c 6,18,-1
 82 1016 l 6,19,20
 82 1173 82 1173 139 1245 c 5,21,22
 198 1317 198 1317 311 1317 c 4,23,24
 422 1317 422 1317 481 1245 c 4,25,26
 539 1174 539 1174 539 1016 c 6,27,-1
 539 983 l 5,28,-1
 604 983 l 5,29,-1
 604 1016 l 6,30,31
 604 1128 604 1128 577.5 1200 c 132,-1,32
 551 1272 551 1272 508 1312 c 132,-1,33
 465 1352 465 1352 412.5 1366 c 132,-1,34
 360 1380 360 1380 311 1380 c 4,35,36
 260 1380 260 1380 208 1366 c 132,-1,37
 156 1352 156 1352 113 1312 c 132,-1,38
 70 1272 70 1272 43 1200.5 c 132,-1,39
 16 1129 16 1129 16 1016 c 6,40,-1
 16 367 l 6,41,42
 16 252 16 252 43 181.5 c 4,43,44
 71.1521 107.992 71.1521 107.992 113 70 c 4,45,46
 151.564 34.9893 151.564 34.9893 187.5 20.5 c 5,47,-1
 187.5 -329.1 l 5,48,-1
 187 -218.8 l 5,49,-1
 187 -220.4 l 5,50,-1
 253 -220.4 l 5,51,-1
 253 -218.8 l 5,52,-1
 253 -215.6 l 6,53,54
 253 -163.2 253 -163.2 304 -131.2 c 4,55,56
 353 -100 353 -100 443 -100 c 4,57,58
 540 -100 540 -100 585 -126.4 c 4,59,60
 634 -154.8 634 -154.8 634 -215.6 c 6,61,-1
 634 -336 l 6,62,63
 634 -361.2 634 -361.2 622 -383 c 132,-1,64
 610 -404.8 610 -404.8 583 -421.2 c 5,65,66
 533 -454.8 533 -454.8 443 -454.8 c 4,67,68
 349 -454.8 349 -454.8 304 -426.8 c 5,69,70
 253 -398.4 253 -398.4 253 -336 c 6,71,-1
 253 -326.8 l 5,72,-1
 187 -326.8 l 5,73,-1
 187 -336 l 6,74,75
 187 -404 187 -404 251 -441.6 c 4,76,77
 316 -480 316 -480 443 -480 c 4,78,79
 568 -480 568 -480 638 -434.8 c 4,80,81
 667 -416 667 -416 683 -390.4 c 132,-1,82
 699 -364.8 699 -364.8 699 -336 c 6,83,-1
 699 -215.6 l 6,84,85
 699 -147.6 699 -147.6 638 -111.6 c 5,86,87
 568 -74 568 -74 443 -74 c 4,88,89
 323 -74 323 -74 253 -115.6 c 5,90,-1
 253 5 l 5,0,1
EndSplineSet
EndChar

StartChar: Aacute
Encoding: 193 193 145
Width: 802
Flags: W
LayerCount: 2
Fore
SplineSet
114.215 1400.12 m 9,0,-1
 213.626 1400.27 l 1,1,-1
 610.044 1534.82 l 1,2,-1
 511.697 1534.73 l 1,3,-1
 114.215 1400.12 l 9,0,-1
20 0 m 1,4,-1
 129 479 l 1,5,-1
 129 485 l 1,6,-1
 338 1380 l 1,7,-1
 389 1380 l 1,8,-1
 705 0 l 1,9,-1
 639 0 l 1,10,-1
 545 422 l 1,11,-1
 180 422 l 1,12,-1
 86 0 l 1,13,-1
 20 0 l 1,4,-1
197 485 m 1,14,-1
 530 485 l 1,15,-1
 362 1206 l 1,16,-1
 197 485 l 1,14,-1
EndSplineSet
EndChar

StartChar: acute
Encoding: 180 180 146
Width: 620
Flags: W
LayerCount: 2
Fore
SplineSet
20.2148 1400.12 m 9,0,-1
 119.626 1400.27 l 1,1,-1
 516.044 1534.82 l 1,2,-1
 417.697 1534.73 l 1,3,-1
 20.2148 1400.12 l 9,0,-1
EndSplineSet
EndChar

StartChar: aacute
Encoding: 225 225 147
Width: 802
Flags: W
LayerCount: 2
Fore
SplineSet
114.215 1400.12 m 9,0,-1
 213.626 1400.27 l 1,1,-1
 610.044 1534.82 l 1,2,-1
 511.697 1534.73 l 1,3,-1
 114.215 1400.12 l 9,0,-1
20 0 m 1,4,-1
 129 479 l 1,5,-1
 129 485 l 1,6,-1
 338 1380 l 1,7,-1
 389 1380 l 1,8,-1
 705 0 l 1,9,-1
 639 0 l 1,10,-1
 545 422 l 1,11,-1
 180 422 l 1,12,-1
 86 0 l 1,13,-1
 20 0 l 1,4,-1
197 485 m 1,14,-1
 530 485 l 1,15,-1
 362 1206 l 1,16,-1
 197 485 l 1,14,-1
EndSplineSet
EndChar

StartChar: Agrave
Encoding: 192 192 148
Width: 802
Flags: W
LayerCount: 2
Fore
SplineSet
611.044 1400.12 m 9,0,-1
 511.633 1400.27 l 1,1,-1
 115.215 1534.82 l 1,2,-1
 213.562 1534.73 l 1,3,-1
 611.044 1400.12 l 9,0,-1
20 0 m 1,4,-1
 129 479 l 1,5,-1
 129 485 l 1,6,-1
 338 1380 l 1,7,-1
 389 1380 l 1,8,-1
 705 0 l 1,9,-1
 639 0 l 1,10,-1
 545 422 l 1,11,-1
 180 422 l 1,12,-1
 86 0 l 1,13,-1
 20 0 l 1,4,-1
197 485 m 1,14,-1
 530 485 l 1,15,-1
 362 1206 l 1,16,-1
 197 485 l 1,14,-1
EndSplineSet
EndChar

StartChar: Acircumflex
Encoding: 194 194 149
Width: 802
Flags: W
LayerCount: 2
Fore
SplineSet
362.125 1516.96 m 1,0,-1
 172.027 1400.27 l 1,1,-1
 112.381 1400.12 l 17,2,-1
 333.38 1534.82 l 1,3,-1
 392.389 1534.73 l 1,4,-1
 608.878 1400.12 l 9,5,-1
 549.231 1400.27 l 1,6,-1
 362.125 1516.96 l 1,0,-1
20 0 m 1,7,-1
 129 479 l 1,8,-1
 129 485 l 1,9,-1
 338 1380 l 1,10,-1
 389 1380 l 1,11,-1
 705 0 l 1,12,-1
 639 0 l 1,13,-1
 545 422 l 1,14,-1
 180 422 l 1,15,-1
 86 0 l 1,16,-1
 20 0 l 1,7,-1
197 485 m 1,17,-1
 530 485 l 1,18,-1
 362 1206 l 1,19,-1
 197 485 l 1,17,-1
EndSplineSet
EndChar

StartChar: acircumflex
Encoding: 226 226 150
Width: 802
Flags: W
LayerCount: 2
Fore
SplineSet
362.125 1516.96 m 1,0,-1
 172.027 1400.27 l 1,1,-1
 112.381 1400.12 l 17,2,-1
 333.38 1534.82 l 1,3,-1
 392.389 1534.73 l 1,4,-1
 608.878 1400.12 l 9,5,-1
 549.231 1400.27 l 1,6,-1
 362.125 1516.96 l 1,0,-1
20 0 m 1,7,-1
 129 479 l 1,8,-1
 129 485 l 1,9,-1
 338 1380 l 1,10,-1
 389 1380 l 1,11,-1
 705 0 l 1,12,-1
 639 0 l 1,13,-1
 545 422 l 1,14,-1
 180 422 l 1,15,-1
 86 0 l 1,16,-1
 20 0 l 1,7,-1
197 485 m 1,17,-1
 530 485 l 1,18,-1
 362 1206 l 1,19,-1
 197 485 l 1,17,-1
EndSplineSet
EndChar

StartChar: agrave
Encoding: 224 224 151
Width: 802
Flags: W
LayerCount: 2
Fore
SplineSet
611.044 1400.12 m 9,0,-1
 511.633 1400.27 l 1,1,-1
 115.215 1534.82 l 1,2,-1
 213.562 1534.73 l 1,3,-1
 611.044 1400.12 l 9,0,-1
20 0 m 1,4,-1
 129 479 l 1,5,-1
 129 485 l 1,6,-1
 338 1380 l 1,7,-1
 389 1380 l 1,8,-1
 705 0 l 1,9,-1
 639 0 l 1,10,-1
 545 422 l 1,11,-1
 180 422 l 1,12,-1
 86 0 l 1,13,-1
 20 0 l 1,4,-1
197 485 m 1,14,-1
 530 485 l 1,15,-1
 362 1206 l 1,16,-1
 197 485 l 1,14,-1
EndSplineSet
EndChar

StartChar: ograve
Encoding: 242 242 152
Width: 729
Flags: W
LayerCount: 2
Fore
SplineSet
562.044 1400.12 m 9,0,-1
 462.633 1400.27 l 1,1,-1
 66.2148 1534.82 l 1,2,-1
 164.562 1534.73 l 1,3,-1
 562.044 1400.12 l 9,0,-1
20 367 m 2,4,-1
 20 1016 l 2,5,6
 20 1197.22 20 1197.22 88 1286 c 1,7,8
 164 1380 164 1380 313 1380 c 0,9,10
 460 1380 460 1380 535 1286 c 0,11,12
 609 1194 609 1194 608 1016 c 1,13,-1
 608 367 l 2,14,15
 608 252 608 252 581.5 181.5 c 128,-1,16
 555 111 555 111 512 70 c 128,-1,17
 469 29 469 29 417 14.5 c 128,-1,18
 365 0 365 0 313 0 c 0,19,20
 264 0 264 0 212 14.5 c 128,-1,21
 160 29 160 29 117 70 c 128,-1,22
 74 111 74 111 47 181.5 c 128,-1,23
 20 252 20 252 20 367 c 2,4,-1
84 367 m 2,24,25
 84 211 84 211 143 135 c 0,26,27
 198 63 198 63 313 63 c 0,28,29
 426 63 426 63 485 135 c 1,30,31
 542 207 542 207 543 367 c 1,32,-1
 543 1016 l 2,33,34
 543 1174 543 1174 485.5 1245.5 c 128,-1,35
 428 1317 428 1317 313 1317 c 0,36,37
 196 1317 196 1317 143 1245 c 1,38,39
 84 1169 84 1169 84 1016 c 2,40,-1
 84 367 l 2,24,25
EndSplineSet
EndChar

StartChar: Ograve
Encoding: 210 210 153
Width: 729
Flags: W
LayerCount: 2
Fore
SplineSet
562.044 1400.12 m 9,0,-1
 462.633 1400.27 l 1,1,-1
 66.2148 1534.82 l 1,2,-1
 164.562 1534.73 l 1,3,-1
 562.044 1400.12 l 9,0,-1
20 367 m 2,4,-1
 20 1016 l 2,5,6
 20 1197.22 20 1197.22 88 1286 c 1,7,8
 164 1380 164 1380 313 1380 c 0,9,10
 460 1380 460 1380 535 1286 c 0,11,12
 609 1194 609 1194 608 1016 c 1,13,-1
 608 367 l 2,14,15
 608 252 608 252 581.5 181.5 c 128,-1,16
 555 111 555 111 512 70 c 128,-1,17
 469 29 469 29 417 14.5 c 128,-1,18
 365 0 365 0 313 0 c 0,19,20
 264 0 264 0 212 14.5 c 128,-1,21
 160 29 160 29 117 70 c 128,-1,22
 74 111 74 111 47 181.5 c 128,-1,23
 20 252 20 252 20 367 c 2,4,-1
84 367 m 2,24,25
 84 211 84 211 143 135 c 0,26,27
 198 63 198 63 313 63 c 0,28,29
 426 63 426 63 485 135 c 1,30,31
 542 207 542 207 543 367 c 1,32,-1
 543 1016 l 2,33,34
 543 1174 543 1174 485.5 1245.5 c 128,-1,35
 428 1317 428 1317 313 1317 c 0,36,37
 196 1317 196 1317 143 1245 c 1,38,39
 84 1169 84 1169 84 1016 c 2,40,-1
 84 367 l 2,24,25
EndSplineSet
EndChar

StartChar: Oacute
Encoding: 211 211 154
Width: 729
Flags: W
LayerCount: 2
Fore
SplineSet
65.2148 1400.12 m 9,0,-1
 164.626 1400.27 l 1,1,-1
 561.044 1534.82 l 1,2,-1
 462.697 1534.73 l 1,3,-1
 65.2148 1400.12 l 9,0,-1
20 367 m 2,4,-1
 20 1016 l 2,5,6
 20 1197.22 20 1197.22 88 1286 c 1,7,8
 164 1380 164 1380 313 1380 c 0,9,10
 460 1380 460 1380 535 1286 c 0,11,12
 609 1194 609 1194 608 1016 c 1,13,-1
 608 367 l 2,14,15
 608 252 608 252 581.5 181.5 c 128,-1,16
 555 111 555 111 512 70 c 128,-1,17
 469 29 469 29 417 14.5 c 128,-1,18
 365 0 365 0 313 0 c 0,19,20
 264 0 264 0 212 14.5 c 128,-1,21
 160 29 160 29 117 70 c 128,-1,22
 74 111 74 111 47 181.5 c 128,-1,23
 20 252 20 252 20 367 c 2,4,-1
84 367 m 2,24,25
 84 211 84 211 143 135 c 0,26,27
 198 63 198 63 313 63 c 0,28,29
 426 63 426 63 485 135 c 1,30,31
 542 207 542 207 543 367 c 1,32,-1
 543 1016 l 2,33,34
 543 1174 543 1174 485.5 1245.5 c 128,-1,35
 428 1317 428 1317 313 1317 c 0,36,37
 196 1317 196 1317 143 1245 c 1,38,39
 84 1169 84 1169 84 1016 c 2,40,-1
 84 367 l 2,24,25
EndSplineSet
EndChar

StartChar: oacute
Encoding: 243 243 155
Width: 729
Flags: W
LayerCount: 2
Fore
SplineSet
65.2148 1400.12 m 9,0,-1
 164.626 1400.27 l 1,1,-1
 561.044 1534.82 l 1,2,-1
 462.697 1534.73 l 1,3,-1
 65.2148 1400.12 l 9,0,-1
20 367 m 2,4,-1
 20 1016 l 2,5,6
 20 1197.22 20 1197.22 88 1286 c 1,7,8
 164 1380 164 1380 313 1380 c 0,9,10
 460 1380 460 1380 535 1286 c 0,11,12
 609 1194 609 1194 608 1016 c 1,13,-1
 608 367 l 2,14,15
 608 252 608 252 581.5 181.5 c 128,-1,16
 555 111 555 111 512 70 c 128,-1,17
 469 29 469 29 417 14.5 c 128,-1,18
 365 0 365 0 313 0 c 0,19,20
 264 0 264 0 212 14.5 c 128,-1,21
 160 29 160 29 117 70 c 128,-1,22
 74 111 74 111 47 181.5 c 128,-1,23
 20 252 20 252 20 367 c 2,4,-1
84 367 m 2,24,25
 84 211 84 211 143 135 c 0,26,27
 198 63 198 63 313 63 c 0,28,29
 426 63 426 63 485 135 c 1,30,31
 542 207 542 207 543 367 c 1,32,-1
 543 1016 l 2,33,34
 543 1174 543 1174 485.5 1245.5 c 128,-1,35
 428 1317 428 1317 313 1317 c 0,36,37
 196 1317 196 1317 143 1245 c 1,38,39
 84 1169 84 1169 84 1016 c 2,40,-1
 84 367 l 2,24,25
EndSplineSet
EndChar

StartChar: Ocircumflex
Encoding: 212 212 156
Width: 729
Flags: W
LayerCount: 2
Fore
SplineSet
313.125 1516.96 m 1,0,-1
 123.027 1400.27 l 1,1,-1
 63.3809 1400.12 l 17,2,-1
 284.38 1534.82 l 1,3,-1
 343.389 1534.73 l 1,4,-1
 559.878 1400.12 l 9,5,-1
 500.231 1400.27 l 1,6,-1
 313.125 1516.96 l 1,0,-1
20 367 m 2,7,-1
 20 1016 l 2,8,9
 20 1192 20 1192 92 1286 c 1,10,11
 168 1380 168 1380 313 1380 c 0,12,13
 460 1380 460 1380 535 1286 c 0,14,15
 609 1194 609 1194 608 1016 c 1,16,-1
 608 367 l 2,17,18
 608 252 608 252 581.5 181.5 c 128,-1,19
 555 111 555 111 512 70 c 128,-1,20
 469 29 469 29 417 14.5 c 128,-1,21
 365 0 365 0 313 0 c 0,22,23
 264 0 264 0 212 14.5 c 128,-1,24
 160 29 160 29 117 70 c 128,-1,25
 74 111 74 111 47 181.5 c 128,-1,26
 20 252 20 252 20 367 c 2,7,-1
84 367 m 2,27,28
 84 211 84 211 143 135 c 0,29,30
 198 63 198 63 313 63 c 0,31,32
 426 63 426 63 485 135 c 1,33,34
 542 207 542 207 543 367 c 1,35,-1
 543 1016 l 2,36,37
 543 1174 543 1174 485.5 1245.5 c 128,-1,38
 428 1317 428 1317 313 1317 c 0,39,40
 196 1317 196 1317 143 1245 c 1,41,42
 84 1169 84 1169 84 1016 c 2,43,-1
 84 367 l 2,27,28
EndSplineSet
EndChar

StartChar: ocircumflex
Encoding: 244 244 157
Width: 729
Flags: W
LayerCount: 2
Fore
SplineSet
313.125 1516.96 m 1,0,-1
 123.027 1400.27 l 1,1,-1
 63.3809 1400.12 l 17,2,-1
 284.38 1534.82 l 1,3,-1
 343.389 1534.73 l 1,4,-1
 559.878 1400.12 l 9,5,-1
 500.231 1400.27 l 1,6,-1
 313.125 1516.96 l 1,0,-1
20 367 m 2,7,-1
 20 1016 l 2,8,9
 20 1192 20 1192 92 1286 c 1,10,11
 168 1380 168 1380 313 1380 c 0,12,13
 460 1380 460 1380 535 1286 c 0,14,15
 609 1194 609 1194 608 1016 c 1,16,-1
 608 367 l 2,17,18
 608 252 608 252 581.5 181.5 c 128,-1,19
 555 111 555 111 512 70 c 128,-1,20
 469 29 469 29 417 14.5 c 128,-1,21
 365 0 365 0 313 0 c 0,22,23
 264 0 264 0 212 14.5 c 128,-1,24
 160 29 160 29 117 70 c 128,-1,25
 74 111 74 111 47 181.5 c 128,-1,26
 20 252 20 252 20 367 c 2,7,-1
84 367 m 2,27,28
 84 211 84 211 143 135 c 0,29,30
 198 63 198 63 313 63 c 0,31,32
 426 63 426 63 485 135 c 1,33,34
 542 207 542 207 543 367 c 1,35,-1
 543 1016 l 2,36,37
 543 1174 543 1174 485.5 1245.5 c 128,-1,38
 428 1317 428 1317 313 1317 c 0,39,40
 196 1317 196 1317 143 1245 c 1,41,42
 84 1169 84 1169 84 1016 c 2,43,-1
 84 367 l 2,27,28
EndSplineSet
EndChar

StartChar: asciitilde
Encoding: 126 126 158
Width: 712
Flags: W
LayerCount: 2
Fore
SplineSet
8 736.2 m 17,0,1
 7.34766 792.6 7.34766 792.6 63 840.6 c 1,2,3
 113 869.4 113 869.4 191 869.4 c 0,4,5
 236 869.4 236 869.4 267.25 857 c 128,-1,6
 298.5 844.6 298.5 844.6 319.5 827.8 c 128,-1,7
 340.5 811 340.5 811 352.5 793 c 0,8,9
 363.7 776.2 363.7 776.2 370.5 762.6 c 2,10,-1
 377.5 748.6 l 2,11,12
 381.225 741.151 381.225 741.151 391.75 723.4 c 0,13,14
 401 707.8 401 707.8 417.5 693.4 c 128,-1,15
 434 679 434 679 459 668.8 c 128,-1,16
 484 658.6 484 658.6 521 658.6 c 0,17,18
 589.5 658.6 589.5 658.6 627.746 682.7 c 128,-1,19
 665.993 706.8 665.993 706.8 666 751.399 c 9,20,-1
 697.999 751.4 l 17,21,22
 697.743 693.6 697.743 693.6 646 661.8 c 0,23,24
 598 632.6 598 632.6 521 632.6 c 0,25,26
 476 632.6 476 632.6 445.25 645.2 c 128,-1,27
 414.5 657.8 414.5 657.8 394.5 675 c 128,-1,28
 374.5 692.2 374.5 692.2 363.75 710.2 c 128,-1,29
 353 728.2 353 728.2 348 739 c 1,30,-1
 340.5 752.2 l 1,31,32
 334.5 764.2 334.5 764.2 324.25 779.8 c 128,-1,33
 314 795.4 314 795.4 296.5 809.8 c 128,-1,34
 279 824.2 279 824.2 253.5 834 c 128,-1,35
 228 843.8 228 843.8 191 843.8 c 0,36,37
 124.5 843.8 124.5 843.8 82.5 819.4 c 1,38,39
 40.5 795.8 40.5 795.8 40.5 736.2 c 9,40,-1
 8 736.2 l 17,0,1
EndSplineSet
EndChar

StartChar: Atilde
Encoding: 195 195 159
Width: 802
Flags: W
LayerCount: 2
Fore
SplineSet
67.5 1401.2 m 17,0,1
 66.8477 1457.6 66.8477 1457.6 122.5 1505.6 c 1,2,3
 172.5 1534.4 172.5 1534.4 250.5 1534.4 c 0,4,5
 295.5 1534.4 295.5 1534.4 326.75 1522 c 128,-1,6
 358 1509.6 358 1509.6 379 1492.8 c 128,-1,7
 400 1476 400 1476 412 1458 c 0,8,9
 423.2 1441.2 423.2 1441.2 430 1427.6 c 2,10,-1
 437 1413.6 l 2,11,12
 440.725 1406.15 440.725 1406.15 451.25 1388.4 c 0,13,14
 460.5 1372.8 460.5 1372.8 477 1358.4 c 128,-1,15
 493.5 1344 493.5 1344 518.5 1333.8 c 128,-1,16
 543.5 1323.6 543.5 1323.6 580.5 1323.6 c 0,17,18
 649 1323.6 649 1323.6 687.246 1347.7 c 128,-1,19
 725.493 1371.8 725.493 1371.8 725.5 1416.4 c 9,20,-1
 757.499 1416.4 l 17,21,22
 757.243 1358.6 757.243 1358.6 705.5 1326.8 c 0,23,24
 657.5 1297.6 657.5 1297.6 580.5 1297.6 c 0,25,26
 535.5 1297.6 535.5 1297.6 504.75 1310.2 c 128,-1,27
 474 1322.8 474 1322.8 454 1340 c 128,-1,28
 434 1357.2 434 1357.2 423.25 1375.2 c 128,-1,29
 412.5 1393.2 412.5 1393.2 407.5 1404 c 1,30,-1
 400 1417.2 l 1,31,32
 394 1429.2 394 1429.2 383.75 1444.8 c 128,-1,33
 373.5 1460.4 373.5 1460.4 356 1474.8 c 128,-1,34
 338.5 1489.2 338.5 1489.2 313 1499 c 128,-1,35
 287.5 1508.8 287.5 1508.8 250.5 1508.8 c 0,36,37
 184 1508.8 184 1508.8 142 1484.4 c 1,38,39
 100 1460.8 100 1460.8 100 1401.2 c 9,40,-1
 67.5 1401.2 l 17,0,1
20 0 m 1,41,-1
 129 479 l 1,42,-1
 129 485 l 1,43,-1
 338 1380 l 1,44,-1
 389 1380 l 1,45,-1
 705 0 l 1,46,-1
 639 0 l 1,47,-1
 545 422 l 1,48,-1
 180 422 l 1,49,-1
 86 0 l 1,50,-1
 20 0 l 1,41,-1
197 485 m 1,51,-1
 530 485 l 1,52,-1
 362 1206 l 1,53,-1
 197 485 l 1,51,-1
EndSplineSet
EndChar

StartChar: atilde
Encoding: 227 227 160
Width: 802
Flags: W
LayerCount: 2
Fore
SplineSet
67.5 1401.2 m 17,0,1
 66.8477 1457.6 66.8477 1457.6 122.5 1505.6 c 1,2,3
 172.5 1534.4 172.5 1534.4 250.5 1534.4 c 0,4,5
 295.5 1534.4 295.5 1534.4 326.75 1522 c 128,-1,6
 358 1509.6 358 1509.6 379 1492.8 c 128,-1,7
 400 1476 400 1476 412 1458 c 0,8,9
 423.2 1441.2 423.2 1441.2 430 1427.6 c 2,10,-1
 437 1413.6 l 2,11,12
 440.725 1406.15 440.725 1406.15 451.25 1388.4 c 0,13,14
 460.5 1372.8 460.5 1372.8 477 1358.4 c 128,-1,15
 493.5 1344 493.5 1344 518.5 1333.8 c 128,-1,16
 543.5 1323.6 543.5 1323.6 580.5 1323.6 c 0,17,18
 649 1323.6 649 1323.6 687.246 1347.7 c 128,-1,19
 725.493 1371.8 725.493 1371.8 725.5 1416.4 c 9,20,-1
 757.499 1416.4 l 17,21,22
 757.243 1358.6 757.243 1358.6 705.5 1326.8 c 0,23,24
 657.5 1297.6 657.5 1297.6 580.5 1297.6 c 0,25,26
 535.5 1297.6 535.5 1297.6 504.75 1310.2 c 128,-1,27
 474 1322.8 474 1322.8 454 1340 c 128,-1,28
 434 1357.2 434 1357.2 423.25 1375.2 c 128,-1,29
 412.5 1393.2 412.5 1393.2 407.5 1404 c 1,30,-1
 400 1417.2 l 1,31,32
 394 1429.2 394 1429.2 383.75 1444.8 c 128,-1,33
 373.5 1460.4 373.5 1460.4 356 1474.8 c 128,-1,34
 338.5 1489.2 338.5 1489.2 313 1499 c 128,-1,35
 287.5 1508.8 287.5 1508.8 250.5 1508.8 c 0,36,37
 184 1508.8 184 1508.8 142 1484.4 c 1,38,39
 100 1460.8 100 1460.8 100 1401.2 c 9,40,-1
 67.5 1401.2 l 17,0,1
20 0 m 1,41,-1
 129 479 l 1,42,-1
 129 485 l 1,43,-1
 338 1380 l 1,44,-1
 389 1380 l 1,45,-1
 705 0 l 1,46,-1
 639 0 l 1,47,-1
 545 422 l 1,48,-1
 180 422 l 1,49,-1
 86 0 l 1,50,-1
 20 0 l 1,41,-1
197 485 m 1,51,-1
 530 485 l 1,52,-1
 362 1206 l 1,53,-1
 197 485 l 1,51,-1
EndSplineSet
EndChar

StartChar: Otilde
Encoding: 213 213 161
Width: 729
Flags: W
LayerCount: 2
Fore
SplineSet
29.5068 1398.2 m 17,0,1
 28.8545 1454.6 28.8545 1454.6 84.5068 1502.6 c 1,2,3
 134.507 1531.4 134.507 1531.4 212.507 1531.4 c 0,4,5
 257.507 1531.4 257.507 1531.4 288.757 1519 c 128,-1,6
 320.007 1506.6 320.007 1506.6 341.007 1489.8 c 128,-1,7
 362.007 1473 362.007 1473 374.007 1455 c 0,8,9
 385.207 1438.2 385.207 1438.2 392.007 1424.6 c 2,10,-1
 399.007 1410.6 l 2,11,12
 402.731 1403.15 402.731 1403.15 413.257 1385.4 c 0,13,14
 422.507 1369.8 422.507 1369.8 439.007 1355.4 c 128,-1,15
 455.507 1341 455.507 1341 480.507 1330.8 c 128,-1,16
 505.507 1320.6 505.507 1320.6 542.507 1320.6 c 0,17,18
 611.007 1320.6 611.007 1320.6 649.253 1344.7 c 128,-1,19
 687.5 1368.8 687.5 1368.8 687.507 1413.4 c 9,20,-1
 719.506 1413.4 l 17,21,22
 719.25 1355.6 719.25 1355.6 667.507 1323.8 c 0,23,24
 619.507 1294.6 619.507 1294.6 542.507 1294.6 c 0,25,26
 497.507 1294.6 497.507 1294.6 466.757 1307.2 c 128,-1,27
 436.007 1319.8 436.007 1319.8 416.007 1337 c 128,-1,28
 396.007 1354.2 396.007 1354.2 385.257 1372.2 c 128,-1,29
 374.507 1390.2 374.507 1390.2 369.507 1401 c 1,30,-1
 362.007 1414.2 l 1,31,32
 356.007 1426.2 356.007 1426.2 345.757 1441.8 c 128,-1,33
 335.507 1457.4 335.507 1457.4 318.007 1471.8 c 128,-1,34
 300.507 1486.2 300.507 1486.2 275.007 1496 c 128,-1,35
 249.507 1505.8 249.507 1505.8 212.507 1505.8 c 0,36,37
 146.007 1505.8 146.007 1505.8 104.007 1481.4 c 1,38,39
 62.0068 1457.8 62.0068 1457.8 62.0068 1398.2 c 9,40,-1
 29.5068 1398.2 l 17,0,1
20 367 m 2,41,-1
 20 1016 l 2,42,43
 20 1192 20 1192 92 1286 c 1,44,45
 168 1380 168 1380 313 1380 c 0,46,47
 460 1380 460 1380 535 1286 c 0,48,49
 609 1194 609 1194 608 1016 c 1,50,-1
 608 367 l 2,51,52
 608 252 608 252 581.5 181.5 c 128,-1,53
 555 111 555 111 512 70 c 128,-1,54
 469 29 469 29 417 14.5 c 128,-1,55
 365 0 365 0 313 0 c 0,56,57
 264 0 264 0 212 14.5 c 128,-1,58
 160 29 160 29 117 70 c 128,-1,59
 74 111 74 111 47 181.5 c 128,-1,60
 20 252 20 252 20 367 c 2,41,-1
84 367 m 2,61,62
 84 211 84 211 143 135 c 0,63,64
 198 63 198 63 313 63 c 0,65,66
 426 63 426 63 485 135 c 1,67,68
 542 207 542 207 543 367 c 1,69,-1
 543 1016 l 2,70,71
 543 1174 543 1174 485.5 1245.5 c 128,-1,72
 428 1317 428 1317 313 1317 c 0,73,74
 196 1317 196 1317 143 1245 c 1,75,76
 84 1169 84 1169 84 1016 c 2,77,-1
 84 367 l 2,61,62
EndSplineSet
EndChar

StartChar: otilde
Encoding: 245 245 162
Width: 729
Flags: W
LayerCount: 2
Fore
SplineSet
29.5068 1398.2 m 17,0,1
 28.8545 1454.6 28.8545 1454.6 84.5068 1502.6 c 1,2,3
 134.507 1531.4 134.507 1531.4 212.507 1531.4 c 0,4,5
 257.507 1531.4 257.507 1531.4 288.757 1519 c 128,-1,6
 320.007 1506.6 320.007 1506.6 341.007 1489.8 c 128,-1,7
 362.007 1473 362.007 1473 374.007 1455 c 0,8,9
 385.207 1438.2 385.207 1438.2 392.007 1424.6 c 2,10,-1
 399.007 1410.6 l 2,11,12
 402.731 1403.15 402.731 1403.15 413.257 1385.4 c 0,13,14
 422.507 1369.8 422.507 1369.8 439.007 1355.4 c 128,-1,15
 455.507 1341 455.507 1341 480.507 1330.8 c 128,-1,16
 505.507 1320.6 505.507 1320.6 542.507 1320.6 c 0,17,18
 611.007 1320.6 611.007 1320.6 649.253 1344.7 c 128,-1,19
 687.5 1368.8 687.5 1368.8 687.507 1413.4 c 9,20,-1
 719.506 1413.4 l 17,21,22
 719.25 1355.6 719.25 1355.6 667.507 1323.8 c 0,23,24
 619.507 1294.6 619.507 1294.6 542.507 1294.6 c 0,25,26
 497.507 1294.6 497.507 1294.6 466.757 1307.2 c 128,-1,27
 436.007 1319.8 436.007 1319.8 416.007 1337 c 128,-1,28
 396.007 1354.2 396.007 1354.2 385.257 1372.2 c 128,-1,29
 374.507 1390.2 374.507 1390.2 369.507 1401 c 1,30,-1
 362.007 1414.2 l 1,31,32
 356.007 1426.2 356.007 1426.2 345.757 1441.8 c 128,-1,33
 335.507 1457.4 335.507 1457.4 318.007 1471.8 c 128,-1,34
 300.507 1486.2 300.507 1486.2 275.007 1496 c 128,-1,35
 249.507 1505.8 249.507 1505.8 212.507 1505.8 c 0,36,37
 146.007 1505.8 146.007 1505.8 104.007 1481.4 c 1,38,39
 62.0068 1457.8 62.0068 1457.8 62.0068 1398.2 c 9,40,-1
 29.5068 1398.2 l 17,0,1
20 367 m 2,41,-1
 20 1016 l 2,42,43
 20 1192 20 1192 92 1286 c 1,44,45
 168 1380 168 1380 313 1380 c 0,46,47
 460 1380 460 1380 535 1286 c 0,48,49
 609 1194 609 1194 608 1016 c 1,50,-1
 608 367 l 2,51,52
 608 252 608 252 581.5 181.5 c 128,-1,53
 555 111 555 111 512 70 c 128,-1,54
 469 29 469 29 417 14.5 c 128,-1,55
 365 0 365 0 313 0 c 0,56,57
 264 0 264 0 212 14.5 c 128,-1,58
 160 29 160 29 117 70 c 128,-1,59
 74 111 74 111 47 181.5 c 128,-1,60
 20 252 20 252 20 367 c 2,41,-1
84 367 m 2,61,62
 84 211 84 211 143 135 c 0,63,64
 198 63 198 63 313 63 c 0,65,66
 426 63 426 63 485 135 c 1,67,68
 542 207 542 207 543 367 c 1,69,-1
 543 1016 l 2,70,71
 543 1174 543 1174 485.5 1245.5 c 128,-1,72
 428 1317 428 1317 313 1317 c 0,73,74
 196 1317 196 1317 143 1245 c 1,75,76
 84 1169 84 1169 84 1016 c 2,77,-1
 84 367 l 2,61,62
EndSplineSet
EndChar

StartChar: ugrave
Encoding: 249 249 163
Width: 712
Flags: W
LayerCount: 2
Fore
SplineSet
535.044 1400.12 m 9,0,-1
 435.633 1400.27 l 1,1,-1
 39.2148 1534.82 l 1,2,-1
 137.562 1534.73 l 1,3,-1
 535.044 1400.12 l 9,0,-1
14 340 m 2,4,-1
 14 1382 l 1,5,-1
 78 1382 l 1,6,-1
 78 340 l 2,7,8
 78 248 78 248 98.5 193.5 c 128,-1,9
 119 139 119 139 149.5 110.5 c 128,-1,10
 180 82 180 82 217 74 c 128,-1,11
 254 66 254 66 289 66 c 0,12,13
 322 66 322 66 358.5 74 c 128,-1,14
 395 82 395 82 426 110.5 c 128,-1,15
 457 139 457 139 477.5 193.5 c 128,-1,16
 498 248 498 248 498 340 c 2,17,-1
 498 1382 l 1,18,-1
 561 1382 l 1,19,-1
 561 340 l 2,20,21
 561 236 561 236 535.5 169 c 128,-1,22
 510 102 510 102 471 65.5 c 128,-1,23
 432 29 432 29 383 15.5 c 128,-1,24
 334 2 334 2 289 2 c 0,25,26
 242 2 242 2 193.5 15.5 c 128,-1,27
 145 29 145 29 105.5 65.5 c 128,-1,28
 66 102 66 102 40 169 c 128,-1,29
 14 236 14 236 14 340 c 2,4,-1
EndSplineSet
EndChar

StartChar: Ugrave
Encoding: 217 217 164
Width: 712
Flags: W
LayerCount: 2
Fore
SplineSet
535.044 1400.12 m 9,0,-1
 435.633 1400.27 l 1,1,-1
 39.2148 1534.82 l 1,2,-1
 137.562 1534.73 l 1,3,-1
 535.044 1400.12 l 9,0,-1
14 340 m 2,4,-1
 14 1382 l 1,5,-1
 78 1382 l 1,6,-1
 78 340 l 2,7,8
 78 248 78 248 98.5 193.5 c 128,-1,9
 119 139 119 139 149.5 110.5 c 128,-1,10
 180 82 180 82 217 74 c 128,-1,11
 254 66 254 66 289 66 c 0,12,13
 322 66 322 66 358.5 74 c 128,-1,14
 395 82 395 82 426 110.5 c 128,-1,15
 457 139 457 139 477.5 193.5 c 128,-1,16
 498 248 498 248 498 340 c 2,17,-1
 498 1382 l 1,18,-1
 561 1382 l 1,19,-1
 561 340 l 2,20,21
 561 236 561 236 535.5 169 c 128,-1,22
 510 102 510 102 471 65.5 c 128,-1,23
 432 29 432 29 383 15.5 c 128,-1,24
 334 2 334 2 289 2 c 0,25,26
 242 2 242 2 193.5 15.5 c 128,-1,27
 145 29 145 29 105.5 65.5 c 128,-1,28
 66 102 66 102 40 169 c 128,-1,29
 14 236 14 236 14 340 c 2,4,-1
EndSplineSet
EndChar

StartChar: Uacute
Encoding: 218 218 165
Width: 712
Flags: W
LayerCount: 2
Fore
SplineSet
39.2148 1400.12 m 9,0,-1
 138.626 1400.27 l 1,1,-1
 535.044 1534.82 l 1,2,-1
 436.697 1534.73 l 1,3,-1
 39.2148 1400.12 l 9,0,-1
14 340 m 2,4,-1
 14 1382 l 1,5,-1
 78 1382 l 1,6,-1
 78 340 l 2,7,8
 78 248 78 248 98.5 193.5 c 128,-1,9
 119 139 119 139 149.5 110.5 c 128,-1,10
 180 82 180 82 217 74 c 128,-1,11
 254 66 254 66 289 66 c 0,12,13
 322 66 322 66 358.5 74 c 128,-1,14
 395 82 395 82 426 110.5 c 128,-1,15
 457 139 457 139 477.5 193.5 c 128,-1,16
 498 248 498 248 498 340 c 2,17,-1
 498 1382 l 1,18,-1
 561 1382 l 1,19,-1
 561 340 l 2,20,21
 561 236 561 236 535.5 169 c 128,-1,22
 510 102 510 102 471 65.5 c 128,-1,23
 432 29 432 29 383 15.5 c 128,-1,24
 334 2 334 2 289 2 c 0,25,26
 242 2 242 2 193.5 15.5 c 128,-1,27
 145 29 145 29 105.5 65.5 c 128,-1,28
 66 102 66 102 40 169 c 128,-1,29
 14 236 14 236 14 340 c 2,4,-1
EndSplineSet
EndChar

StartChar: uacute
Encoding: 250 250 166
Width: 712
Flags: W
LayerCount: 2
Fore
SplineSet
39.2148 1400.12 m 9,0,-1
 138.626 1400.27 l 1,1,-1
 535.044 1534.82 l 1,2,-1
 436.697 1534.73 l 1,3,-1
 39.2148 1400.12 l 9,0,-1
14 340 m 2,4,-1
 14 1382 l 1,5,-1
 78 1382 l 1,6,-1
 78 340 l 2,7,8
 78 248 78 248 98.5 193.5 c 128,-1,9
 119 139 119 139 149.5 110.5 c 128,-1,10
 180 82 180 82 217 74 c 128,-1,11
 254 66 254 66 289 66 c 0,12,13
 322 66 322 66 358.5 74 c 128,-1,14
 395 82 395 82 426 110.5 c 128,-1,15
 457 139 457 139 477.5 193.5 c 128,-1,16
 498 248 498 248 498 340 c 2,17,-1
 498 1382 l 1,18,-1
 561 1382 l 1,19,-1
 561 340 l 2,20,21
 561 236 561 236 535.5 169 c 128,-1,22
 510 102 510 102 471 65.5 c 128,-1,23
 432 29 432 29 383 15.5 c 128,-1,24
 334 2 334 2 289 2 c 0,25,26
 242 2 242 2 193.5 15.5 c 128,-1,27
 145 29 145 29 105.5 65.5 c 128,-1,28
 66 102 66 102 40 169 c 128,-1,29
 14 236 14 236 14 340 c 2,4,-1
EndSplineSet
EndChar

StartChar: dieresis
Encoding: 168 168 167
Width: 712
Flags: W
LayerCount: 2
Fore
SplineSet
14 1431 m 1,0,-1
 14 1536 l 1,1,-1
 78 1536 l 1,2,-1
 78 1431 l 1,3,-1
 14 1431 l 1,0,-1
498 1431 m 1,4,-1
 498 1536 l 1,5,-1
 561 1536 l 1,6,-1
 561 1431 l 1,7,-1
 498 1431 l 1,4,-1
EndSplineSet
EndChar

StartChar: ucircumflex
Encoding: 251 251 168
Width: 712
Flags: W
LayerCount: 2
Fore
SplineSet
289.125 1516.96 m 1,0,-1
 99.0273 1400.27 l 1,1,-1
 39.3809 1400.12 l 17,2,-1
 260.38 1534.82 l 1,3,-1
 319.389 1534.73 l 1,4,-1
 535.878 1400.12 l 9,5,-1
 476.231 1400.27 l 1,6,-1
 289.125 1516.96 l 1,0,-1
14 340 m 2,7,-1
 14 1382 l 1,8,-1
 78 1382 l 1,9,-1
 78 340 l 2,10,11
 78 248 78 248 98.5 193.5 c 128,-1,12
 119 139 119 139 149.5 110.5 c 128,-1,13
 180 82 180 82 217 74 c 128,-1,14
 254 66 254 66 289 66 c 0,15,16
 322 66 322 66 358.5 74 c 128,-1,17
 395 82 395 82 426 110.5 c 128,-1,18
 457 139 457 139 477.5 193.5 c 128,-1,19
 498 248 498 248 498 340 c 2,20,-1
 498 1382 l 1,21,-1
 561 1382 l 1,22,-1
 561 340 l 2,23,24
 561 236 561 236 535.5 169 c 128,-1,25
 510 102 510 102 471 65.5 c 128,-1,26
 432 29 432 29 383 15.5 c 128,-1,27
 334 2 334 2 289 2 c 0,28,29
 242 2 242 2 193.5 15.5 c 128,-1,30
 145 29 145 29 105.5 65.5 c 128,-1,31
 66 102 66 102 40 169 c 128,-1,32
 14 236 14 236 14 340 c 2,7,-1
EndSplineSet
EndChar

StartChar: Ucircumflex
Encoding: 219 219 169
Width: 712
Flags: W
LayerCount: 2
Fore
SplineSet
289.125 1516.96 m 1,0,-1
 99.0273 1400.27 l 1,1,-1
 39.3809 1400.12 l 17,2,-1
 260.38 1534.82 l 1,3,-1
 319.389 1534.73 l 1,4,-1
 535.878 1400.12 l 9,5,-1
 476.231 1400.27 l 1,6,-1
 289.125 1516.96 l 1,0,-1
14 340 m 2,7,-1
 14 1382 l 1,8,-1
 78 1382 l 1,9,-1
 78 340 l 2,10,11
 78 248 78 248 98.5 193.5 c 128,-1,12
 119 139 119 139 149.5 110.5 c 128,-1,13
 180 82 180 82 217 74 c 128,-1,14
 254 66 254 66 289 66 c 0,15,16
 322 66 322 66 358.5 74 c 128,-1,17
 395 82 395 82 426 110.5 c 128,-1,18
 457 139 457 139 477.5 193.5 c 128,-1,19
 498 248 498 248 498 340 c 2,20,-1
 498 1382 l 1,21,-1
 561 1382 l 1,22,-1
 561 340 l 2,23,24
 561 236 561 236 535.5 169 c 128,-1,25
 510 102 510 102 471 65.5 c 128,-1,26
 432 29 432 29 383 15.5 c 128,-1,27
 334 2 334 2 289 2 c 0,28,29
 242 2 242 2 193.5 15.5 c 128,-1,30
 145 29 145 29 105.5 65.5 c 128,-1,31
 66 102 66 102 40 169 c 128,-1,32
 14 236 14 236 14 340 c 2,7,-1
EndSplineSet
EndChar

StartChar: Icircumflex
Encoding: 206 206 170
Width: 223
Flags: W
LayerCount: 2
Fore
SplineSet
81.1074 1516.96 m 1,0,-1
 20.2764 1400.27 l 1,1,-1
 1.19043 1400.12 l 17,2,-1
 71.9092 1534.82 l 1,3,-1
 90.792 1534.73 l 1,4,-1
 160.068 1400.12 l 9,5,-1
 140.982 1400.27 l 1,6,-1
 81.1074 1516.96 l 1,0,-1
47 0 m 1,7,-1
 47 1380 l 1,8,-1
 111 1380 l 1,9,-1
 111 0 l 1,10,-1
 47 0 l 1,7,-1
EndSplineSet
EndChar

StartChar: icircumflex
Encoding: 238 238 171
Width: 223
Flags: W
LayerCount: 2
Fore
SplineSet
81.1074 1516.96 m 1,0,-1
 20.2764 1400.27 l 1,1,-1
 1.19043 1400.12 l 17,2,-1
 71.9092 1534.82 l 1,3,-1
 90.792 1534.73 l 1,4,-1
 160.068 1400.12 l 9,5,-1
 140.982 1400.27 l 1,6,-1
 81.1074 1516.96 l 1,0,-1
47 0 m 1,7,-1
 47 1380 l 1,8,-1
 111 1380 l 1,9,-1
 111 0 l 1,10,-1
 47 0 l 1,7,-1
EndSplineSet
EndChar

StartChar: iacute
Encoding: 237 237 172
Width: 223
Flags: W
LayerCount: 2
Fore
SplineSet
198.295 1534.82 m 9,0,-1
 158.531 1534.67 l 1,1,-1
 -0.0361328 1400.12 l 1,2,-1
 39.3027 1400.21 l 1,3,-1
 198.295 1534.82 l 9,0,-1
47 0 m 1,4,-1
 47 1380 l 1,5,-1
 111 1380 l 1,6,-1
 111 0 l 1,7,-1
 47 0 l 1,4,-1
EndSplineSet
EndChar

StartChar: igrave
Encoding: 236 236 173
Width: 223
Flags: W
LayerCount: 2
Fore
SplineSet
198.295 1400.12 m 9,0,-1
 158.531 1400.27 l 1,1,-1
 -0.0361328 1534.82 l 1,2,-1
 39.3027 1534.73 l 1,3,-1
 198.295 1400.12 l 9,0,-1
47 0 m 1,4,-1
 47 1380 l 1,5,-1
 111 1380 l 1,6,-1
 111 0 l 1,7,-1
 47 0 l 1,4,-1
EndSplineSet
EndChar

StartChar: Igrave
Encoding: 204 204 174
Width: 223
Flags: W
LayerCount: 2
Fore
SplineSet
198.295 1400.12 m 9,0,-1
 158.531 1400.27 l 1,1,-1
 -0.0361328 1534.82 l 1,2,-1
 39.3027 1534.73 l 1,3,-1
 198.295 1400.12 l 9,0,-1
47 0 m 1,4,-1
 47 1380 l 1,5,-1
 111 1380 l 1,6,-1
 111 0 l 1,7,-1
 47 0 l 1,4,-1
EndSplineSet
EndChar

StartChar: Iacute
Encoding: 205 205 175
Width: 223
Flags: W
LayerCount: 2
Fore
SplineSet
198.295 1534.82 m 9,0,-1
 158.531 1534.67 l 1,1,-1
 -0.0361328 1400.12 l 1,2,-1
 39.3027 1400.21 l 1,3,-1
 198.295 1534.82 l 9,0,-1
47 0 m 1,4,-1
 47 1380 l 1,5,-1
 111 1380 l 1,6,-1
 111 0 l 1,7,-1
 47 0 l 1,4,-1
EndSplineSet
EndChar

StartChar: edieresis
Encoding: 235 235 176
Width: 620
Flags: W
LayerCount: 2
Fore
SplineSet
14 1431 m 1,0,-1
 14 1536 l 1,1,-1
 78 1536 l 1,2,-1
 78 1431 l 1,3,-1
 14 1431 l 1,0,-1
498 1431 m 1,4,-1
 498 1536 l 1,5,-1
 561 1536 l 1,6,-1
 561 1431 l 1,7,-1
 498 1431 l 1,4,-1
20 0 m 1,8,-1
 20 1380 l 1,9,-1
 516 1380 l 1,10,-1
 516 1317 l 1,11,-1
 84 1317 l 1,12,-1
 84 723 l 1,13,-1
 516 723 l 1,14,-1
 516 659 l 1,15,-1
 84 659 l 1,16,-1
 84 63 l 1,17,-1
 516 63 l 1,18,-1
 516 0 l 1,19,-1
 20 0 l 1,8,-1
EndSplineSet
EndChar

StartChar: Edieresis
Encoding: 203 203 177
Width: 620
Flags: W
LayerCount: 2
Fore
SplineSet
14 1431 m 1,0,-1
 14 1536 l 1,1,-1
 78 1536 l 1,2,-1
 78 1431 l 1,3,-1
 14 1431 l 1,0,-1
498 1431 m 1,4,-1
 498 1536 l 1,5,-1
 561 1536 l 1,6,-1
 561 1431 l 1,7,-1
 498 1431 l 1,4,-1
20 0 m 1,8,-1
 20 1380 l 1,9,-1
 516 1380 l 1,10,-1
 516 1317 l 1,11,-1
 84 1317 l 1,12,-1
 84 723 l 1,13,-1
 516 723 l 1,14,-1
 516 659 l 1,15,-1
 84 659 l 1,16,-1
 84 63 l 1,17,-1
 516 63 l 1,18,-1
 516 0 l 1,19,-1
 20 0 l 1,8,-1
EndSplineSet
EndChar

StartChar: Idieresis
Encoding: 207 207 178
Width: 223
Flags: W
LayerCount: 2
Fore
SplineSet
0 1431 m 1,0,-1
 0 1536 l 1,1,-1
 64 1536 l 1,2,-1
 64 1431 l 1,3,-1
 0 1431 l 1,0,-1
94 1431 m 1,4,-1
 94 1536 l 1,5,-1
 157 1536 l 1,6,-1
 157 1431 l 1,7,-1
 94 1431 l 1,4,-1
47 0 m 1,8,-1
 47 1380 l 1,9,-1
 111 1380 l 1,10,-1
 111 0 l 1,11,-1
 47 0 l 1,8,-1
EndSplineSet
EndChar

StartChar: idieresis
Encoding: 239 239 179
Width: 223
Flags: W
LayerCount: 2
Fore
SplineSet
0 1431 m 1,0,-1
 0 1536 l 1,1,-1
 64 1536 l 1,2,-1
 64 1431 l 1,3,-1
 0 1431 l 1,0,-1
94 1431 m 1,4,-1
 94 1536 l 1,5,-1
 157 1536 l 1,6,-1
 157 1431 l 1,7,-1
 94 1431 l 1,4,-1
47 0 m 1,8,-1
 47 1380 l 1,9,-1
 111 1380 l 1,10,-1
 111 0 l 1,11,-1
 47 0 l 1,8,-1
EndSplineSet
EndChar

StartChar: ntilde
Encoding: 241 241 180
Width: 737
Flags: W
LayerCount: 2
Fore
SplineSet
-9.25 1399.4 m 17,0,1
 -9.90234 1455.8 -9.90234 1455.8 45.75 1503.8 c 1,2,3
 95.75 1532.6 95.75 1532.6 173.75 1532.6 c 0,4,5
 218.75 1532.6 218.75 1532.6 250 1520.2 c 128,-1,6
 281.25 1507.8 281.25 1507.8 302.25 1491 c 128,-1,7
 323.25 1474.2 323.25 1474.2 335.25 1456.2 c 0,8,9
 346.45 1439.4 346.45 1439.4 353.25 1425.8 c 2,10,-1
 360.25 1411.8 l 2,11,12
 363.975 1404.35 363.975 1404.35 374.5 1386.6 c 0,13,14
 383.75 1371 383.75 1371 400.25 1356.6 c 128,-1,15
 416.75 1342.2 416.75 1342.2 441.75 1332 c 128,-1,16
 466.75 1321.8 466.75 1321.8 503.75 1321.8 c 0,17,18
 572.25 1321.8 572.25 1321.8 610.496 1345.9 c 128,-1,19
 648.743 1370 648.743 1370 648.75 1414.6 c 9,20,-1
 680.749 1414.6 l 17,21,22
 680.493 1356.8 680.493 1356.8 628.75 1325 c 0,23,24
 580.75 1295.8 580.75 1295.8 503.75 1295.8 c 0,25,26
 458.75 1295.8 458.75 1295.8 428 1308.4 c 128,-1,27
 397.25 1321 397.25 1321 377.25 1338.2 c 128,-1,28
 357.25 1355.4 357.25 1355.4 346.5 1373.4 c 128,-1,29
 335.75 1391.4 335.75 1391.4 330.75 1402.2 c 1,30,-1
 323.25 1415.4 l 1,31,32
 317.25 1427.4 317.25 1427.4 307 1443 c 128,-1,33
 296.75 1458.6 296.75 1458.6 279.25 1473 c 128,-1,34
 261.75 1487.4 261.75 1487.4 236.25 1497.2 c 128,-1,35
 210.75 1507 210.75 1507 173.75 1507 c 0,36,37
 107.25 1507 107.25 1507 65.25 1482.6 c 1,38,39
 23.25 1459 23.25 1459 23.25 1399.4 c 9,40,-1
 -9.25 1399.4 l 17,0,1
18 0 m 1,41,-1
 18 1380 l 1,42,-1
 74 1380 l 1,43,-1
 549 199 l 1,44,-1
 549 1380 l 1,45,-1
 614 1380 l 1,46,-1
 614 0 l 1,47,-1
 561 0 l 1,48,-1
 84 1182 l 1,49,-1
 84 0 l 1,50,-1
 18 0 l 1,41,-1
EndSplineSet
EndChar

StartChar: Ntilde
Encoding: 209 209 181
Width: 737
Flags: W
LayerCount: 2
Fore
SplineSet
-9.25 1399.4 m 17,0,1
 -9.90234 1455.8 -9.90234 1455.8 45.75 1503.8 c 1,2,3
 95.75 1532.6 95.75 1532.6 173.75 1532.6 c 0,4,5
 218.75 1532.6 218.75 1532.6 250 1520.2 c 128,-1,6
 281.25 1507.8 281.25 1507.8 302.25 1491 c 128,-1,7
 323.25 1474.2 323.25 1474.2 335.25 1456.2 c 0,8,9
 346.45 1439.4 346.45 1439.4 353.25 1425.8 c 2,10,-1
 360.25 1411.8 l 2,11,12
 363.975 1404.35 363.975 1404.35 374.5 1386.6 c 0,13,14
 383.75 1371 383.75 1371 400.25 1356.6 c 128,-1,15
 416.75 1342.2 416.75 1342.2 441.75 1332 c 128,-1,16
 466.75 1321.8 466.75 1321.8 503.75 1321.8 c 0,17,18
 572.25 1321.8 572.25 1321.8 610.496 1345.9 c 128,-1,19
 648.743 1370 648.743 1370 648.75 1414.6 c 9,20,-1
 680.749 1414.6 l 17,21,22
 680.493 1356.8 680.493 1356.8 628.75 1325 c 0,23,24
 580.75 1295.8 580.75 1295.8 503.75 1295.8 c 0,25,26
 458.75 1295.8 458.75 1295.8 428 1308.4 c 128,-1,27
 397.25 1321 397.25 1321 377.25 1338.2 c 128,-1,28
 357.25 1355.4 357.25 1355.4 346.5 1373.4 c 128,-1,29
 335.75 1391.4 335.75 1391.4 330.75 1402.2 c 1,30,-1
 323.25 1415.4 l 1,31,32
 317.25 1427.4 317.25 1427.4 307 1443 c 128,-1,33
 296.75 1458.6 296.75 1458.6 279.25 1473 c 128,-1,34
 261.75 1487.4 261.75 1487.4 236.25 1497.2 c 128,-1,35
 210.75 1507 210.75 1507 173.75 1507 c 0,36,37
 107.25 1507 107.25 1507 65.25 1482.6 c 1,38,39
 23.25 1459 23.25 1459 23.25 1399.4 c 9,40,-1
 -9.25 1399.4 l 17,0,1
18 0 m 1,41,-1
 18 1380 l 1,42,-1
 74 1380 l 1,43,-1
 549 199 l 1,44,-1
 549 1380 l 1,45,-1
 614 1380 l 1,46,-1
 614 0 l 1,47,-1
 561 0 l 1,48,-1
 84 1182 l 1,49,-1
 84 0 l 1,50,-1
 18 0 l 1,41,-1
EndSplineSet
EndChar

StartChar: Yacute
Encoding: 221 221 182
Width: 854
Flags: W
LayerCount: 2
Fore
SplineSet
147.215 1400.12 m 9,0,-1
 246.626 1400.27 l 1,1,-1
 643.044 1534.82 l 1,2,-1
 544.697 1534.73 l 5,3,-1
 147.215 1400.12 l 9,0,-1
-20 1380 m 1,4,-1
 53 1380 l 1,5,-1
 395 758 l 1,6,-1
 737 1380 l 1,7,-1
 811 1380 l 1,8,-1
 428 682 l 1,9,-1
 428 0 l 1,10,-1
 365 0 l 1,11,-1
 365 682 l 1,12,-1
 -20 1380 l 1,4,-1
EndSplineSet
EndChar

StartChar: yacute
Encoding: 253 253 183
Width: 854
Flags: W
LayerCount: 2
Fore
SplineSet
147.215 1400.12 m 9,0,-1
 246.626 1400.27 l 1,1,-1
 643.044 1534.82 l 1,2,-1
 544.697 1534.73 l 5,3,-1
 147.215 1400.12 l 9,0,-1
-20 1380 m 1,4,-1
 53 1380 l 1,5,-1
 395 758 l 1,6,-1
 737 1380 l 1,7,-1
 811 1380 l 1,8,-1
 428 682 l 1,9,-1
 428 0 l 1,10,-1
 365 0 l 1,11,-1
 365 682 l 1,12,-1
 -20 1380 l 1,4,-1
EndSplineSet
EndChar

StartChar: ydieresis
Encoding: 255 255 184
Width: 854
Flags: W
LayerCount: 2
Fore
SplineSet
128 1431 m 1,0,-1
 128 1536 l 1,1,-1
 192 1536 l 1,2,-1
 192 1431 l 1,3,-1
 128 1431 l 1,0,-1
612 1431 m 1,4,-1
 612 1536 l 1,5,-1
 675 1536 l 1,6,-1
 675 1431 l 1,7,-1
 612 1431 l 1,4,-1
-20 1380 m 1,8,-1
 53 1380 l 1,9,-1
 395 758 l 1,10,-1
 737 1380 l 1,11,-1
 811 1380 l 1,12,-1
 428 682 l 1,13,-1
 428 0 l 1,14,-1
 365 0 l 1,15,-1
 365 682 l 1,16,-1
 -20 1380 l 1,8,-1
EndSplineSet
EndChar

StartChar: Ccircumflex
Encoding: 264 264 185
Width: 704
Flags: W
LayerCount: 2
Fore
SplineSet
311.125 1516.96 m 1,0,-1
 121.027 1400.27 l 1,1,-1
 61.3809 1400.12 l 17,2,-1
 282.38 1534.82 l 1,3,-1
 341.389 1534.73 l 1,4,-1
 557.878 1400.12 l 9,5,-1
 498.231 1400.27 l 1,6,-1
 311.125 1516.96 l 1,0,-1
16 367 m 2,7,-1
 16 1016 l 2,8,9
 16 1129 16 1129 43 1200.5 c 128,-1,10
 70 1272 70 1272 113 1312 c 128,-1,11
 156 1352 156 1352 208 1366 c 128,-1,12
 260 1380 260 1380 311 1380 c 0,13,14
 360 1380 360 1380 412.5 1366 c 128,-1,15
 465 1352 465 1352 508 1312 c 128,-1,16
 551 1272 551 1272 577.5 1200 c 128,-1,17
 604 1128 604 1128 604 1016 c 2,18,-1
 604 983 l 1,19,-1
 539 983 l 1,20,-1
 539 1016 l 2,21,22
 539 1174 539 1174 481 1245 c 0,23,24
 422 1317 422 1317 311 1317 c 0,25,26
 198 1317 198 1317 139 1245 c 1,27,28
 82 1173 82 1173 82 1016 c 2,29,-1
 82 367 l 2,30,31
 82 209 82 209 141 135 c 1,32,33
 196 63 196 63 311 63 c 0,34,35
 422 63 422 63 481 135 c 1,36,37
 538 211 538 211 539 367 c 1,38,-1
 539 399 l 1,39,-1
 604 399 l 1,40,-1
 604 367 l 2,41,42
 604 252 604 252 577.5 181.5 c 128,-1,43
 551 111 551 111 508 70 c 128,-1,44
 465 29 465 29 412.5 14.5 c 128,-1,45
 360 0 360 0 311 0 c 0,46,47
 260 0 260 0 208 14.5 c 128,-1,48
 156 29 156 29 113 70 c 128,-1,49
 70 111 70 111 43 181.5 c 128,-1,50
 16 252 16 252 16 367 c 2,7,-1
EndSplineSet
EndChar

StartChar: ccircumflex
Encoding: 265 265 186
Width: 704
Flags: W
LayerCount: 2
Fore
SplineSet
311.125 1516.96 m 1,0,-1
 121.027 1400.27 l 1,1,-1
 61.3809 1400.12 l 17,2,-1
 282.38 1534.82 l 1,3,-1
 341.389 1534.73 l 1,4,-1
 557.878 1400.12 l 9,5,-1
 498.231 1400.27 l 1,6,-1
 311.125 1516.96 l 1,0,-1
16 367 m 2,7,-1
 16 1016 l 2,8,9
 16 1129 16 1129 43 1200.5 c 128,-1,10
 70 1272 70 1272 113 1312 c 128,-1,11
 156 1352 156 1352 208 1366 c 128,-1,12
 260 1380 260 1380 311 1380 c 0,13,14
 360 1380 360 1380 412.5 1366 c 128,-1,15
 465 1352 465 1352 508 1312 c 128,-1,16
 551 1272 551 1272 577.5 1200 c 128,-1,17
 604 1128 604 1128 604 1016 c 2,18,-1
 604 983 l 1,19,-1
 539 983 l 1,20,-1
 539 1016 l 2,21,22
 539 1174 539 1174 481 1245 c 0,23,24
 422 1317 422 1317 311 1317 c 0,25,26
 198 1317 198 1317 139 1245 c 1,27,28
 82 1173 82 1173 82 1016 c 2,29,-1
 82 367 l 2,30,31
 82 209 82 209 141 135 c 1,32,33
 196 63 196 63 311 63 c 0,34,35
 422 63 422 63 481 135 c 1,36,37
 538 211 538 211 539 367 c 1,38,-1
 539 399 l 1,39,-1
 604 399 l 1,40,-1
 604 367 l 2,41,42
 604 252 604 252 577.5 181.5 c 128,-1,43
 551 111 551 111 508 70 c 128,-1,44
 465 29 465 29 412.5 14.5 c 128,-1,45
 360 0 360 0 311 0 c 0,46,47
 260 0 260 0 208 14.5 c 128,-1,48
 156 29 156 29 113 70 c 128,-1,49
 70 111 70 111 43 181.5 c 128,-1,50
 16 252 16 252 16 367 c 2,7,-1
EndSplineSet
EndChar

StartChar: Cacute
Encoding: 262 262 187
Width: 704
Flags: W
LayerCount: 2
Fore
SplineSet
62.2148 1400.12 m 9,0,-1
 161.626 1400.27 l 1,1,-1
 558.044 1534.82 l 1,2,-1
 459.697 1534.73 l 1,3,-1
 62.2148 1400.12 l 9,0,-1
16 367 m 2,4,-1
 16 1016 l 2,5,6
 16 1129 16 1129 43 1200.5 c 128,-1,7
 70 1272 70 1272 113 1312 c 128,-1,8
 156 1352 156 1352 208 1366 c 128,-1,9
 260 1380 260 1380 311 1380 c 0,10,11
 360 1380 360 1380 412.5 1366 c 128,-1,12
 465 1352 465 1352 508 1312 c 128,-1,13
 551 1272 551 1272 577.5 1200 c 128,-1,14
 604 1128 604 1128 604 1016 c 2,15,-1
 604 983 l 1,16,-1
 539 983 l 1,17,-1
 539 1016 l 2,18,19
 539 1174 539 1174 481 1245 c 0,20,21
 422 1317 422 1317 311 1317 c 0,22,23
 198 1317 198 1317 139 1245 c 1,24,25
 82 1173 82 1173 82 1016 c 2,26,-1
 82 367 l 2,27,28
 82 209 82 209 141 135 c 1,29,30
 196 63 196 63 311 63 c 0,31,32
 422 63 422 63 481 135 c 1,33,34
 538 211 538 211 539 367 c 1,35,-1
 539 399 l 1,36,-1
 604 399 l 1,37,-1
 604 367 l 2,38,39
 604 252 604 252 577.5 181.5 c 128,-1,40
 551 111 551 111 508 70 c 128,-1,41
 465 29 465 29 412.5 14.5 c 128,-1,42
 360 0 360 0 311 0 c 0,43,44
 260 0 260 0 208 14.5 c 128,-1,45
 156 29 156 29 113 70 c 128,-1,46
 70 111 70 111 43 181.5 c 128,-1,47
 16 252 16 252 16 367 c 2,4,-1
EndSplineSet
EndChar

StartChar: cacute
Encoding: 263 263 188
Width: 704
Flags: W
LayerCount: 2
Fore
SplineSet
62.2148 1400.12 m 9,0,-1
 161.626 1400.27 l 1,1,-1
 558.044 1534.82 l 1,2,-1
 459.697 1534.73 l 1,3,-1
 62.2148 1400.12 l 9,0,-1
16 367 m 2,4,-1
 16 1016 l 2,5,6
 16 1129 16 1129 43 1200.5 c 128,-1,7
 70 1272 70 1272 113 1312 c 128,-1,8
 156 1352 156 1352 208 1366 c 128,-1,9
 260 1380 260 1380 311 1380 c 0,10,11
 360 1380 360 1380 412.5 1366 c 128,-1,12
 465 1352 465 1352 508 1312 c 128,-1,13
 551 1272 551 1272 577.5 1200 c 128,-1,14
 604 1128 604 1128 604 1016 c 2,15,-1
 604 983 l 1,16,-1
 539 983 l 1,17,-1
 539 1016 l 2,18,19
 539 1174 539 1174 481 1245 c 0,20,21
 422 1317 422 1317 311 1317 c 0,22,23
 198 1317 198 1317 139 1245 c 1,24,25
 82 1173 82 1173 82 1016 c 2,26,-1
 82 367 l 2,27,28
 82 209 82 209 141 135 c 1,29,30
 196 63 196 63 311 63 c 0,31,32
 422 63 422 63 481 135 c 1,33,34
 538 211 538 211 539 367 c 1,35,-1
 539 399 l 1,36,-1
 604 399 l 1,37,-1
 604 367 l 2,38,39
 604 252 604 252 577.5 181.5 c 128,-1,40
 551 111 551 111 508 70 c 128,-1,41
 465 29 465 29 412.5 14.5 c 128,-1,42
 360 0 360 0 311 0 c 0,43,44
 260 0 260 0 208 14.5 c 128,-1,45
 156 29 156 29 113 70 c 128,-1,46
 70 111 70 111 43 181.5 c 128,-1,47
 16 252 16 252 16 367 c 2,4,-1
EndSplineSet
EndChar

StartChar: AE
Encoding: 198 198 189
Width: 802
Flags: W
LayerCount: 2
Fore
SplineSet
362 0 m 1,0,-1
 362 1380 l 1,1,-1
 374.5 1380 l 1,2,-1
 400.5 1380 l 1,3,-1
 782 1380 l 1,4,-1
 782 1317 l 1,5,-1
 424 1317 l 1,6,-1
 424 723 l 1,7,-1
 782 723 l 1,8,-1
 782 659 l 1,9,-1
 424 659 l 1,10,-1
 424 63 l 1,11,-1
 782 63 l 1,12,-1
 782 0 l 1,13,-1
 394.5 0 l 1,14,-1
 367 0 l 1,15,-1
 362 0 l 1,0,-1
20 0 m 1,16,-1
 129 479 l 1,17,-1
 129 485 l 1,18,-1
 338 1380 l 1,19,-1
 389 1380 l 1,20,-1
 425 0 l 1,21,-1
 362 0 l 1,22,-1
 362 422 l 1,23,-1
 180 422 l 1,24,-1
 86 0 l 1,25,-1
 20 0 l 1,16,-1
197 485 m 1,26,-1
 362 485 l 1,27,-1
 362 1206 l 1,28,-1
 197 485 l 1,26,-1
EndSplineSet
EndChar

StartChar: ae
Encoding: 230 230 190
Width: 802
Flags: W
LayerCount: 2
Fore
SplineSet
362 0 m 1,0,-1
 362 1380 l 1,1,-1
 374.5 1380 l 1,2,-1
 400.5 1380 l 1,3,-1
 782 1380 l 1,4,-1
 782 1317 l 1,5,-1
 424 1317 l 1,6,-1
 424 723 l 1,7,-1
 782 723 l 1,8,-1
 782 659 l 1,9,-1
 424 659 l 1,10,-1
 424 63 l 1,11,-1
 782 63 l 1,12,-1
 782 0 l 1,13,-1
 394.5 0 l 1,14,-1
 367 0 l 1,15,-1
 362 0 l 1,0,-1
20 0 m 1,16,-1
 129 479 l 1,17,-1
 129 485 l 1,18,-1
 338 1380 l 1,19,-1
 389 1380 l 1,20,-1
 425 0 l 1,21,-1
 362 0 l 1,22,-1
 362 422 l 1,23,-1
 180 422 l 1,24,-1
 86 0 l 1,25,-1
 20 0 l 1,16,-1
197 485 m 1,26,-1
 362 485 l 1,27,-1
 362 1206 l 1,28,-1
 197 485 l 1,26,-1
EndSplineSet
EndChar

StartChar: uni030C
Encoding: 780 780 191
Width: 620
Flags: W
LayerCount: 2
Fore
SplineSet
270.125 1417.98 m 5,0,-1
 80.0273 1534.67 l 5,1,-1
 20.3809 1534.82 l 21,2,-1
 241.38 1400.12 l 5,3,-1
 300.389 1400.21 l 5,4,-1
 516.878 1534.82 l 13,5,-1
 457.231 1534.67 l 5,6,-1
 270.125 1417.98 l 5,0,-1
EndSplineSet
EndChar

StartChar: Ccaron
Encoding: 268 268 192
Width: 704
Flags: W
LayerCount: 2
Fore
SplineSet
311.125 1417.98 m 5,0,-1
 121.027 1534.67 l 5,1,-1
 61.3809 1534.82 l 21,2,-1
 282.38 1400.12 l 5,3,-1
 341.389 1400.21 l 5,4,-1
 557.878 1534.82 l 13,5,-1
 498.231 1534.67 l 5,6,-1
 311.125 1417.98 l 5,0,-1
16 367 m 2,7,-1
 16 1016 l 2,8,9
 16 1129 16 1129 43 1200.5 c 128,-1,10
 70 1272 70 1272 113 1312 c 128,-1,11
 156 1352 156 1352 208 1366 c 128,-1,12
 260 1380 260 1380 311 1380 c 0,13,14
 360 1380 360 1380 412.5 1366 c 128,-1,15
 465 1352 465 1352 508 1312 c 128,-1,16
 551 1272 551 1272 577.5 1200 c 128,-1,17
 604 1128 604 1128 604 1016 c 2,18,-1
 604 983 l 1,19,-1
 539 983 l 1,20,-1
 539 1016 l 2,21,22
 539 1174 539 1174 481 1245 c 0,23,24
 422 1317 422 1317 311 1317 c 0,25,26
 198 1317 198 1317 139 1245 c 1,27,28
 82 1173 82 1173 82 1016 c 2,29,-1
 82 367 l 2,30,31
 82 209 82 209 141 135 c 1,32,33
 196 63 196 63 311 63 c 0,34,35
 422 63 422 63 481 135 c 1,36,37
 538 211 538 211 539 367 c 1,38,-1
 539 399 l 1,39,-1
 604 399 l 1,40,-1
 604 367 l 2,41,42
 604 252 604 252 577.5 181.5 c 128,-1,43
 551 111 551 111 508 70 c 128,-1,44
 465 29 465 29 412.5 14.5 c 128,-1,45
 360 0 360 0 311 0 c 0,46,47
 260 0 260 0 208 14.5 c 128,-1,48
 156 29 156 29 113 70 c 128,-1,49
 70 111 70 111 43 181.5 c 128,-1,50
 16 252 16 252 16 367 c 2,7,-1
EndSplineSet
EndChar

StartChar: ccaron
Encoding: 269 269 193
Width: 704
Flags: W
LayerCount: 2
Fore
SplineSet
311.125 1417.98 m 5,0,-1
 121.027 1534.67 l 5,1,-1
 61.3809 1534.82 l 21,2,-1
 282.38 1400.12 l 5,3,-1
 341.389 1400.21 l 5,4,-1
 557.878 1534.82 l 13,5,-1
 498.231 1534.67 l 5,6,-1
 311.125 1417.98 l 5,0,-1
16 367 m 2,7,-1
 16 1016 l 2,8,9
 16 1129 16 1129 43 1200.5 c 128,-1,10
 70 1272 70 1272 113 1312 c 128,-1,11
 156 1352 156 1352 208 1366 c 128,-1,12
 260 1380 260 1380 311 1380 c 0,13,14
 360 1380 360 1380 412.5 1366 c 128,-1,15
 465 1352 465 1352 508 1312 c 128,-1,16
 551 1272 551 1272 577.5 1200 c 128,-1,17
 604 1128 604 1128 604 1016 c 2,18,-1
 604 983 l 1,19,-1
 539 983 l 1,20,-1
 539 1016 l 2,21,22
 539 1174 539 1174 481 1245 c 0,23,24
 422 1317 422 1317 311 1317 c 0,25,26
 198 1317 198 1317 139 1245 c 1,27,28
 82 1173 82 1173 82 1016 c 2,29,-1
 82 367 l 2,30,31
 82 209 82 209 141 135 c 1,32,33
 196 63 196 63 311 63 c 0,34,35
 422 63 422 63 481 135 c 1,36,37
 538 211 538 211 539 367 c 1,38,-1
 539 399 l 1,39,-1
 604 399 l 1,40,-1
 604 367 l 2,41,42
 604 252 604 252 577.5 181.5 c 128,-1,43
 551 111 551 111 508 70 c 128,-1,44
 465 29 465 29 412.5 14.5 c 128,-1,45
 360 0 360 0 311 0 c 0,46,47
 260 0 260 0 208 14.5 c 128,-1,48
 156 29 156 29 113 70 c 128,-1,49
 70 111 70 111 43 181.5 c 128,-1,50
 16 252 16 252 16 367 c 2,7,-1
EndSplineSet
EndChar

StartChar: uni01CD
Encoding: 461 461 194
Width: 802
Flags: W
LayerCount: 2
Fore
SplineSet
362.125 1417.98 m 1,0,-1
 172.027 1534.67 l 1,1,-1
 112.381 1534.82 l 17,2,-1
 333.38 1400.12 l 1,3,-1
 392.389 1400.21 l 1,4,-1
 608.878 1534.82 l 9,5,-1
 549.231 1534.67 l 1,6,-1
 362.125 1417.98 l 1,0,-1
20 0 m 1,7,-1
 129 479 l 1,8,-1
 129 485 l 1,9,-1
 338 1380 l 1,10,-1
 389 1380 l 1,11,-1
 705 0 l 1,12,-1
 639 0 l 1,13,-1
 545 422 l 1,14,-1
 180 422 l 1,15,-1
 86 0 l 1,16,-1
 20 0 l 1,7,-1
197 485 m 1,17,-1
 530 485 l 1,18,-1
 362 1206 l 1,19,-1
 197 485 l 1,17,-1
EndSplineSet
EndChar

StartChar: uni01CE
Encoding: 462 462 195
Width: 802
Flags: W
LayerCount: 2
Fore
SplineSet
362.125 1417.98 m 1,0,-1
 172.027 1534.67 l 1,1,-1
 112.381 1534.82 l 17,2,-1
 333.38 1400.12 l 1,3,-1
 392.389 1400.21 l 1,4,-1
 608.878 1534.82 l 9,5,-1
 549.231 1534.67 l 1,6,-1
 362.125 1417.98 l 1,0,-1
20 0 m 1,7,-1
 129 479 l 1,8,-1
 129 485 l 1,9,-1
 338 1380 l 1,10,-1
 389 1380 l 1,11,-1
 705 0 l 1,12,-1
 639 0 l 1,13,-1
 545 422 l 1,14,-1
 180 422 l 1,15,-1
 86 0 l 1,16,-1
 20 0 l 1,7,-1
197 485 m 1,17,-1
 530 485 l 1,18,-1
 362 1206 l 1,19,-1
 197 485 l 1,17,-1
EndSplineSet
EndChar

StartChar: uni01CF
Encoding: 463 463 196
Width: 223
Flags: W
LayerCount: 2
Fore
SplineSet
81.1074 1417.98 m 5,0,-1
 20.2764 1534.67 l 5,1,-1
 1.19043 1534.82 l 21,2,-1
 71.9092 1400.12 l 5,3,-1
 90.792 1400.21 l 5,4,-1
 160.068 1534.82 l 13,5,-1
 140.982 1534.67 l 5,6,-1
 81.1074 1417.98 l 5,0,-1
47 0 m 1,7,-1
 47 1380 l 1,8,-1
 111 1380 l 1,9,-1
 111 0 l 1,10,-1
 47 0 l 1,7,-1
EndSplineSet
EndChar

StartChar: uni01D0
Encoding: 464 464 197
Width: 223
Flags: W
LayerCount: 2
Fore
SplineSet
81.1074 1417.98 m 5,0,-1
 20.2764 1534.67 l 5,1,-1
 1.19043 1534.82 l 21,2,-1
 71.9092 1400.12 l 5,3,-1
 90.792 1400.21 l 5,4,-1
 160.068 1534.82 l 13,5,-1
 140.982 1534.67 l 5,6,-1
 81.1074 1417.98 l 5,0,-1
47 0 m 1,7,-1
 47 1380 l 1,8,-1
 111 1380 l 1,9,-1
 111 0 l 1,10,-1
 47 0 l 1,7,-1
EndSplineSet
EndChar

StartChar: uni01D1
Encoding: 465 465 198
Width: 729
Flags: W
LayerCount: 2
Fore
SplineSet
313.125 1417.98 m 5,0,-1
 123.027 1534.67 l 5,1,-1
 63.3809 1534.82 l 21,2,-1
 284.38 1400.12 l 5,3,-1
 343.389 1400.21 l 5,4,-1
 559.878 1534.82 l 13,5,-1
 500.231 1534.67 l 5,6,-1
 313.125 1417.98 l 5,0,-1
20 367 m 2,7,-1
 20 1016 l 2,8,9
 20 1192 20 1192 92 1286 c 1,10,11
 168 1380 168 1380 313 1380 c 0,12,13
 460 1380 460 1380 535 1286 c 0,14,15
 609 1194 609 1194 608 1016 c 1,16,-1
 608 367 l 2,17,18
 608 252 608 252 581.5 181.5 c 128,-1,19
 555 111 555 111 512 70 c 128,-1,20
 469 29 469 29 417 14.5 c 128,-1,21
 365 0 365 0 313 0 c 0,22,23
 264 0 264 0 212 14.5 c 128,-1,24
 160 29 160 29 117 70 c 128,-1,25
 74 111 74 111 47 181.5 c 128,-1,26
 20 252 20 252 20 367 c 2,7,-1
84 367 m 2,27,28
 84 211 84 211 143 135 c 0,29,30
 198 63 198 63 313 63 c 0,31,32
 426 63 426 63 485 135 c 1,33,34
 542 207 542 207 543 367 c 1,35,-1
 543 1016 l 2,36,37
 543 1174 543 1174 485.5 1245.5 c 128,-1,38
 428 1317 428 1317 313 1317 c 0,39,40
 196 1317 196 1317 143 1245 c 1,41,42
 84 1169 84 1169 84 1016 c 2,43,-1
 84 367 l 2,27,28
EndSplineSet
EndChar

StartChar: uni01D2
Encoding: 466 466 199
Width: 729
Flags: W
LayerCount: 2
Fore
SplineSet
313.125 1417.98 m 5,0,-1
 123.027 1534.67 l 5,1,-1
 63.3809 1534.82 l 21,2,-1
 284.38 1400.12 l 5,3,-1
 343.389 1400.21 l 5,4,-1
 559.878 1534.82 l 13,5,-1
 500.231 1534.67 l 5,6,-1
 313.125 1417.98 l 5,0,-1
20 367 m 2,7,-1
 20 1016 l 2,8,9
 20 1192 20 1192 92 1286 c 1,10,11
 168 1380 168 1380 313 1380 c 0,12,13
 460 1380 460 1380 535 1286 c 0,14,15
 609 1194 609 1194 608 1016 c 1,16,-1
 608 367 l 2,17,18
 608 252 608 252 581.5 181.5 c 128,-1,19
 555 111 555 111 512 70 c 128,-1,20
 469 29 469 29 417 14.5 c 128,-1,21
 365 0 365 0 313 0 c 0,22,23
 264 0 264 0 212 14.5 c 128,-1,24
 160 29 160 29 117 70 c 128,-1,25
 74 111 74 111 47 181.5 c 128,-1,26
 20 252 20 252 20 367 c 2,7,-1
84 367 m 2,27,28
 84 211 84 211 143 135 c 0,29,30
 198 63 198 63 313 63 c 0,31,32
 426 63 426 63 485 135 c 1,33,34
 542 207 542 207 543 367 c 1,35,-1
 543 1016 l 2,36,37
 543 1174 543 1174 485.5 1245.5 c 128,-1,38
 428 1317 428 1317 313 1317 c 0,39,40
 196 1317 196 1317 143 1245 c 1,41,42
 84 1169 84 1169 84 1016 c 2,43,-1
 84 367 l 2,27,28
EndSplineSet
EndChar

StartChar: uni01D3
Encoding: 467 467 200
Width: 712
Flags: W
LayerCount: 2
Fore
SplineSet
289.125 1417.98 m 1,0,-1
 99.0273 1534.67 l 1,1,-1
 39.3809 1534.82 l 17,2,-1
 260.38 1400.12 l 1,3,-1
 319.389 1400.21 l 1,4,-1
 535.878 1534.82 l 9,5,-1
 476.231 1534.67 l 1,6,-1
 289.125 1417.98 l 1,0,-1
14 340 m 2,7,-1
 14 1382 l 1,8,-1
 78 1382 l 1,9,-1
 78 340 l 2,10,11
 78 248 78 248 98.5 193.5 c 128,-1,12
 119 139 119 139 149.5 110.5 c 128,-1,13
 180 82 180 82 217 74 c 128,-1,14
 254 66 254 66 289 66 c 0,15,16
 322 66 322 66 358.5 74 c 128,-1,17
 395 82 395 82 426 110.5 c 128,-1,18
 457 139 457 139 477.5 193.5 c 128,-1,19
 498 248 498 248 498 340 c 2,20,-1
 498 1382 l 1,21,-1
 561 1382 l 1,22,-1
 561 340 l 2,23,24
 561 236 561 236 535.5 169 c 128,-1,25
 510 102 510 102 471 65.5 c 128,-1,26
 432 29 432 29 383 15.5 c 128,-1,27
 334 2 334 2 289 2 c 0,28,29
 242 2 242 2 193.5 15.5 c 128,-1,30
 145 29 145 29 105.5 65.5 c 128,-1,31
 66 102 66 102 40 169 c 128,-1,32
 14 236 14 236 14 340 c 2,7,-1
EndSplineSet
EndChar

StartChar: uni01D4
Encoding: 468 468 201
Width: 712
Flags: W
LayerCount: 2
Fore
SplineSet
289.125 1417.98 m 1,0,-1
 99.0273 1534.67 l 1,1,-1
 39.3809 1534.82 l 17,2,-1
 260.38 1400.12 l 1,3,-1
 319.389 1400.21 l 1,4,-1
 535.878 1534.82 l 9,5,-1
 476.231 1534.67 l 1,6,-1
 289.125 1417.98 l 1,0,-1
14 340 m 2,7,-1
 14 1382 l 1,8,-1
 78 1382 l 1,9,-1
 78 340 l 2,10,11
 78 248 78 248 98.5 193.5 c 128,-1,12
 119 139 119 139 149.5 110.5 c 128,-1,13
 180 82 180 82 217 74 c 128,-1,14
 254 66 254 66 289 66 c 0,15,16
 322 66 322 66 358.5 74 c 128,-1,17
 395 82 395 82 426 110.5 c 128,-1,18
 457 139 457 139 477.5 193.5 c 128,-1,19
 498 248 498 248 498 340 c 2,20,-1
 498 1382 l 1,21,-1
 561 1382 l 1,22,-1
 561 340 l 2,23,24
 561 236 561 236 535.5 169 c 128,-1,25
 510 102 510 102 471 65.5 c 128,-1,26
 432 29 432 29 383 15.5 c 128,-1,27
 334 2 334 2 289 2 c 0,28,29
 242 2 242 2 193.5 15.5 c 128,-1,30
 145 29 145 29 105.5 65.5 c 128,-1,31
 66 102 66 102 40 169 c 128,-1,32
 14 236 14 236 14 340 c 2,7,-1
EndSplineSet
EndChar

StartChar: Ecaron
Encoding: 282 282 202
Width: 620
Flags: W
LayerCount: 2
Fore
SplineSet
270.125 1417.98 m 5,0,-1
 80.0273 1534.67 l 5,1,-1
 20.3809 1534.82 l 21,2,-1
 241.38 1400.12 l 5,3,-1
 300.389 1400.21 l 5,4,-1
 516.878 1534.82 l 13,5,-1
 457.231 1534.67 l 5,6,-1
 270.125 1417.98 l 5,0,-1
20 0 m 1,7,-1
 20 1380 l 1,8,-1
 516 1380 l 1,9,-1
 516 1317 l 1,10,-1
 84 1317 l 1,11,-1
 84 723 l 1,12,-1
 516 723 l 1,13,-1
 516 659 l 1,14,-1
 84 659 l 1,15,-1
 84 63 l 1,16,-1
 516 63 l 1,17,-1
 516 0 l 1,18,-1
 20 0 l 1,7,-1
EndSplineSet
EndChar

StartChar: ecaron
Encoding: 283 283 203
Width: 620
Flags: W
LayerCount: 2
Fore
SplineSet
270.125 1417.98 m 5,0,-1
 80.0273 1534.67 l 5,1,-1
 20.3809 1534.82 l 21,2,-1
 241.38 1400.12 l 5,3,-1
 300.389 1400.21 l 5,4,-1
 516.878 1534.82 l 13,5,-1
 457.231 1534.67 l 5,6,-1
 270.125 1417.98 l 5,0,-1
20 0 m 1,7,-1
 20 1380 l 1,8,-1
 516 1380 l 1,9,-1
 516 1317 l 1,10,-1
 84 1317 l 1,11,-1
 84 723 l 1,12,-1
 516 723 l 1,13,-1
 516 659 l 1,14,-1
 84 659 l 1,15,-1
 84 63 l 1,16,-1
 516 63 l 1,17,-1
 516 0 l 1,18,-1
 20 0 l 1,7,-1
EndSplineSet
EndChar

StartChar: Gcircumflex
Encoding: 284 284 204
Width: 720
Flags: W
LayerCount: 2
Fore
SplineSet
315.125 1516.96 m 1,0,-1
 125.027 1400.27 l 1,1,-1
 65.3809 1400.12 l 17,2,-1
 286.38 1534.82 l 1,3,-1
 345.389 1534.73 l 1,4,-1
 561.878 1400.12 l 9,5,-1
 502.231 1400.27 l 1,6,-1
 315.125 1516.96 l 1,0,-1
20 365 m 2,7,-1
 20 1018 l 2,8,9
 20 1196 20 1196 92 1286 c 0,10,11
 168 1380 168 1380 315.5 1380 c 128,-1,12
 463 1380 463 1380 537 1286 c 1,13,14
 611 1196 611 1196 610 1018 c 1,15,-1
 610 985 l 1,16,-1
 545 985 l 1,17,-1
 545 1018 l 2,18,19
 545 1118 545 1118 522.5 1177.5 c 128,-1,20
 500 1237 500 1237 466 1267.5 c 128,-1,21
 432 1298 432 1298 392 1307.5 c 128,-1,22
 352 1317 352 1317 315.5 1317 c 128,-1,23
 279 1317 279 1317 238 1307.5 c 128,-1,24
 197 1298 197 1298 163 1267.5 c 128,-1,25
 129 1237 129 1237 106.5 1177.5 c 128,-1,26
 84 1118 84 1118 84 1018 c 2,27,-1
 84 365 l 2,28,29
 84 211 84 211 143 135 c 0,30,31
 198 63 198 63 315 63 c 0,32,33
 430 63 430 63 485 135 c 0,34,35
 544 211 544 211 545 365 c 1,36,-1
 545 545 l 1,37,-1
 246 545 l 1,38,-1
 246 610 l 1,39,-1
 610 610 l 1,40,-1
 610 365 l 2,41,42
 610 187 610 187 537 94 c 0,43,44
 463 0 463 0 315.5 0 c 128,-1,45
 168 0 168 0 92 94 c 1,46,47
 20 189 20 189 20 365 c 2,7,-1
EndSplineSet
EndChar

StartChar: gcircumflex
Encoding: 285 285 205
Width: 720
Flags: W
LayerCount: 2
Fore
SplineSet
315.125 1516.96 m 1,0,-1
 125.027 1400.27 l 1,1,-1
 65.3809 1400.12 l 17,2,-1
 286.38 1534.82 l 1,3,-1
 345.389 1534.73 l 1,4,-1
 561.878 1400.12 l 9,5,-1
 502.231 1400.27 l 1,6,-1
 315.125 1516.96 l 1,0,-1
20 365 m 2,7,-1
 20 1018 l 2,8,9
 20 1196 20 1196 92 1286 c 0,10,11
 168 1380 168 1380 315.5 1380 c 128,-1,12
 463 1380 463 1380 537 1286 c 1,13,14
 611 1196 611 1196 610 1018 c 1,15,-1
 610 985 l 1,16,-1
 545 985 l 1,17,-1
 545 1018 l 2,18,19
 545 1118 545 1118 522.5 1177.5 c 128,-1,20
 500 1237 500 1237 466 1267.5 c 128,-1,21
 432 1298 432 1298 392 1307.5 c 128,-1,22
 352 1317 352 1317 315.5 1317 c 128,-1,23
 279 1317 279 1317 238 1307.5 c 128,-1,24
 197 1298 197 1298 163 1267.5 c 128,-1,25
 129 1237 129 1237 106.5 1177.5 c 128,-1,26
 84 1118 84 1118 84 1018 c 2,27,-1
 84 365 l 2,28,29
 84 211 84 211 143 135 c 0,30,31
 198 63 198 63 315 63 c 0,32,33
 430 63 430 63 485 135 c 0,34,35
 544 211 544 211 545 365 c 1,36,-1
 545 545 l 1,37,-1
 246 545 l 1,38,-1
 246 610 l 1,39,-1
 610 610 l 1,40,-1
 610 365 l 2,41,42
 610 187 610 187 537 94 c 0,43,44
 463 0 463 0 315.5 0 c 128,-1,45
 168 0 168 0 92 94 c 1,46,47
 20 189 20 189 20 365 c 2,7,-1
EndSplineSet
EndChar

StartChar: Hcircumflex
Encoding: 292 292 206
Width: 704
Flags: W
LayerCount: 2
Fore
SplineSet
295.125 1516.96 m 1,0,-1
 105.027 1400.27 l 1,1,-1
 45.3809 1400.12 l 17,2,-1
 266.38 1534.82 l 1,3,-1
 325.389 1534.73 l 1,4,-1
 541.878 1400.12 l 9,5,-1
 482.231 1400.27 l 1,6,-1
 295.125 1516.96 l 1,0,-1
20 0 m 1,7,-1
 20 1380 l 1,8,-1
 86 1380 l 1,9,-1
 86 721 l 1,10,-1
 504 721 l 1,11,-1
 504 1380 l 1,12,-1
 569 1380 l 1,13,-1
 569 0 l 1,14,-1
 504 0 l 1,15,-1
 504 657 l 1,16,-1
 86 657 l 1,17,-1
 86 0 l 1,18,-1
 20 0 l 1,7,-1
EndSplineSet
EndChar

StartChar: hcircumflex
Encoding: 293 293 207
Width: 704
Flags: W
LayerCount: 2
Fore
SplineSet
295.125 1516.96 m 1,0,-1
 105.027 1400.27 l 1,1,-1
 45.3809 1400.12 l 17,2,-1
 266.38 1534.82 l 1,3,-1
 325.389 1534.73 l 1,4,-1
 541.878 1400.12 l 9,5,-1
 482.231 1400.27 l 1,6,-1
 295.125 1516.96 l 1,0,-1
20 0 m 1,7,-1
 20 1380 l 1,8,-1
 86 1380 l 1,9,-1
 86 721 l 1,10,-1
 504 721 l 1,11,-1
 504 1380 l 1,12,-1
 569 1380 l 1,13,-1
 569 0 l 1,14,-1
 504 0 l 1,15,-1
 504 657 l 1,16,-1
 86 657 l 1,17,-1
 86 0 l 1,18,-1
 20 0 l 1,7,-1
EndSplineSet
EndChar

StartChar: Scedilla
Encoding: 350 350 208
Width: 712
Flags: W
LayerCount: 2
Fore
SplineSet
266 5 m 1,0,1
 266 -115.6 l 1,2,3
 336 -74 336 -74 456 -74 c 0,4,5
 581 -74 581 -74 651 -111.6 c 1,6,7
 712 -147.6 712 -147.6 712 -215.6 c 2,8,-1
 712 -336 l 2,9,10
 712 -364.8 712 -364.8 696 -390.4 c 128,-1,11
 680 -416 680 -416 651 -434.8 c 0,12,13
 581 -480 581 -480 455 -480 c 128,-1,14
 329 -480 329 -480 264 -441.6 c 0,15,16
 200 -404 200 -404 200 -336 c 2,17,-1
 200 -326.8 l 1,18,-1
 266 -326.8 l 1,19,-1
 266 -336 l 2,20,21
 266 -398.4 266 -398.4 317 -426.8 c 1,22,23
 362 -454.8 362 -454.8 456 -454.8 c 0,24,25
 546 -454.8 546 -454.8 596 -421.2 c 1,26,27
 623 -404.8 623 -404.8 635 -383 c 128,-1,28
 647 -361.2 647 -361.2 647 -336 c 2,29,-1
 647 -215.6 l 2,30,31
 647 -154.8 647 -154.8 598 -126.4 c 0,32,33
 553 -100 553 -100 456 -100 c 0,34,35
 366 -100 366 -100 317 -131.2 c 0,36,37
 266 -163.2 266 -163.2 266 -215.6 c 2,38,-1
 266 -218.8 l 1,39,-1
 266 -220.4 l 1,40,-1
 200 -220.4 l 1,41,-1
 200 -218.8 l 1,42,-1
 200.5 -329.1 l 1,43,-1
 200.5 20.5 l 1,44,45
 133.79 43.9277 133.79 43.9277 94 96 c 1,46,47
 20 184 20 184 20 367 c 2,48,-1
 20 397 l 1,49,-1
 84 397 l 1,50,-1
 84 367 l 2,51,52
 84 265 84 265 106.5 205 c 128,-1,53
 129 145 129 145 163 114.5 c 128,-1,54
 197 84 197 84 238 75 c 128,-1,55
 279 66 279 66 315 66 c 0,56,57
 426 66 426 66 486.5 142.5 c 128,-1,58
 547 219 547 219 547 356 c 0,59,60
 547 430 547 430 521.5 480 c 128,-1,61
 496 530 496 530 460 563 c 128,-1,62
 424 596 424 596 385 614.5 c 0,63,64
 340.62 635.552 340.62 635.552 322 643 c 2,65,-1
 287 657 l 2,66,67
 253 670.6 253 670.6 211 693 c 0,68,69
 166 717 166 717 124 759 c 128,-1,70
 82 801 82 801 51 863.5 c 128,-1,71
 20 926 20 926 20 1016 c 0,72,73
 20 1172 20 1172 92 1272 c 1,74,75
 174 1383 174 1383 315 1382 c 1,76,77
 460 1382 460 1382 539 1286 c 1,78,79
 613 1194 613 1194 612 1016 c 1,80,-1
 612 983 l 1,81,-1
 547 983 l 1,82,-1
 547 1016 l 2,83,84
 547 1172 547 1172 487 1247 c 0,85,86
 432 1317 432 1317 315 1317 c 0,87,88
 204 1317 204 1317 145 1233 c 1,89,90
 84 1149 84 1149 84 1016 c 0,91,92
 84 942 84 942 108.5 891 c 128,-1,93
 133 840 133 840 169 805 c 128,-1,94
 205 770 205 770 244 749.5 c 128,-1,95
 283 729 283 729 313 717 c 1,96,-1
 346 702 l 1,97,98
 373 692 373 692 418 670.5 c 128,-1,99
 463 649 463 649 506 609 c 128,-1,100
 549 569 549 569 580.5 507.5 c 128,-1,101
 612 446 612 446 612 356 c 0,102,103
 612 202 612 202 539 106 c 0,104,105
 459 2 459 2 328 2 c 0,106,107
 272.129 2 272.129 2 266 5 c 1,0,1
EndSplineSet
EndChar

StartChar: scedilla
Encoding: 351 351 209
Width: 712
Flags: W
LayerCount: 2
Fore
SplineSet
266 5 m 1,0,1
 266 -115.6 l 1,2,3
 336 -74 336 -74 456 -74 c 0,4,5
 581 -74 581 -74 651 -111.6 c 1,6,7
 712 -147.6 712 -147.6 712 -215.6 c 2,8,-1
 712 -336 l 2,9,10
 712 -364.8 712 -364.8 696 -390.4 c 128,-1,11
 680 -416 680 -416 651 -434.8 c 0,12,13
 581 -480 581 -480 455 -480 c 128,-1,14
 329 -480 329 -480 264 -441.6 c 0,15,16
 200 -404 200 -404 200 -336 c 2,17,-1
 200 -326.8 l 1,18,-1
 266 -326.8 l 1,19,-1
 266 -336 l 2,20,21
 266 -398.4 266 -398.4 317 -426.8 c 1,22,23
 362 -454.8 362 -454.8 456 -454.8 c 0,24,25
 546 -454.8 546 -454.8 596 -421.2 c 1,26,27
 623 -404.8 623 -404.8 635 -383 c 128,-1,28
 647 -361.2 647 -361.2 647 -336 c 2,29,-1
 647 -215.6 l 2,30,31
 647 -154.8 647 -154.8 598 -126.4 c 0,32,33
 553 -100 553 -100 456 -100 c 0,34,35
 366 -100 366 -100 317 -131.2 c 0,36,37
 266 -163.2 266 -163.2 266 -215.6 c 2,38,-1
 266 -218.8 l 1,39,-1
 266 -220.4 l 1,40,-1
 200 -220.4 l 1,41,-1
 200 -218.8 l 1,42,-1
 200.5 -329.1 l 1,43,-1
 200.5 20.5 l 1,44,45
 133.79 43.9277 133.79 43.9277 94 96 c 1,46,47
 20 184 20 184 20 367 c 2,48,-1
 20 397 l 1,49,-1
 84 397 l 1,50,-1
 84 367 l 2,51,52
 84 265 84 265 106.5 205 c 128,-1,53
 129 145 129 145 163 114.5 c 128,-1,54
 197 84 197 84 238 75 c 128,-1,55
 279 66 279 66 315 66 c 0,56,57
 426 66 426 66 486.5 142.5 c 128,-1,58
 547 219 547 219 547 356 c 0,59,60
 547 430 547 430 521.5 480 c 128,-1,61
 496 530 496 530 460 563 c 128,-1,62
 424 596 424 596 385 614.5 c 0,63,64
 340.62 635.552 340.62 635.552 322 643 c 2,65,-1
 287 657 l 2,66,67
 253 670.6 253 670.6 211 693 c 0,68,69
 166 717 166 717 124 759 c 128,-1,70
 82 801 82 801 51 863.5 c 128,-1,71
 20 926 20 926 20 1016 c 0,72,73
 20 1172 20 1172 92 1272 c 1,74,75
 174 1383 174 1383 315 1382 c 1,76,77
 460 1382 460 1382 539 1286 c 1,78,79
 613 1194 613 1194 612 1016 c 1,80,-1
 612 983 l 1,81,-1
 547 983 l 1,82,-1
 547 1016 l 2,83,84
 547 1172 547 1172 487 1247 c 0,85,86
 432 1317 432 1317 315 1317 c 0,87,88
 204 1317 204 1317 145 1233 c 1,89,90
 84 1149 84 1149 84 1016 c 0,91,92
 84 942 84 942 108.5 891 c 128,-1,93
 133 840 133 840 169 805 c 128,-1,94
 205 770 205 770 244 749.5 c 128,-1,95
 283 729 283 729 313 717 c 1,96,-1
 346 702 l 1,97,98
 373 692 373 692 418 670.5 c 128,-1,99
 463 649 463 649 506 609 c 128,-1,100
 549 569 549 569 580.5 507.5 c 128,-1,101
 612 446 612 446 612 356 c 0,102,103
 612 202 612 202 539 106 c 0,104,105
 459 2 459 2 328 2 c 0,106,107
 272.129 2 272.129 2 266 5 c 1,0,1
EndSplineSet
EndChar

StartChar: Scaron
Encoding: 352 352 210
Width: 712
Flags: W
LayerCount: 2
Fore
SplineSet
315.125 1417.98 m 1,0,-1
 125.027 1534.67 l 1,1,-1
 65.3809 1534.82 l 17,2,-1
 286.38 1400.12 l 1,3,-1
 345.389 1400.21 l 1,4,-1
 561.878 1534.82 l 9,5,-1
 502.231 1534.67 l 1,6,-1
 315.125 1417.98 l 1,0,-1
20 1016 m 0,7,8
 20 1172 20 1172 92 1272 c 1,9,10
 174 1383 174 1383 315 1382 c 1,11,12
 460 1382 460 1382 539 1286 c 1,13,14
 613 1194 613 1194 612 1016 c 1,15,-1
 612 983 l 1,16,-1
 547 983 l 1,17,-1
 547 1016 l 2,18,19
 547 1172 547 1172 487 1247 c 0,20,21
 432 1317 432 1317 315 1317 c 0,22,23
 204 1317 204 1317 145 1233 c 1,24,25
 84 1149 84 1149 84 1016 c 0,26,27
 84 942 84 942 108.5 891 c 128,-1,28
 133 840 133 840 169 805 c 128,-1,29
 205 770 205 770 244 749.5 c 128,-1,30
 283 729 283 729 313 717 c 1,31,-1
 346 702 l 1,32,33
 373 692 373 692 418 670.5 c 128,-1,34
 463 649 463 649 506 609 c 128,-1,35
 549 569 549 569 580.5 507.5 c 128,-1,36
 612 446 612 446 612 356 c 0,37,38
 612 202 612 202 539 106 c 0,39,40
 459 2 459 2 315 2 c 0,41,42
 168 2 168 2 94 96 c 1,43,44
 20 184 20 184 20 367 c 2,45,-1
 20 397 l 1,46,-1
 84 397 l 1,47,-1
 84 367 l 2,48,49
 84 265 84 265 106.5 205 c 128,-1,50
 129 145 129 145 163 114.5 c 128,-1,51
 197 84 197 84 238 75 c 128,-1,52
 279 66 279 66 315 66 c 0,53,54
 426 66 426 66 486.5 142.5 c 128,-1,55
 547 219 547 219 547 356 c 0,56,57
 547 430 547 430 521.5 480 c 128,-1,58
 496 530 496 530 460 563 c 128,-1,59
 424 596 424 596 385 614.5 c 128,-1,60
 346 633 346 633 322 643 c 2,61,-1
 287 657 l 2,62,63
 256 669 256 669 211 693 c 128,-1,64
 166 717 166 717 124 759 c 128,-1,65
 82 801 82 801 51 863.5 c 128,-1,66
 20 926 20 926 20 1016 c 0,7,8
EndSplineSet
EndChar

StartChar: scaron
Encoding: 353 353 211
Width: 712
Flags: W
LayerCount: 2
Fore
SplineSet
315.125 1417.98 m 1,0,-1
 125.027 1534.67 l 1,1,-1
 65.3809 1534.82 l 17,2,-1
 286.38 1400.12 l 1,3,-1
 345.389 1400.21 l 1,4,-1
 561.878 1534.82 l 9,5,-1
 502.231 1534.67 l 1,6,-1
 315.125 1417.98 l 1,0,-1
20 1016 m 0,7,8
 20 1172 20 1172 92 1272 c 1,9,10
 174 1383 174 1383 315 1382 c 1,11,12
 460 1382 460 1382 539 1286 c 1,13,14
 613 1194 613 1194 612 1016 c 1,15,-1
 612 983 l 1,16,-1
 547 983 l 1,17,-1
 547 1016 l 2,18,19
 547 1172 547 1172 487 1247 c 0,20,21
 432 1317 432 1317 315 1317 c 0,22,23
 204 1317 204 1317 145 1233 c 1,24,25
 84 1149 84 1149 84 1016 c 0,26,27
 84 942 84 942 108.5 891 c 128,-1,28
 133 840 133 840 169 805 c 128,-1,29
 205 770 205 770 244 749.5 c 128,-1,30
 283 729 283 729 313 717 c 1,31,-1
 346 702 l 1,32,33
 373 692 373 692 418 670.5 c 128,-1,34
 463 649 463 649 506 609 c 128,-1,35
 549 569 549 569 580.5 507.5 c 128,-1,36
 612 446 612 446 612 356 c 0,37,38
 612 202 612 202 539 106 c 0,39,40
 459 2 459 2 315 2 c 0,41,42
 168 2 168 2 94 96 c 1,43,44
 20 184 20 184 20 367 c 2,45,-1
 20 397 l 1,46,-1
 84 397 l 1,47,-1
 84 367 l 2,48,49
 84 265 84 265 106.5 205 c 128,-1,50
 129 145 129 145 163 114.5 c 128,-1,51
 197 84 197 84 238 75 c 128,-1,52
 279 66 279 66 315 66 c 0,53,54
 426 66 426 66 486.5 142.5 c 128,-1,55
 547 219 547 219 547 356 c 0,56,57
 547 430 547 430 521.5 480 c 128,-1,58
 496 530 496 530 460 563 c 128,-1,59
 424 596 424 596 385 614.5 c 128,-1,60
 346 633 346 633 322 643 c 2,61,-1
 287 657 l 2,62,63
 256 669 256 669 211 693 c 128,-1,64
 166 717 166 717 124 759 c 128,-1,65
 82 801 82 801 51 863.5 c 128,-1,66
 20 926 20 926 20 1016 c 0,7,8
EndSplineSet
EndChar

StartChar: tcaron
Encoding: 357 357 212
Width: 821
Flags: W
LayerCount: 2
Fore
SplineSet
373.125 1417.98 m 1,0,-1
 183.027 1534.67 l 1,1,-1
 123.381 1534.82 l 17,2,-1
 344.38 1400.12 l 1,3,-1
 403.389 1400.21 l 1,4,-1
 619.878 1534.82 l 9,5,-1
 560.231 1534.67 l 1,6,-1
 373.125 1417.98 l 1,0,-1
10 1317 m 1,7,-1
 10 1382 l 1,8,-1
 735 1382 l 1,9,-1
 735 1317 l 1,10,-1
 403 1317 l 1,11,-1
 403 2 l 1,12,-1
 340 2 l 1,13,-1
 340 1317 l 1,14,-1
 10 1317 l 1,7,-1
EndSplineSet
EndChar

StartChar: Tcaron
Encoding: 356 356 213
Width: 821
Flags: W
LayerCount: 2
Fore
SplineSet
373.125 1417.98 m 1,0,-1
 183.027 1534.67 l 1,1,-1
 123.381 1534.82 l 17,2,-1
 344.38 1400.12 l 1,3,-1
 403.389 1400.21 l 1,4,-1
 619.878 1534.82 l 9,5,-1
 560.231 1534.67 l 1,6,-1
 373.125 1417.98 l 1,0,-1
10 1317 m 1,7,-1
 10 1382 l 1,8,-1
 735 1382 l 1,9,-1
 735 1317 l 1,10,-1
 403 1317 l 1,11,-1
 403 2 l 1,12,-1
 340 2 l 1,13,-1
 340 1317 l 1,14,-1
 10 1317 l 1,7,-1
EndSplineSet
EndChar

StartChar: zcaron
Encoding: 382 382 214
Width: 837
Flags: W
LayerCount: 2
Fore
SplineSet
340.125 1417.98 m 1,0,-1
 150.027 1534.67 l 1,1,-1
 90.3809 1534.82 l 17,2,-1
 311.38 1400.12 l 1,3,-1
 370.389 1400.21 l 1,4,-1
 586.878 1534.82 l 9,5,-1
 527.231 1534.67 l 1,6,-1
 340.125 1417.98 l 1,0,-1
0 1317 m 1,7,-1
 0 1380 l 1,8,-1
 672 1380 l 1,9,-1
 672 1321 l 1,10,-1
 82 63 l 1,11,-1
 682 63 l 1,12,-1
 682 0 l 1,13,-1
 10 0 l 1,14,-1
 10 63 l 1,15,-1
 598 1317 l 1,16,-1
 0 1317 l 1,7,-1
EndSplineSet
EndChar

StartChar: Zcaron
Encoding: 381 381 215
Width: 837
Flags: W
LayerCount: 2
Fore
SplineSet
340.125 1417.98 m 1,0,-1
 150.027 1534.67 l 1,1,-1
 90.3809 1534.82 l 17,2,-1
 311.38 1400.12 l 1,3,-1
 370.389 1400.21 l 1,4,-1
 586.878 1534.82 l 9,5,-1
 527.231 1534.67 l 1,6,-1
 340.125 1417.98 l 1,0,-1
0 1317 m 1,7,-1
 0 1380 l 1,8,-1
 672 1380 l 1,9,-1
 672 1321 l 1,10,-1
 82 63 l 1,11,-1
 682 63 l 1,12,-1
 682 0 l 1,13,-1
 10 0 l 1,14,-1
 10 63 l 1,15,-1
 598 1317 l 1,16,-1
 0 1317 l 1,7,-1
EndSplineSet
EndChar

StartChar: caron
Encoding: 711 711 216
Width: 620
Flags: W
LayerCount: 2
Fore
SplineSet
270.125 1417.98 m 5,0,-1
 80.0273 1534.67 l 5,1,-1
 20.3809 1534.82 l 21,2,-1
 241.38 1400.12 l 5,3,-1
 300.389 1400.21 l 5,4,-1
 516.878 1534.82 l 13,5,-1
 457.231 1534.67 l 5,6,-1
 270.125 1417.98 l 5,0,-1
EndSplineSet
EndChar

StartChar: circumflex
Encoding: 710 710 217
Width: 620
Flags: W
LayerCount: 2
Fore
SplineSet
270.125 1516.96 m 5,0,-1
 80.0273 1400.27 l 5,1,-1
 20.3809 1400.12 l 21,2,-1
 241.38 1534.82 l 5,3,-1
 300.389 1534.73 l 5,4,-1
 516.878 1400.12 l 13,5,-1
 457.231 1400.27 l 5,6,-1
 270.125 1516.96 l 5,0,-1
EndSplineSet
EndChar

StartChar: uni030A
Encoding: 778 778 218
Width: 728
Flags: W
LayerCount: 2
Fore
SplineSet
364.809 1399.59 m 2,0,-1
 362.498 1399.59 l 2,1,2
 321.843 1399.59 321.843 1399.59 300.13 1416.22 c 1,3,4
 278.414 1433.77 278.414 1433.77 278.414 1467.27 c 0,5,6
 278.414 1501.23 278.414 1501.23 300.13 1518.55 c 0,7,8
 321.381 1535.64 321.381 1535.64 362.498 1535.41 c 1,9,-1
 364.809 1535.41 l 2,10,11
 391.373 1535.41 391.373 1535.41 407.658 1529.29 c 128,-1,12
 423.944 1523.17 423.944 1523.17 433.414 1513.24 c 128,-1,13
 442.887 1503.3 442.887 1503.3 446.236 1491.29 c 128,-1,14
 449.586 1479.28 449.586 1479.28 449.586 1467.27 c 0,15,16
 449.586 1455.95 449.586 1455.95 446.236 1443.94 c 128,-1,17
 442.887 1431.93 442.887 1431.93 433.414 1421.99 c 128,-1,18
 423.944 1412.06 423.944 1412.06 407.658 1405.82 c 128,-1,19
 391.373 1399.59 391.373 1399.59 364.809 1399.59 c 2,0,-1
  Spiro
    364.809 1399.59 [
    362.499 1399.59 ]
    326.578 1403.74 o
    300.129 1416.22 v
    283.843 1437.76 o
    278.415 1467.27 o
    283.843 1497.07 o
    300.129 1518.55 o
    326.347 1531.31 o
    362.499 1535.41 v
    364.809 1535.41 ]
    388.804 1533.88 o
    407.659 1529.29 o
    422.241 1522.21 o
    433.416 1513.24 o
    441.356 1502.79 o
    446.236 1491.29 o
    448.747 1479.28 o
    449.586 1467.27 o
    448.747 1455.77 o
    446.236 1443.94 o
    441.356 1432.44 o
    433.416 1421.99 o
    422.241 1412.98 o
    407.659 1405.82 o
    388.804 1401.15 o
    0 0 z
  EndSpiro
364.735 1419.2 m 2,20,21
 397.495 1419.2 397.495 1419.2 413.455 1431.59 c 0,22,23
 428.575 1443.14 428.575 1443.14 428.575 1467.29 c 0,24,25
 428.575 1491.02 428.575 1491.02 413.455 1503.41 c 1,26,27
 398.335 1515.38 398.335 1515.38 364.735 1515.59 c 1,28,-1
 362.635 1515.59 l 2,29,30
 329.455 1515.59 329.455 1515.59 314.439 1503.51 c 128,-1,31
 299.425 1491.44 299.425 1491.44 299.425 1467.29 c 0,32,33
 299.425 1442.72 299.425 1442.72 314.545 1431.59 c 1,34,35
 330.505 1419.2 330.505 1419.2 362.635 1419.2 c 2,36,-1
 364.735 1419.2 l 2,20,21
  Spiro
    364.735 1419.2 ]
    393.295 1422.3 o
    413.455 1431.59 o
    424.795 1446.29 o
    428.575 1467.29 o
    424.795 1488.19 o
    413.455 1503.41 v
    393.715 1512.44 o
    364.735 1515.59 v
    362.635 1515.59 ]
    333.996 1512.57 o
    314.44 1503.51 o
    303.179 1488.42 o
    299.425 1467.29 o
    303.205 1446.08 o
    314.545 1431.59 v
    334.547 1422.3 o
    362.635 1419.2 [
    0 0 z
  EndSpiro
EndSplineSet
EndChar

StartChar: Uring
Encoding: 366 366 219
Width: 712
Flags: W
LayerCount: 2
Fore
SplineSet
290.809 1399.59 m 2,0,-1
 288.498 1399.59 l 2,1,2
 247.843 1399.59 247.843 1399.59 226.13 1416.22 c 1,3,4
 204.414 1433.77 204.414 1433.77 204.414 1467.27 c 0,5,6
 204.414 1501.23 204.414 1501.23 226.13 1518.55 c 0,7,8
 247.381 1535.64 247.381 1535.64 288.498 1535.41 c 1,9,-1
 290.809 1535.41 l 2,10,11
 317.373 1535.41 317.373 1535.41 333.658 1529.29 c 128,-1,12
 349.944 1523.17 349.944 1523.17 359.414 1513.24 c 128,-1,13
 368.887 1503.3 368.887 1503.3 372.236 1491.29 c 128,-1,14
 375.586 1479.28 375.586 1479.28 375.586 1467.27 c 0,15,16
 375.586 1455.95 375.586 1455.95 372.236 1443.94 c 128,-1,17
 368.887 1431.93 368.887 1431.93 359.414 1421.99 c 128,-1,18
 349.944 1412.06 349.944 1412.06 333.658 1405.82 c 128,-1,19
 317.373 1399.59 317.373 1399.59 290.809 1399.59 c 2,0,-1
  Spiro
    290.809 1399.59 [
    288.499 1399.59 ]
    252.578 1403.74 o
    226.129 1416.22 v
    209.843 1437.76 o
    204.415 1467.27 o
    209.843 1497.07 o
    226.129 1518.55 o
    252.347 1531.31 o
    288.499 1535.41 v
    290.809 1535.41 ]
    314.804 1533.88 o
    333.659 1529.29 o
    348.241 1522.21 o
    359.416 1513.24 o
    367.356 1502.79 o
    372.236 1491.29 o
    374.747 1479.28 o
    375.586 1467.27 o
    374.747 1455.77 o
    372.236 1443.94 o
    367.356 1432.44 o
    359.416 1421.99 o
    348.241 1412.98 o
    333.659 1405.82 o
    314.804 1401.15 o
    0 0 z
  EndSpiro
290.735 1419.2 m 2,20,21
 323.495 1419.2 323.495 1419.2 339.455 1431.59 c 0,22,23
 354.575 1443.14 354.575 1443.14 354.575 1467.29 c 0,24,25
 354.575 1491.02 354.575 1491.02 339.455 1503.41 c 1,26,27
 324.335 1515.38 324.335 1515.38 290.735 1515.59 c 1,28,-1
 288.635 1515.59 l 2,29,30
 255.455 1515.59 255.455 1515.59 240.439 1503.51 c 128,-1,31
 225.425 1491.44 225.425 1491.44 225.425 1467.29 c 0,32,33
 225.425 1442.72 225.425 1442.72 240.545 1431.59 c 1,34,35
 256.505 1419.2 256.505 1419.2 288.635 1419.2 c 2,36,-1
 290.735 1419.2 l 2,20,21
  Spiro
    290.735 1419.2 ]
    319.295 1422.3 o
    339.455 1431.59 o
    350.795 1446.29 o
    354.575 1467.29 o
    350.795 1488.19 o
    339.455 1503.41 v
    319.715 1512.44 o
    290.735 1515.59 v
    288.635 1515.59 ]
    259.996 1512.57 o
    240.44 1503.51 o
    229.179 1488.42 o
    225.425 1467.29 o
    229.205 1446.08 o
    240.545 1431.59 v
    260.547 1422.3 o
    288.635 1419.2 [
    0 0 z
  EndSpiro
14 1382 m 1,37,-1
 78 1382 l 1,38,-1
 14 1382 l 1,37,-1
14 340 m 2,39,-1
 14 1382 l 1,40,-1
 78 1382 l 1,41,-1
 78 340 l 2,42,43
 78 248 78 248 98.5 193.5 c 128,-1,44
 119 139 119 139 149.5 110.5 c 128,-1,45
 180 82 180 82 217 74 c 128,-1,46
 254 66 254 66 289 66 c 0,47,48
 322 66 322 66 358.5 74 c 128,-1,49
 395 82 395 82 426 110.5 c 128,-1,50
 457 139 457 139 477.5 193.5 c 128,-1,51
 498 248 498 248 498 340 c 2,52,-1
 498 1382 l 1,53,-1
 561 1382 l 1,54,-1
 561 340 l 2,55,56
 561 236 561 236 535.5 169 c 128,-1,57
 510 102 510 102 471 65.5 c 128,-1,58
 432 29 432 29 383 15.5 c 128,-1,59
 334 2 334 2 289 2 c 0,60,61
 242 2 242 2 193.5 15.5 c 128,-1,62
 145 29 145 29 105.5 65.5 c 128,-1,63
 66 102 66 102 40 169 c 128,-1,64
 14 236 14 236 14 340 c 2,39,-1
EndSplineSet
EndChar

StartChar: uring
Encoding: 367 367 220
Width: 712
Flags: W
LayerCount: 2
Fore
SplineSet
290.809 1399.59 m 2,0,-1
 288.498 1399.59 l 2,1,2
 247.843 1399.59 247.843 1399.59 226.13 1416.22 c 1,3,4
 204.414 1433.77 204.414 1433.77 204.414 1467.27 c 0,5,6
 204.414 1501.23 204.414 1501.23 226.13 1518.55 c 0,7,8
 247.381 1535.64 247.381 1535.64 288.498 1535.41 c 1,9,-1
 290.809 1535.41 l 2,10,11
 317.373 1535.41 317.373 1535.41 333.658 1529.29 c 128,-1,12
 349.944 1523.17 349.944 1523.17 359.414 1513.24 c 128,-1,13
 368.887 1503.3 368.887 1503.3 372.236 1491.29 c 128,-1,14
 375.586 1479.28 375.586 1479.28 375.586 1467.27 c 0,15,16
 375.586 1455.95 375.586 1455.95 372.236 1443.94 c 128,-1,17
 368.887 1431.93 368.887 1431.93 359.414 1421.99 c 128,-1,18
 349.944 1412.06 349.944 1412.06 333.658 1405.82 c 128,-1,19
 317.373 1399.59 317.373 1399.59 290.809 1399.59 c 2,0,-1
  Spiro
    290.809 1399.59 [
    288.499 1399.59 ]
    252.578 1403.74 o
    226.129 1416.22 v
    209.843 1437.76 o
    204.415 1467.27 o
    209.843 1497.07 o
    226.129 1518.55 o
    252.347 1531.31 o
    288.499 1535.41 v
    290.809 1535.41 ]
    314.804 1533.88 o
    333.659 1529.29 o
    348.241 1522.21 o
    359.416 1513.24 o
    367.356 1502.79 o
    372.236 1491.29 o
    374.747 1479.28 o
    375.586 1467.27 o
    374.747 1455.77 o
    372.236 1443.94 o
    367.356 1432.44 o
    359.416 1421.99 o
    348.241 1412.98 o
    333.659 1405.82 o
    314.804 1401.15 o
    0 0 z
  EndSpiro
290.735 1419.2 m 2,20,21
 323.495 1419.2 323.495 1419.2 339.455 1431.59 c 0,22,23
 354.575 1443.14 354.575 1443.14 354.575 1467.29 c 0,24,25
 354.575 1491.02 354.575 1491.02 339.455 1503.41 c 1,26,27
 324.335 1515.38 324.335 1515.38 290.735 1515.59 c 1,28,-1
 288.635 1515.59 l 2,29,30
 255.455 1515.59 255.455 1515.59 240.439 1503.51 c 128,-1,31
 225.425 1491.44 225.425 1491.44 225.425 1467.29 c 0,32,33
 225.425 1442.72 225.425 1442.72 240.545 1431.59 c 1,34,35
 256.505 1419.2 256.505 1419.2 288.635 1419.2 c 2,36,-1
 290.735 1419.2 l 2,20,21
  Spiro
    290.735 1419.2 ]
    319.295 1422.3 o
    339.455 1431.59 o
    350.795 1446.29 o
    354.575 1467.29 o
    350.795 1488.19 o
    339.455 1503.41 v
    319.715 1512.44 o
    290.735 1515.59 v
    288.635 1515.59 ]
    259.996 1512.57 o
    240.44 1503.51 o
    229.179 1488.42 o
    225.425 1467.29 o
    229.205 1446.08 o
    240.545 1431.59 v
    260.547 1422.3 o
    288.635 1419.2 [
    0 0 z
  EndSpiro
14 1382 m 1,37,-1
 78 1382 l 1,38,-1
 14 1382 l 1,37,-1
14 340 m 2,39,-1
 14 1382 l 1,40,-1
 78 1382 l 1,41,-1
 78 340 l 2,42,43
 78 248 78 248 98.5 193.5 c 128,-1,44
 119 139 119 139 149.5 110.5 c 128,-1,45
 180 82 180 82 217 74 c 128,-1,46
 254 66 254 66 289 66 c 0,47,48
 322 66 322 66 358.5 74 c 128,-1,49
 395 82 395 82 426 110.5 c 128,-1,50
 457 139 457 139 477.5 193.5 c 128,-1,51
 498 248 498 248 498 340 c 2,52,-1
 498 1382 l 1,53,-1
 561 1382 l 1,54,-1
 561 340 l 2,55,56
 561 236 561 236 535.5 169 c 128,-1,57
 510 102 510 102 471 65.5 c 128,-1,58
 432 29 432 29 383 15.5 c 128,-1,59
 334 2 334 2 289 2 c 0,60,61
 242 2 242 2 193.5 15.5 c 128,-1,62
 145 29 145 29 105.5 65.5 c 128,-1,63
 66 102 66 102 40 169 c 128,-1,64
 14 236 14 236 14 340 c 2,39,-1
EndSplineSet
EndChar

StartChar: Wcircumflex
Encoding: 372 372 221
Width: 1333
Flags: W
LayerCount: 2
Fore
SplineSet
621.125 1516.96 m 1,0,-1
 431.027 1400.27 l 1,1,-1
 371.381 1400.12 l 17,2,-1
 592.38 1534.82 l 1,3,-1
 651.389 1534.73 l 1,4,-1
 867.878 1400.12 l 9,5,-1
 808.231 1400.27 l 1,6,-1
 621.125 1516.96 l 1,0,-1
0 1380 m 1,7,-1
 66 1380 l 1,8,-1
 332 182 l 1,9,-1
 596 1380 l 1,10,-1
 647 1380 l 1,11,-1
 911 182 l 1,12,-1
 1171 1380 l 1,13,-1
 1239 1380 l 1,14,-1
 938 0 l 1,15,-1
 885 0 l 1,16,-1
 621 1198 l 1,17,-1
 356 0 l 1,18,-1
 305 0 l 1,19,-1
 0 1380 l 1,7,-1
EndSplineSet
EndChar

StartChar: wcircumflex
Encoding: 373 373 222
Width: 1333
Flags: W
LayerCount: 2
Fore
SplineSet
621.125 1516.96 m 1,0,-1
 431.027 1400.27 l 1,1,-1
 371.381 1400.12 l 17,2,-1
 592.38 1534.82 l 1,3,-1
 651.389 1534.73 l 1,4,-1
 867.878 1400.12 l 9,5,-1
 808.231 1400.27 l 1,6,-1
 621.125 1516.96 l 1,0,-1
0 1380 m 1,7,-1
 66 1380 l 1,8,-1
 332 182 l 1,9,-1
 596 1380 l 1,10,-1
 647 1380 l 1,11,-1
 911 182 l 1,12,-1
 1171 1380 l 1,13,-1
 1239 1380 l 1,14,-1
 938 0 l 1,15,-1
 885 0 l 1,16,-1
 621 1198 l 1,17,-1
 356 0 l 1,18,-1
 305 0 l 1,19,-1
 0 1380 l 1,7,-1
EndSplineSet
EndChar

StartChar: Ycircumflex
Encoding: 374 374 223
Width: 854
Flags: W
LayerCount: 2
Fore
SplineSet
395.125 1516.96 m 1,0,-1
 205.027 1400.27 l 1,1,-1
 145.381 1400.12 l 17,2,-1
 366.38 1534.82 l 1,3,-1
 425.389 1534.73 l 1,4,-1
 641.878 1400.12 l 9,5,-1
 582.231 1400.27 l 1,6,-1
 395.125 1516.96 l 1,0,-1
-20 1380 m 1,7,-1
 53 1380 l 1,8,-1
 395 758 l 1,9,-1
 737 1380 l 1,10,-1
 811 1380 l 1,11,-1
 428 682 l 1,12,-1
 428 0 l 1,13,-1
 365 0 l 1,14,-1
 365 682 l 1,15,-1
 -20 1380 l 1,7,-1
EndSplineSet
EndChar

StartChar: ycircumflex
Encoding: 375 375 224
Width: 854
Flags: W
LayerCount: 2
Fore
SplineSet
395.125 1516.96 m 1,0,-1
 205.027 1400.27 l 1,1,-1
 145.381 1400.12 l 17,2,-1
 366.38 1534.82 l 1,3,-1
 425.389 1534.73 l 1,4,-1
 641.878 1400.12 l 9,5,-1
 582.231 1400.27 l 1,6,-1
 395.125 1516.96 l 1,0,-1
-20 1380 m 1,7,-1
 53 1380 l 1,8,-1
 395 758 l 1,9,-1
 737 1380 l 1,10,-1
 811 1380 l 1,11,-1
 428 682 l 1,12,-1
 428 0 l 1,13,-1
 365 0 l 1,14,-1
 365 682 l 1,15,-1
 -20 1380 l 1,7,-1
EndSplineSet
EndChar

StartChar: Rcaron
Encoding: 344 344 225
Width: 712
Flags: W
LayerCount: 2
Fore
SplineSet
270.125 1417.98 m 1,0,-1
 80.0273 1534.67 l 1,1,-1
 20.3809 1534.82 l 17,2,-1
 241.38 1400.12 l 1,3,-1
 300.389 1400.21 l 1,4,-1
 516.878 1534.82 l 9,5,-1
 457.231 1534.67 l 1,6,-1
 270.125 1417.98 l 1,0,-1
23 2 m 1,7,-1
 23 1382 l 1,8,-1
 270 1382 l 2,9,10
 436 1382 436 1382 513 1293 c 128,-1,11
 590 1204 590 1204 590 1016 c 0,12,13
 590 832 590 832 514 741 c 0,14,15
 481 702 481 702 432 678 c 1,16,17
 471 660 471 660 502 629 c 0,18,19
 594 541 594 541 594 385 c 2,20,-1
 594 2 l 1,21,-1
 528 2 l 1,22,-1
 528 385 l 2,23,24
 528 510 528 510 460.5 578.5 c 128,-1,25
 393 647 393 647 270 647 c 2,26,-1
 240 647 l 1,27,-1
 86 647 l 1,28,-1
 86 2 l 1,29,-1
 23 2 l 1,7,-1
86 713 m 1,30,-1
 240 713 l 1,31,-1
 270 713 l 2,32,33
 407 713 407 713 465 782 c 0,34,35
 526 856 526 856 526 1016 c 0,36,37
 526 1178 526 1178 467 1247.5 c 128,-1,38
 408 1317 408 1317 270 1317 c 2,39,-1
 86 1317 l 1,40,-1
 86 713 l 1,30,-1
EndSplineSet
EndChar

StartChar: rcaron
Encoding: 345 345 226
Width: 712
Flags: W
LayerCount: 2
Fore
SplineSet
270.125 1417.98 m 1,0,-1
 80.0273 1534.67 l 1,1,-1
 20.3809 1534.82 l 17,2,-1
 241.38 1400.12 l 1,3,-1
 300.389 1400.21 l 1,4,-1
 516.878 1534.82 l 9,5,-1
 457.231 1534.67 l 1,6,-1
 270.125 1417.98 l 1,0,-1
23 2 m 1,7,-1
 23 1382 l 1,8,-1
 270 1382 l 2,9,10
 436 1382 436 1382 513 1293 c 128,-1,11
 590 1204 590 1204 590 1016 c 0,12,13
 590 832 590 832 514 741 c 0,14,15
 481 702 481 702 432 678 c 1,16,17
 471 660 471 660 502 629 c 0,18,19
 594 541 594 541 594 385 c 2,20,-1
 594 2 l 1,21,-1
 528 2 l 1,22,-1
 528 385 l 2,23,24
 528 510 528 510 460.5 578.5 c 128,-1,25
 393 647 393 647 270 647 c 2,26,-1
 240 647 l 1,27,-1
 86 647 l 1,28,-1
 86 2 l 1,29,-1
 23 2 l 1,7,-1
86 713 m 1,30,-1
 240 713 l 1,31,-1
 270 713 l 2,32,33
 407 713 407 713 465 782 c 0,34,35
 526 856 526 856 526 1016 c 0,36,37
 526 1178 526 1178 467 1247.5 c 128,-1,38
 408 1317 408 1317 270 1317 c 2,39,-1
 86 1317 l 1,40,-1
 86 713 l 1,30,-1
EndSplineSet
EndChar

StartChar: Scircumflex
Encoding: 348 348 227
Width: 712
Flags: W
LayerCount: 2
Fore
SplineSet
315.125 1516.96 m 1,0,-1
 125.027 1400.27 l 1,1,-1
 65.3809 1400.12 l 17,2,-1
 286.38 1534.82 l 1,3,-1
 345.389 1534.73 l 1,4,-1
 561.878 1400.12 l 9,5,-1
 502.231 1400.27 l 1,6,-1
 315.125 1516.96 l 1,0,-1
20 1016 m 0,7,8
 20 1172 20 1172 92 1272 c 1,9,10
 174 1383 174 1383 315 1382 c 1,11,12
 460 1382 460 1382 539 1286 c 1,13,14
 613 1194 613 1194 612 1016 c 1,15,-1
 612 983 l 1,16,-1
 547 983 l 1,17,-1
 547 1016 l 2,18,19
 547 1172 547 1172 487 1247 c 0,20,21
 432 1317 432 1317 315 1317 c 0,22,23
 204 1317 204 1317 145 1233 c 1,24,25
 84 1149 84 1149 84 1016 c 0,26,27
 84 942 84 942 108.5 891 c 128,-1,28
 133 840 133 840 169 805 c 128,-1,29
 205 770 205 770 244 749.5 c 128,-1,30
 283 729 283 729 313 717 c 1,31,-1
 346 702 l 1,32,33
 373 692 373 692 418 670.5 c 128,-1,34
 463 649 463 649 506 609 c 128,-1,35
 549 569 549 569 580.5 507.5 c 128,-1,36
 612 446 612 446 612 356 c 0,37,38
 612 202 612 202 539 106 c 0,39,40
 459 2 459 2 315 2 c 0,41,42
 168 2 168 2 94 96 c 1,43,44
 20 184 20 184 20 367 c 2,45,-1
 20 397 l 1,46,-1
 84 397 l 1,47,-1
 84 367 l 2,48,49
 84 265 84 265 106.5 205 c 128,-1,50
 129 145 129 145 163 114.5 c 128,-1,51
 197 84 197 84 238 75 c 128,-1,52
 279 66 279 66 315 66 c 0,53,54
 426 66 426 66 486.5 142.5 c 128,-1,55
 547 219 547 219 547 356 c 0,56,57
 547 430 547 430 521.5 480 c 128,-1,58
 496 530 496 530 460 563 c 128,-1,59
 424 596 424 596 385 614.5 c 128,-1,60
 346 633 346 633 322 643 c 2,61,-1
 287 657 l 2,62,63
 256 669 256 669 211 693 c 128,-1,64
 166 717 166 717 124 759 c 128,-1,65
 82 801 82 801 51 863.5 c 128,-1,66
 20 926 20 926 20 1016 c 0,7,8
EndSplineSet
EndChar

StartChar: scircumflex
Encoding: 349 349 228
Width: 712
Flags: W
LayerCount: 2
Fore
SplineSet
315.125 1516.96 m 1,0,-1
 125.027 1400.27 l 1,1,-1
 65.3809 1400.12 l 17,2,-1
 286.38 1534.82 l 1,3,-1
 345.389 1534.73 l 1,4,-1
 561.878 1400.12 l 9,5,-1
 502.231 1400.27 l 1,6,-1
 315.125 1516.96 l 1,0,-1
20 1016 m 0,7,8
 20 1172 20 1172 92 1272 c 1,9,10
 174 1383 174 1383 315 1382 c 1,11,12
 460 1382 460 1382 539 1286 c 1,13,14
 613 1194 613 1194 612 1016 c 1,15,-1
 612 983 l 1,16,-1
 547 983 l 1,17,-1
 547 1016 l 2,18,19
 547 1172 547 1172 487 1247 c 0,20,21
 432 1317 432 1317 315 1317 c 0,22,23
 204 1317 204 1317 145 1233 c 1,24,25
 84 1149 84 1149 84 1016 c 0,26,27
 84 942 84 942 108.5 891 c 128,-1,28
 133 840 133 840 169 805 c 128,-1,29
 205 770 205 770 244 749.5 c 128,-1,30
 283 729 283 729 313 717 c 1,31,-1
 346 702 l 1,32,33
 373 692 373 692 418 670.5 c 128,-1,34
 463 649 463 649 506 609 c 128,-1,35
 549 569 549 569 580.5 507.5 c 128,-1,36
 612 446 612 446 612 356 c 0,37,38
 612 202 612 202 539 106 c 0,39,40
 459 2 459 2 315 2 c 0,41,42
 168 2 168 2 94 96 c 1,43,44
 20 184 20 184 20 367 c 2,45,-1
 20 397 l 1,46,-1
 84 397 l 1,47,-1
 84 367 l 2,48,49
 84 265 84 265 106.5 205 c 128,-1,50
 129 145 129 145 163 114.5 c 128,-1,51
 197 84 197 84 238 75 c 128,-1,52
 279 66 279 66 315 66 c 0,53,54
 426 66 426 66 486.5 142.5 c 128,-1,55
 547 219 547 219 547 356 c 0,56,57
 547 430 547 430 521.5 480 c 128,-1,58
 496 530 496 530 460 563 c 128,-1,59
 424 596 424 596 385 614.5 c 128,-1,60
 346 633 346 633 322 643 c 2,61,-1
 287 657 l 2,62,63
 256 669 256 669 211 693 c 128,-1,64
 166 717 166 717 124 759 c 128,-1,65
 82 801 82 801 51 863.5 c 128,-1,66
 20 926 20 926 20 1016 c 0,7,8
EndSplineSet
EndChar

StartChar: Ncaron
Encoding: 327 327 229
Width: 737
Flags: W
LayerCount: 2
Fore
SplineSet
317.125 1417.98 m 1,0,-1
 127.027 1534.67 l 1,1,-1
 67.3809 1534.82 l 17,2,-1
 288.38 1400.12 l 1,3,-1
 347.389 1400.21 l 1,4,-1
 563.878 1534.82 l 9,5,-1
 504.231 1534.67 l 1,6,-1
 317.125 1417.98 l 1,0,-1
18 0 m 1,7,-1
 18 1380 l 1,8,-1
 74 1380 l 1,9,-1
 549 199 l 1,10,-1
 549 1380 l 1,11,-1
 614 1380 l 1,12,-1
 614 0 l 1,13,-1
 561 0 l 1,14,-1
 84 1182 l 1,15,-1
 84 0 l 1,16,-1
 18 0 l 1,7,-1
EndSplineSet
EndChar

StartChar: ncaron
Encoding: 328 328 230
Width: 737
Flags: W
LayerCount: 2
Fore
SplineSet
317.125 1417.98 m 1,0,-1
 127.027 1534.67 l 1,1,-1
 67.3809 1534.82 l 17,2,-1
 288.38 1400.12 l 1,3,-1
 347.389 1400.21 l 1,4,-1
 563.878 1534.82 l 9,5,-1
 504.231 1534.67 l 1,6,-1
 317.125 1417.98 l 1,0,-1
18 0 m 1,7,-1
 18 1380 l 1,8,-1
 74 1380 l 1,9,-1
 549 199 l 1,10,-1
 549 1380 l 1,11,-1
 614 1380 l 1,12,-1
 614 0 l 1,13,-1
 561 0 l 1,14,-1
 84 1182 l 1,15,-1
 84 0 l 1,16,-1
 18 0 l 1,7,-1
EndSplineSet
EndChar

StartChar: uni01E8
Encoding: 488 488 231
Width: 737
Flags: W
LayerCount: 2
Fore
SplineSet
344.125 1417.98 m 5,0,-1
 154.027 1534.67 l 1,1,-1
 94.3809 1534.82 l 17,2,-1
 315.38 1400.12 l 1,3,-1
 374.389 1400.21 l 1,4,-1
 590.878 1534.82 l 9,5,-1
 531.231 1534.67 l 1,6,-1
 344.125 1417.98 l 5,0,-1
16 0 m 1,7,-1
 16 1380 l 1,8,-1
 82 1380 l 1,9,-1
 82 596 l 1,10,-1
 606 1380 l 1,11,-1
 684 1380 l 1,12,-1
 260 748 l 1,13,-1
 684 0 l 1,14,-1
 610 0 l 1,15,-1
 221 686 l 1,16,-1
 82 479 l 1,17,-1
 82 0 l 1,18,-1
 16 0 l 1,7,-1
EndSplineSet
EndChar

StartChar: uni01E9
Encoding: 489 489 232
Width: 737
Flags: W
LayerCount: 2
Fore
SplineSet
344.125 1417.98 m 5,0,-1
 154.027 1534.67 l 1,1,-1
 94.3809 1534.82 l 17,2,-1
 315.38 1400.12 l 1,3,-1
 374.389 1400.21 l 1,4,-1
 590.878 1534.82 l 9,5,-1
 531.231 1534.67 l 1,6,-1
 344.125 1417.98 l 5,0,-1
16 0 m 1,7,-1
 16 1380 l 1,8,-1
 82 1380 l 1,9,-1
 82 596 l 1,10,-1
 606 1380 l 1,11,-1
 684 1380 l 1,12,-1
 260 748 l 1,13,-1
 684 0 l 1,14,-1
 610 0 l 1,15,-1
 221 686 l 1,16,-1
 82 479 l 1,17,-1
 82 0 l 1,18,-1
 16 0 l 1,7,-1
EndSplineSet
EndChar

StartChar: Gcaron
Encoding: 486 486 233
Width: 720
Flags: W
LayerCount: 2
Fore
SplineSet
315.125 1417.98 m 1,0,-1
 125.027 1534.67 l 1,1,-1
 65.3809 1534.82 l 17,2,-1
 286.38 1400.12 l 1,3,-1
 345.389 1400.21 l 1,4,-1
 561.878 1534.82 l 9,5,-1
 502.231 1534.67 l 1,6,-1
 315.125 1417.98 l 1,0,-1
20 365 m 2,7,-1
 20 1018 l 2,8,9
 20 1196 20 1196 92 1286 c 0,10,11
 168 1380 168 1380 315.5 1380 c 128,-1,12
 463 1380 463 1380 537 1286 c 1,13,14
 611 1196 611 1196 610 1018 c 1,15,-1
 610 985 l 1,16,-1
 545 985 l 1,17,-1
 545 1018 l 2,18,19
 545 1118 545 1118 522.5 1177.5 c 128,-1,20
 500 1237 500 1237 466 1267.5 c 128,-1,21
 432 1298 432 1298 392 1307.5 c 128,-1,22
 352 1317 352 1317 315.5 1317 c 128,-1,23
 279 1317 279 1317 238 1307.5 c 128,-1,24
 197 1298 197 1298 163 1267.5 c 128,-1,25
 129 1237 129 1237 106.5 1177.5 c 128,-1,26
 84 1118 84 1118 84 1018 c 2,27,-1
 84 365 l 2,28,29
 84 211 84 211 143 135 c 0,30,31
 198 63 198 63 315 63 c 0,32,33
 430 63 430 63 485 135 c 0,34,35
 544 211 544 211 545 365 c 1,36,-1
 545 545 l 1,37,-1
 246 545 l 1,38,-1
 246 610 l 1,39,-1
 610 610 l 1,40,-1
 610 365 l 2,41,42
 610 187 610 187 537 94 c 0,43,44
 463 0 463 0 315.5 0 c 128,-1,45
 168 0 168 0 92 94 c 1,46,47
 20 189 20 189 20 365 c 2,7,-1
EndSplineSet
EndChar

StartChar: gcaron
Encoding: 487 487 234
Width: 720
Flags: W
LayerCount: 2
Fore
SplineSet
315.125 1417.98 m 1,0,-1
 125.027 1534.67 l 1,1,-1
 65.3809 1534.82 l 17,2,-1
 286.38 1400.12 l 1,3,-1
 345.389 1400.21 l 1,4,-1
 561.878 1534.82 l 9,5,-1
 502.231 1534.67 l 1,6,-1
 315.125 1417.98 l 1,0,-1
20 365 m 2,7,-1
 20 1018 l 2,8,9
 20 1196 20 1196 92 1286 c 0,10,11
 168 1380 168 1380 315.5 1380 c 128,-1,12
 463 1380 463 1380 537 1286 c 1,13,14
 611 1196 611 1196 610 1018 c 1,15,-1
 610 985 l 1,16,-1
 545 985 l 1,17,-1
 545 1018 l 2,18,19
 545 1118 545 1118 522.5 1177.5 c 128,-1,20
 500 1237 500 1237 466 1267.5 c 128,-1,21
 432 1298 432 1298 392 1307.5 c 128,-1,22
 352 1317 352 1317 315.5 1317 c 128,-1,23
 279 1317 279 1317 238 1307.5 c 128,-1,24
 197 1298 197 1298 163 1267.5 c 128,-1,25
 129 1237 129 1237 106.5 1177.5 c 128,-1,26
 84 1118 84 1118 84 1018 c 2,27,-1
 84 365 l 2,28,29
 84 211 84 211 143 135 c 0,30,31
 198 63 198 63 315 63 c 0,32,33
 430 63 430 63 485 135 c 0,34,35
 544 211 544 211 545 365 c 1,36,-1
 545 545 l 1,37,-1
 246 545 l 1,38,-1
 246 610 l 1,39,-1
 610 610 l 1,40,-1
 610 365 l 2,41,42
 610 187 610 187 537 94 c 0,43,44
 463 0 463 0 315.5 0 c 128,-1,45
 168 0 168 0 92 94 c 1,46,47
 20 189 20 189 20 365 c 2,7,-1
EndSplineSet
EndChar

StartChar: Nacute
Encoding: 323 323 235
Width: 737
Flags: W
LayerCount: 2
Fore
SplineSet
64.2148 1400.12 m 9,0,-1
 163.626 1400.27 l 1,1,-1
 560.044 1534.82 l 1,2,-1
 461.697 1534.73 l 1,3,-1
 64.2148 1400.12 l 9,0,-1
18 0 m 1,4,-1
 18 1380 l 1,5,-1
 74 1380 l 1,6,-1
 549 199 l 1,7,-1
 549 1380 l 1,8,-1
 614 1380 l 1,9,-1
 614 0 l 1,10,-1
 561 0 l 1,11,-1
 84 1182 l 1,12,-1
 84 0 l 1,13,-1
 18 0 l 1,4,-1
EndSplineSet
EndChar

StartChar: nacute
Encoding: 324 324 236
Width: 737
Flags: W
LayerCount: 2
Fore
SplineSet
64.2148 1400.12 m 9,0,-1
 163.626 1400.27 l 1,1,-1
 560.044 1534.82 l 1,2,-1
 461.697 1534.73 l 1,3,-1
 64.2148 1400.12 l 9,0,-1
18 0 m 1,4,-1
 18 1380 l 1,5,-1
 74 1380 l 1,6,-1
 549 199 l 1,7,-1
 549 1380 l 1,8,-1
 614 1380 l 1,9,-1
 614 0 l 1,10,-1
 561 0 l 1,11,-1
 84 1182 l 1,12,-1
 84 0 l 1,13,-1
 18 0 l 1,4,-1
EndSplineSet
EndChar

StartChar: Racute
Encoding: 340 340 237
Width: 712
Flags: W
LayerCount: 2
Fore
SplineSet
20.2148 1400.12 m 9,0,-1
 119.626 1400.27 l 1,1,-1
 516.044 1534.82 l 1,2,-1
 417.697 1534.73 l 1,3,-1
 20.2148 1400.12 l 9,0,-1
23 2 m 1,4,-1
 23 1382 l 1,5,-1
 270 1382 l 2,6,7
 436 1382 436 1382 513 1293 c 128,-1,8
 590 1204 590 1204 590 1016 c 0,9,10
 590 832 590 832 514 741 c 0,11,12
 481 702 481 702 432 678 c 1,13,14
 471 660 471 660 502 629 c 0,15,16
 594 541 594 541 594 385 c 2,17,-1
 594 2 l 1,18,-1
 528 2 l 1,19,-1
 528 385 l 2,20,21
 528 510 528 510 460.5 578.5 c 128,-1,22
 393 647 393 647 270 647 c 2,23,-1
 240 647 l 1,24,-1
 86 647 l 1,25,-1
 86 2 l 1,26,-1
 23 2 l 1,4,-1
86 713 m 1,27,-1
 240 713 l 1,28,-1
 270 713 l 2,29,30
 407 713 407 713 465 782 c 0,31,32
 526 856 526 856 526 1016 c 0,33,34
 526 1178 526 1178 467 1247.5 c 128,-1,35
 408 1317 408 1317 270 1317 c 2,36,-1
 86 1317 l 1,37,-1
 86 713 l 1,27,-1
EndSplineSet
EndChar

StartChar: racute
Encoding: 341 341 238
Width: 712
Flags: W
LayerCount: 2
Fore
SplineSet
20.2148 1400.12 m 9,0,-1
 119.626 1400.27 l 1,1,-1
 516.044 1534.82 l 1,2,-1
 417.697 1534.73 l 1,3,-1
 20.2148 1400.12 l 9,0,-1
23 2 m 1,4,-1
 23 1382 l 1,5,-1
 270 1382 l 2,6,7
 436 1382 436 1382 513 1293 c 128,-1,8
 590 1204 590 1204 590 1016 c 0,9,10
 590 832 590 832 514 741 c 0,11,12
 481 702 481 702 432 678 c 1,13,14
 471 660 471 660 502 629 c 0,15,16
 594 541 594 541 594 385 c 2,17,-1
 594 2 l 1,18,-1
 528 2 l 1,19,-1
 528 385 l 2,20,21
 528 510 528 510 460.5 578.5 c 128,-1,22
 393 647 393 647 270 647 c 2,23,-1
 240 647 l 1,24,-1
 86 647 l 1,25,-1
 86 2 l 1,26,-1
 23 2 l 1,4,-1
86 713 m 1,27,-1
 240 713 l 1,28,-1
 270 713 l 2,29,30
 407 713 407 713 465 782 c 0,31,32
 526 856 526 856 526 1016 c 0,33,34
 526 1178 526 1178 467 1247.5 c 128,-1,35
 408 1317 408 1317 270 1317 c 2,36,-1
 86 1317 l 1,37,-1
 86 713 l 1,27,-1
EndSplineSet
EndChar

StartChar: Sacute
Encoding: 346 346 239
Width: 712
Flags: W
LayerCount: 2
Fore
SplineSet
64.2148 1400.12 m 9,0,-1
 163.626 1400.27 l 1,1,-1
 560.044 1534.82 l 1,2,-1
 461.697 1534.73 l 1,3,-1
 64.2148 1400.12 l 9,0,-1
20 1016 m 0,4,5
 20 1172 20 1172 92 1272 c 1,6,7
 174 1383 174 1383 315 1382 c 1,8,9
 460 1382 460 1382 539 1286 c 1,10,11
 613 1194 613 1194 612 1016 c 1,12,-1
 612 983 l 1,13,-1
 547 983 l 1,14,-1
 547 1016 l 2,15,16
 547 1172 547 1172 487 1247 c 0,17,18
 432 1317 432 1317 315 1317 c 0,19,20
 204 1317 204 1317 145 1233 c 1,21,22
 84 1149 84 1149 84 1016 c 0,23,24
 84 942 84 942 108.5 891 c 128,-1,25
 133 840 133 840 169 805 c 128,-1,26
 205 770 205 770 244 749.5 c 128,-1,27
 283 729 283 729 313 717 c 1,28,-1
 346 702 l 1,29,30
 373 692 373 692 418 670.5 c 128,-1,31
 463 649 463 649 506 609 c 128,-1,32
 549 569 549 569 580.5 507.5 c 128,-1,33
 612 446 612 446 612 356 c 0,34,35
 612 202 612 202 539 106 c 0,36,37
 459 2 459 2 315 2 c 0,38,39
 168 2 168 2 94 96 c 1,40,41
 20 184 20 184 20 367 c 2,42,-1
 20 397 l 1,43,-1
 84 397 l 1,44,-1
 84 367 l 2,45,46
 84 265 84 265 106.5 205 c 128,-1,47
 129 145 129 145 163 114.5 c 128,-1,48
 197 84 197 84 238 75 c 128,-1,49
 279 66 279 66 315 66 c 0,50,51
 426 66 426 66 486.5 142.5 c 128,-1,52
 547 219 547 219 547 356 c 0,53,54
 547 430 547 430 521.5 480 c 128,-1,55
 496 530 496 530 460 563 c 128,-1,56
 424 596 424 596 385 614.5 c 128,-1,57
 346 633 346 633 322 643 c 2,58,-1
 287 657 l 2,59,60
 256 669 256 669 211 693 c 128,-1,61
 166 717 166 717 124 759 c 128,-1,62
 82 801 82 801 51 863.5 c 128,-1,63
 20 926 20 926 20 1016 c 0,4,5
EndSplineSet
EndChar

StartChar: sacute
Encoding: 347 347 240
Width: 712
Flags: W
LayerCount: 2
Fore
SplineSet
64.2148 1400.12 m 9,0,-1
 163.626 1400.27 l 1,1,-1
 560.044 1534.82 l 1,2,-1
 461.697 1534.73 l 1,3,-1
 64.2148 1400.12 l 9,0,-1
20 1016 m 0,4,5
 20 1172 20 1172 92 1272 c 1,6,7
 174 1383 174 1383 315 1382 c 1,8,9
 460 1382 460 1382 539 1286 c 1,10,11
 613 1194 613 1194 612 1016 c 1,12,-1
 612 983 l 1,13,-1
 547 983 l 1,14,-1
 547 1016 l 2,15,16
 547 1172 547 1172 487 1247 c 0,17,18
 432 1317 432 1317 315 1317 c 0,19,20
 204 1317 204 1317 145 1233 c 1,21,22
 84 1149 84 1149 84 1016 c 0,23,24
 84 942 84 942 108.5 891 c 128,-1,25
 133 840 133 840 169 805 c 128,-1,26
 205 770 205 770 244 749.5 c 128,-1,27
 283 729 283 729 313 717 c 1,28,-1
 346 702 l 1,29,30
 373 692 373 692 418 670.5 c 128,-1,31
 463 649 463 649 506 609 c 128,-1,32
 549 569 549 569 580.5 507.5 c 128,-1,33
 612 446 612 446 612 356 c 0,34,35
 612 202 612 202 539 106 c 0,36,37
 459 2 459 2 315 2 c 0,38,39
 168 2 168 2 94 96 c 1,40,41
 20 184 20 184 20 367 c 2,42,-1
 20 397 l 1,43,-1
 84 397 l 1,44,-1
 84 367 l 2,45,46
 84 265 84 265 106.5 205 c 128,-1,47
 129 145 129 145 163 114.5 c 128,-1,48
 197 84 197 84 238 75 c 128,-1,49
 279 66 279 66 315 66 c 0,50,51
 426 66 426 66 486.5 142.5 c 128,-1,52
 547 219 547 219 547 356 c 0,53,54
 547 430 547 430 521.5 480 c 128,-1,55
 496 530 496 530 460 563 c 128,-1,56
 424 596 424 596 385 614.5 c 128,-1,57
 346 633 346 633 322 643 c 2,58,-1
 287 657 l 2,59,60
 256 669 256 669 211 693 c 128,-1,61
 166 717 166 717 124 759 c 128,-1,62
 82 801 82 801 51 863.5 c 128,-1,63
 20 926 20 926 20 1016 c 0,4,5
EndSplineSet
EndChar

StartChar: Zacute
Encoding: 377 377 241
Width: 837
Flags: W
LayerCount: 2
Fore
SplineSet
102.215 1400.12 m 9,0,-1
 201.626 1400.27 l 1,1,-1
 598.044 1534.82 l 1,2,-1
 499.697 1534.73 l 1,3,-1
 102.215 1400.12 l 9,0,-1
0 1317 m 1,4,-1
 0 1380 l 1,5,-1
 672 1380 l 1,6,-1
 672 1321 l 1,7,-1
 82 63 l 1,8,-1
 682 63 l 1,9,-1
 682 0 l 1,10,-1
 10 0 l 1,11,-1
 10 63 l 1,12,-1
 598 1317 l 1,13,-1
 0 1317 l 1,4,-1
EndSplineSet
EndChar

StartChar: zacute
Encoding: 378 378 242
Width: 837
Flags: W
LayerCount: 2
Fore
SplineSet
102.215 1400.12 m 9,0,-1
 201.626 1400.27 l 1,1,-1
 598.044 1534.82 l 1,2,-1
 499.697 1534.73 l 1,3,-1
 102.215 1400.12 l 9,0,-1
0 1317 m 1,4,-1
 0 1380 l 1,5,-1
 672 1380 l 1,6,-1
 672 1321 l 1,7,-1
 82 63 l 1,8,-1
 682 63 l 1,9,-1
 682 0 l 1,10,-1
 10 0 l 1,11,-1
 10 63 l 1,12,-1
 598 1317 l 1,13,-1
 0 1317 l 1,4,-1
EndSplineSet
EndChar

StartChar: Jcircumflex
Encoding: 308 308 243
Width: 663
Flags: W
LayerCount: 2
Fore
SplineSet
515.107 1516.96 m 1,0,-1
 454.276 1400.27 l 1,1,-1
 435.19 1400.12 l 17,2,-1
 505.909 1534.82 l 1,3,-1
 524.792 1534.73 l 1,4,-1
 594.068 1400.12 l 9,5,-1
 574.982 1400.27 l 1,6,-1
 515.107 1516.96 l 1,0,-1
0 338 m 2,7,-1
 0 369 l 1,8,-1
 63 369 l 1,9,-1
 63 338 l 2,10,11
 63 246 63 246 83.5 191.5 c 128,-1,12
 104 137 104 137 135 108.5 c 128,-1,13
 166 80 166 80 203 71.5 c 128,-1,14
 240 63 240 63 274 63 c 0,15,16
 376 63 376 63 430 127 c 1,17,18
 483 197 483 197 483 338 c 2,19,-1
 483 1380 l 1,20,-1
 547 1380 l 1,21,-1
 547 338 l 2,22,23
 547 170 547 170 479 88 c 1,24,25
 411 0 411 0 274 0 c 128,-1,26
 137 0 137 0 68 88 c 1,27,28
 0 170 0 170 0 338 c 2,7,-1
EndSplineSet
EndChar

StartChar: jcircumflex
Encoding: 309 309 244
Width: 663
Flags: W
LayerCount: 2
Fore
SplineSet
515.107 1516.96 m 1,0,-1
 454.276 1400.27 l 1,1,-1
 435.19 1400.12 l 17,2,-1
 505.909 1534.82 l 1,3,-1
 524.792 1534.73 l 1,4,-1
 594.068 1400.12 l 9,5,-1
 574.982 1400.27 l 1,6,-1
 515.107 1516.96 l 1,0,-1
0 338 m 2,7,-1
 0 369 l 1,8,-1
 63 369 l 1,9,-1
 63 338 l 2,10,11
 63 246 63 246 83.5 191.5 c 128,-1,12
 104 137 104 137 135 108.5 c 128,-1,13
 166 80 166 80 203 71.5 c 128,-1,14
 240 63 240 63 274 63 c 0,15,16
 376 63 376 63 430 127 c 1,17,18
 483 197 483 197 483 338 c 2,19,-1
 483 1380 l 1,20,-1
 547 1380 l 1,21,-1
 547 338 l 2,22,23
 547 170 547 170 479 88 c 1,24,25
 411 0 411 0 274 0 c 128,-1,26
 137 0 137 0 68 88 c 1,27,28
 0 170 0 170 0 338 c 2,7,-1
EndSplineSet
EndChar

StartChar: Lacute
Encoding: 313 313 245
Width: 604
Flags: W
LayerCount: 2
Fore
SplineSet
20.2148 1400.12 m 9,0,-1
 119.626 1400.27 l 1,1,-1
 516.044 1534.82 l 1,2,-1
 417.697 1534.73 l 1,3,-1
 20.2148 1400.12 l 9,0,-1
8 0 m 1,4,-1
 8 1380 l 1,5,-1
 74 1380 l 1,6,-1
 74 63 l 1,7,-1
 537 63 l 1,8,-1
 537 0 l 1,9,-1
 8 0 l 1,4,-1
EndSplineSet
EndChar

StartChar: lacute
Encoding: 314 314 246
Width: 604
Flags: W
LayerCount: 2
Fore
SplineSet
20.2148 1400.12 m 9,0,-1
 119.626 1400.27 l 1,1,-1
 516.044 1534.82 l 1,2,-1
 417.697 1534.73 l 1,3,-1
 20.2148 1400.12 l 9,0,-1
8 0 m 1,4,-1
 8 1380 l 1,5,-1
 74 1380 l 1,6,-1
 74 63 l 1,7,-1
 537 63 l 1,8,-1
 537 0 l 1,9,-1
 8 0 l 1,4,-1
EndSplineSet
EndChar

StartChar: Ydieresis
Encoding: 376 376 247
Width: 854
Flags: W
LayerCount: 2
Fore
SplineSet
128 1431 m 1,0,-1
 128 1536 l 1,1,-1
 192 1536 l 1,2,-1
 192 1431 l 1,3,-1
 128 1431 l 1,0,-1
612 1431 m 1,4,-1
 612 1536 l 1,5,-1
 675 1536 l 1,6,-1
 675 1431 l 1,7,-1
 612 1431 l 1,4,-1
-20 1380 m 1,8,-1
 53 1380 l 1,9,-1
 395 758 l 1,10,-1
 737 1380 l 1,11,-1
 811 1380 l 1,12,-1
 428 682 l 1,13,-1
 428 0 l 1,14,-1
 365 0 l 1,15,-1
 365 682 l 1,16,-1
 -20 1380 l 1,8,-1
EndSplineSet
EndChar

StartChar: Dcaron
Encoding: 270 270 248
Width: 712
Flags: W
LayerCount: 2
Fore
SplineSet
275.125 1417.98 m 1,0,-1
 85.0273 1534.67 l 1,1,-1
 25.3809 1534.82 l 17,2,-1
 246.38 1400.12 l 1,3,-1
 305.389 1400.21 l 1,4,-1
 521.878 1534.82 l 9,5,-1
 462.231 1534.67 l 1,6,-1
 275.125 1417.98 l 1,0,-1
25 0 m 1,7,-1
 25 1380 l 1,8,-1
 260 1380 l 2,9,10
 424 1380 424 1380 504 1282 c 1,11,12
 580 1192 580 1192 580 1008 c 2,13,-1
 580 373 l 2,14,15
 580 189 580 189 504 98 c 1,16,17
 424 0 424 0 260 0 c 2,18,-1
 25 0 l 1,7,-1
88 63 m 1,19,-1
 260 63 l 2,20,21
 393 63 393 63 453.5 138 c 128,-1,22
 514 213 514 213 514 373 c 2,23,-1
 514 1008 l 2,24,25
 514 1168 514 1168 453.5 1242.5 c 128,-1,26
 393 1317 393 1317 260 1317 c 2,27,-1
 88 1317 l 1,28,-1
 88 63 l 1,19,-1
EndSplineSet
EndChar

StartChar: dcaron
Encoding: 271 271 249
Width: 712
Flags: W
LayerCount: 2
Fore
SplineSet
275.125 1417.98 m 1,0,-1
 85.0273 1534.67 l 1,1,-1
 25.3809 1534.82 l 17,2,-1
 246.38 1400.12 l 1,3,-1
 305.389 1400.21 l 1,4,-1
 521.878 1534.82 l 9,5,-1
 462.231 1534.67 l 1,6,-1
 275.125 1417.98 l 1,0,-1
25 0 m 1,7,-1
 25 1380 l 1,8,-1
 260 1380 l 2,9,10
 424 1380 424 1380 504 1282 c 1,11,12
 580 1192 580 1192 580 1008 c 2,13,-1
 580 373 l 2,14,15
 580 189 580 189 504 98 c 1,16,17
 424 0 424 0 260 0 c 2,18,-1
 25 0 l 1,7,-1
88 63 m 1,19,-1
 260 63 l 2,20,21
 393 63 393 63 453.5 138 c 128,-1,22
 514 213 514 213 514 373 c 2,23,-1
 514 1008 l 2,24,25
 514 1168 514 1168 453.5 1242.5 c 128,-1,26
 393 1317 393 1317 260 1317 c 2,27,-1
 88 1317 l 1,28,-1
 88 63 l 1,19,-1
EndSplineSet
EndChar

StartChar: exclamdown
Encoding: 161 161 250
Width: 190
Flags: W
LayerCount: 2
Fore
SplineSet
18 870 m 1,0,-1
 18 782 l 1,1,-1
 82 782 l 1,2,-1
 82 870 l 1,3,-1
 18 870 l 1,0,-1
18 669 m 1,4,-1
 18 -510 l 1,5,-1
 82 -510 l 1,6,-1
 82 669 l 1,7,-1
 18 669 l 1,4,-1
EndSplineSet
EndChar

StartChar: questiondown
Encoding: 191 191 251
Width: 620
Flags: W
LayerCount: 2
Fore
SplineSet
541 -126 m 1,0,-1
 541 -157 l 2,1,2
 541 -323 541 -323 478 -415 c 0,3,4
 412 -511 412 -511 285 -511 c 0,5,6
 164 -511 164 -511 91 -407 c 1,7,8
 60 -360 60 -360 44.5 -299.5 c 128,-1,9
 29 -239 29 -239 29 -167 c 0,10,11
 29 -93 29 -93 46.5 -39 c 128,-1,12
 64 15 64 15 88.5 55 c 128,-1,13
 113 95 113 95 141 121.5 c 128,-1,14
 169 148 169 148 191 166 c 2,15,-1
 210 181 l 2,16,17
 218 187 218 187 222 193 c 0,18,19
 263 240 263 240 286 353 c 0,20,21
 308 457 308 457 308 602 c 0,22,23
 308 615 308 615 308 627 c 2,24,-1
 308 633 l 1,25,-1
 308 666 l 1,26,-1
 371 666 l 1,27,-1
 371 633 l 1,28,-1
 371 627 l 2,29,30
 371 566 371 566 368 496.5 c 128,-1,31
 365 427 365 427 354 362.5 c 128,-1,32
 343 298 343 298 322.5 241.5 c 128,-1,33
 302 185 302 185 269 150 c 1,34,35
 257 134 257 134 232 117 c 1,36,-1
 187 76 l 2,37,38
 162 53 162 53 141.5 19.5 c 128,-1,39
 121 -14 121 -14 108 -59 c 128,-1,40
 95 -104 95 -104 95 -167 c 0,41,42
 95 -228 95 -228 107 -280.5 c 128,-1,43
 119 -333 119 -333 144 -370 c 0,44,45
 197 -448 197 -448 285 -448 c 0,46,47
 379 -448 379 -448 425 -378 c 1,48,49
 476 -308 476 -308 476 -157 c 2,50,-1
 476 -126 l 1,51,-1
 541 -126 l 1,0,-1
373 869 m 1,52,-1
 373 781 l 1,53,-1
 308 781 l 1,54,-1
 308 869 l 1,55,-1
 373 869 l 1,52,-1
EndSplineSet
EndChar
